SplineFontDB: 3.0
FontName: Glegoo-Regular
FullName: Glegoo
FamilyName: Glegoo
Weight: Book
Copyright: Copyright (c) 2011, Eduardo Tunni (http://www.tipo.net.ar), with Reserved Font Name "Glegoo"
Version: 1.001
ItalicAngle: 0
UnderlinePosition: 1
UnderlineWidth: 3
Ascent: 800
Descent: 200
sfntRevision: 0x00010042
LayerCount: 2
Layer: 0 1 "Back"  1
Layer: 1 1 "Fore"  0
XUID: [1021 1022 967238044 3371324]
FSType: 0
OS2Version: 2
OS2_WeightWidthSlopeOnly: 0
OS2_UseTypoMetrics: 1
CreationTime: 1327251430
ModificationTime: 1327255703
PfmFamily: 17
TTFWeight: 400
TTFWidth: 5
LineGap: 0
VLineGap: 0
Panose: 2 0 0 0 0 0 0 0 0 0
OS2TypoAscent: 185
OS2TypoAOffset: 1
OS2TypoDescent: -41
OS2TypoDOffset: 1
OS2TypoLinegap: 0
OS2WinAscent: 0
OS2WinAOffset: 1
OS2WinDescent: 0
OS2WinDOffset: 1
HheadAscent: 0
HheadAOffset: 1
HheadDescent: 0
HheadDOffset: 1
OS2SubXSize: 700
OS2SubYSize: 650
OS2SubXOff: 0
OS2SubYOff: 140
OS2SupXSize: 700
OS2SupYSize: 650
OS2SupXOff: 0
OS2SupYOff: 477
OS2StrikeYSize: 3
OS2StrikeYPos: 572
OS2Vendor: 'TIPO'
OS2CodePages: 20000001.00000000
OS2UnicodeRanges: 800000af.4000204a.00000000.00000000
Lookup: 258 0 0 "'kern' Horizontal Kerning in Latin lookup 0"  {"'kern' Horizontal Kerning in Latin lookup 0 subtable"  } ['kern' ('DFLT' <'dflt' > 'latn' <'dflt' > ) ]
DEI: 91125
TtTable: prep
PUSHW_1
 511
SCANCTRL
PUSHB_1
 4
SCANTYPE
EndTTInstrs
ShortTable: maxp 16
  1
  0
  247
  208
  7
  0
  0
  2
  0
  1
  1
  0
  64
  0
  0
  0
EndShort
LangName: 1033 "" "" "" "EduardoRodriguezTunni: Glegoo: 2011" "" "Version 1.001" "" "Glegoo is a trademark of Eduardo Rodriguez Tunni." "Eduardo Rodriguez Tunni" "Eduardo Rodriguez Tunni" "" "http://www.tipo.net.ar" "http://www.tipo.net.ar" "This Font Software is licensed under the SIL Open Font License, Version 1.1. This license is available with a FAQ at: http://scripts.sil.org/OFL" "http://scripts.sil.org/OFL" 
GaspTable: 1 65535 15 1
Encoding: UnicodeBmp
UnicodeInterp: none
NameList: Adobe Glyph List
DisplaySize: -24

StartChar: exclam
Encoding: 33 33 4
Width: 316
GlyphClass: 2
Flags: W
LayerCount: 2
Fore
SplineSet
125.5 2 m 128,-1,1
 114 12 114 12 112 22.5 c 128,-1,2
 110 33 110 33 110 55 c 128,-1,3
 110 77 110 77 119 93 c 128,-1,4
 128 109 128 109 158.5 109 c 128,-1,5
 189 109 189 109 198 90 c 0,6,7
 203 80 203 80 204.5 71.5 c 128,-1,8
 206 63 206 63 206 43 c 128,-1,9
 206 23 206 23 197 7.5 c 128,-1,10
 188 -8 188 -8 162.5 -8 c 128,-1,0
 137 -8 137 -8 125.5 2 c 128,-1,1
117 730 m 1,11,-1
 197 730 l 1,12,-1
 197 572 l 1,13,-1
 179 185 l 1,14,-1
 135 185 l 1,15,-1
 117 572 l 1,16,-1
 117 730 l 1,11,-1
EndSplineSet
EndChar

StartChar: quotedbl
Encoding: 34 34 5
Width: 400
GlyphClass: 2
Flags: W
LayerCount: 2
Fore
SplineSet
240 730 m 1,0,-1
 320 730 l 1,1,-1
 320 650 l 1,2,-1
 302 491 l 1,3,-1
 258 491 l 1,4,-1
 240 650 l 1,5,-1
 240 730 l 1,0,-1
80 730 m 1,6,-1
 160 730 l 1,7,-1
 160 650 l 1,8,-1
 142 491 l 1,9,-1
 98 491 l 1,10,-1
 80 650 l 1,11,-1
 80 730 l 1,6,-1
EndSplineSet
EndChar

StartChar: numbersign
Encoding: 35 35 6
Width: 795
GlyphClass: 2
Flags: W
LayerCount: 2
Fore
SplineSet
438 -106 m 1,0,-1
 484 150 l 1,1,-1
 245 150 l 1,2,-1
 199 -106 l 1,3,-1
 128 -106 l 1,4,-1
 174 150 l 1,5,-1
 60 150 l 1,6,-1
 70 209 l 1,7,-1
 185 209 l 1,8,-1
 230 460 l 1,9,-1
 114 460 l 1,10,-1
 124 519 l 1,11,-1
 241 519 l 1,12,-1
 288 775 l 1,13,-1
 359 775 l 1,14,-1
 312 519 l 1,15,-1
 551 519 l 1,16,-1
 598 775 l 1,17,-1
 669 775 l 1,18,-1
 622 519 l 1,19,-1
 735 519 l 1,20,-1
 725 460 l 1,21,-1
 611 460 l 1,22,-1
 566 209 l 1,23,-1
 681 209 l 1,24,-1
 671 150 l 1,25,-1
 555 150 l 1,26,-1
 509 -106 l 1,27,-1
 438 -106 l 1,0,-1
301 460 m 1,28,-1
 256 209 l 1,29,-1
 495 209 l 1,30,-1
 540 460 l 1,31,-1
 301 460 l 1,28,-1
EndSplineSet
EndChar

StartChar: dollar
Encoding: 36 36 7
Width: 580
GlyphClass: 2
Flags: W
LayerCount: 2
Fore
SplineSet
267 -74 m 1,0,-1
 267 -13 l 1,1,2
 162 -8 162 -8 117.5 44.5 c 128,-1,3
 73 97 73 97 73 195 c 1,4,-1
 145 195 l 1,5,6
 145 127 145 127 171.5 91 c 128,-1,7
 198 55 198 55 267 49 c 1,8,-1
 267 306 l 1,9,-1
 246 309 l 2,10,11
 159 322 159 322 121 366 c 128,-1,12
 83 410 83 410 83 495.5 c 128,-1,13
 83 581 83 581 125 629.5 c 128,-1,14
 167 678 167 678 267 683 c 1,15,-1
 267 744 l 1,16,-1
 317 744 l 1,17,-1
 317 683 l 1,18,19
 416 676 416 676 459 624 c 128,-1,20
 502 572 502 572 502 475 c 1,21,-1
 430 475 l 1,22,23
 430 543 430 543 405.5 579 c 128,-1,24
 381 615 381 615 317 621 c 1,25,-1
 317 364 l 1,26,-1
 338 361 l 2,27,28
 430 347 430 347 471 303 c 128,-1,29
 512 259 512 259 512 175.5 c 128,-1,30
 512 92 512 92 466.5 42 c 128,-1,31
 421 -8 421 -8 317 -13 c 1,32,-1
 317 -74 l 1,33,-1
 267 -74 l 1,0,-1
440 181 m 0,34,35
 440 277 440 277 338 295 c 1,36,-1
 317 298 l 1,37,-1
 317 49 l 1,38,39
 386 53 386 53 413 85.5 c 128,-1,40
 440 118 440 118 440 181 c 0,34,35
155 489 m 0,41,42
 155 390 155 390 246 375 c 1,43,-1
 267 372 l 1,44,-1
 267 621 l 1,45,46
 203 615 203 615 179 583 c 128,-1,47
 155 551 155 551 155 489 c 0,41,42
EndSplineSet
EndChar

StartChar: percent
Encoding: 37 37 8
Width: 982
GlyphClass: 2
Flags: W
LayerCount: 2
Fore
SplineSet
348 -66 m 1,0,-1
 562 735 l 1,1,-1
 615 735 l 1,2,-1
 400 -66 l 1,3,-1
 348 -66 l 1,0,-1
765 -8 m 128,-1,5
 718 -8 718 -8 688.5 6 c 128,-1,6
 659 20 659 20 645 50.5 c 128,-1,7
 631 81 631 81 626.5 114.5 c 128,-1,8
 622 148 622 148 622 202.5 c 128,-1,9
 622 257 622 257 626.5 290.5 c 128,-1,10
 631 324 631 324 645 354 c 0,11,12
 672 413 672 413 765 413 c 0,13,14
 839 413 839 413 872 376 c 0,15,16
 900 345 900 345 906 274 c 0,17,18
 909 246 909 246 909 197 c 128,-1,19
 909 148 909 148 904.5 114.5 c 128,-1,20
 900 81 900 81 886 50.5 c 128,-1,21
 872 20 872 20 842 6 c 128,-1,4
 812 -8 812 -8 765 -8 c 128,-1,5
693.5 73.5 m 128,-1,23
 710 36 710 36 765.5 36 c 128,-1,24
 821 36 821 36 837.5 73.5 c 128,-1,25
 854 111 854 111 854 202.5 c 128,-1,26
 854 294 854 294 837.5 331.5 c 128,-1,27
 821 369 821 369 765.5 369 c 128,-1,28
 710 369 710 369 693.5 331.5 c 128,-1,29
 677 294 677 294 677 202.5 c 128,-1,22
 677 111 677 111 693.5 73.5 c 128,-1,23
214 263 m 128,-1,31
 167 263 167 263 137.5 277 c 128,-1,32
 108 291 108 291 94 321.5 c 128,-1,33
 80 352 80 352 75.5 385.5 c 128,-1,34
 71 419 71 419 71 473.5 c 128,-1,35
 71 528 71 528 75.5 561.5 c 128,-1,36
 80 595 80 595 94 626 c 0,37,38
 121 684 121 684 214 684 c 0,39,40
 288 684 288 684 321 648 c 0,41,42
 349 616 349 616 356 546 c 0,43,44
 358 517 358 517 358 468 c 128,-1,45
 358 419 358 419 353.5 385.5 c 128,-1,46
 349 352 349 352 335 321.5 c 128,-1,47
 321 291 321 291 291 277 c 128,-1,30
 261 263 261 263 214 263 c 128,-1,31
142.5 344.5 m 128,-1,49
 159 307 159 307 214.5 307 c 128,-1,50
 270 307 270 307 286.5 344.5 c 128,-1,51
 303 382 303 382 303 473.5 c 128,-1,52
 303 565 303 565 286.5 602.5 c 128,-1,53
 270 640 270 640 214.5 640 c 128,-1,54
 159 640 159 640 142.5 602.5 c 128,-1,55
 126 565 126 565 126 473.5 c 128,-1,48
 126 382 126 382 142.5 344.5 c 128,-1,49
EndSplineSet
EndChar

StartChar: ampersand
Encoding: 38 38 9
Width: 609
GlyphClass: 2
Flags: W
LayerCount: 2
Fore
SplineSet
55 182 m 0,0,1
 55 252 55 252 86 298 c 128,-1,2
 117 344 117 344 169 364 c 1,3,4
 125 387 125 387 99.5 429 c 128,-1,5
 74 471 74 471 74 525 c 0,6,7
 74 714 74 714 275 714 c 0,8,9
 463 714 463 714 463 520 c 1,10,-1
 401 520 l 1,11,12
 401 655 401 655 276 655 c 0,13,14
 203 655 203 655 173.5 621 c 128,-1,15
 144 587 144 587 144 525 c 128,-1,16
 144 463 144 463 178.5 424 c 128,-1,17
 213 385 213 385 272 385 c 2,18,-1
 609 385 l 1,19,-1
 609 331 l 1,20,-1
 496 331 l 1,21,-1
 496 179 l 2,22,23
 496 83 496 83 447 34.5 c 128,-1,24
 398 -14 398 -14 281 -14 c 0,25,26
 55 -14 55 -14 55 182 c 0,0,1
125 178 m 0,27,28
 125 45 125 45 281 45 c 0,29,30
 363 45 363 45 398.5 79.5 c 128,-1,31
 434 114 434 114 434 179 c 2,32,-1
 434 331 l 1,33,-1
 263 331 l 2,34,35
 191 331 191 331 158 289.5 c 128,-1,36
 125 248 125 248 125 178 c 0,27,28
EndSplineSet
EndChar

StartChar: quotesingle
Encoding: 39 39 10
Width: 240
GlyphClass: 2
Flags: W
LayerCount: 2
Fore
SplineSet
80 730 m 1,0,-1
 160 730 l 1,1,-1
 160 650 l 1,2,-1
 142 491 l 1,3,-1
 98 491 l 1,4,-1
 80 650 l 1,5,-1
 80 730 l 1,0,-1
EndSplineSet
EndChar

StartChar: parenleft
Encoding: 40 40 11
Width: 294
GlyphClass: 2
Flags: W
LayerCount: 2
Fore
SplineSet
289 -4 m 1,0,-1
 289 -66 l 1,1,2
 188 -66 188 -66 142 -18 c 0,3,4
 92 34 92 34 78 120 c 0,5,6
 65 200 65 200 65 309 c 128,-1,7
 65 418 65 418 69 473 c 128,-1,8
 73 528 73 528 86 582 c 128,-1,9
 99 636 99 636 123 666 c 0,10,11
 177 735 177 735 289 735 c 1,12,-1
 289 673 l 1,13,14
 223 673 223 673 192 632 c 0,15,16
 149 573 149 573 144 434 c 0,17,18
 142 394 142 394 142 335 c 128,-1,19
 142 276 142 276 143.5 235.5 c 128,-1,20
 145 195 145 195 150.5 153.5 c 128,-1,21
 156 112 156 112 166 85.5 c 128,-1,22
 176 59 176 59 192 38 c 0,23,24
 223 -4 223 -4 289 -4 c 1,0,-1
EndSplineSet
EndChar

StartChar: parenright
Encoding: 41 41 12
Width: 294
GlyphClass: 2
Flags: W
LayerCount: 2
Fore
SplineSet
5 673 m 1,0,-1
 5 735 l 1,1,2
 106 735 106 735 152 686 c 1,3,4
 202 635 202 635 216 549 c 0,5,6
 229 469 229 469 229 360 c 128,-1,7
 229 251 229 251 225 196 c 128,-1,8
 221 141 221 141 208 87 c 128,-1,9
 195 33 195 33 171 2 c 0,10,11
 117 -66 117 -66 5 -66 c 1,12,-1
 5 -4 l 1,13,14
 71 -4 71 -4 102 38 c 0,15,16
 145 96 145 96 150 235 c 0,17,18
 152 275 152 275 152 334 c 128,-1,19
 152 393 152 393 150.5 433.5 c 128,-1,20
 149 474 149 474 143.5 515.5 c 128,-1,21
 138 557 138 557 128 583.5 c 128,-1,22
 118 610 118 610 102 632 c 0,23,24
 71 673 71 673 5 673 c 1,0,-1
EndSplineSet
EndChar

StartChar: asterisk
Encoding: 42 42 13
Width: 552
GlyphClass: 2
Flags: W
LayerCount: 2
Fore
SplineSet
236 779 m 1,0,-1
 316 779 l 1,1,-1
 316 700 l 1,2,-1
 288 577 l 1,3,-1
 264 577 l 1,4,-1
 236 700 l 1,5,-1
 236 779 l 1,0,-1
27 570 m 1,6,-1
 52 645 l 1,7,-1
 127 621 l 1,8,-1
 236 556 l 1,9,-1
 228 534 l 1,10,-1
 102 545 l 1,11,-1
 27 570 l 1,6,-1
162 306 m 1,12,-1
 98 353 l 1,13,-1
 144 418 l 1,14,-1
 239 501 l 1,15,-1
 258 486 l 1,16,-1
 209 370 l 1,17,-1
 162 306 l 1,12,-1
454 353 m 1,18,-1
 390 306 l 1,19,-1
 343 370 l 1,20,-1
 293 486 l 1,21,-1
 313 500 l 1,22,-1
 408 418 l 1,23,-1
 454 353 l 1,18,-1
500 645 m 1,24,-1
 525 570 l 1,25,-1
 450 545 l 1,26,-1
 324 533 l 1,27,-1
 317 556 l 1,28,-1
 424 621 l 1,29,-1
 500 645 l 1,24,-1
EndSplineSet
EndChar

StartChar: plus
Encoding: 43 43 14
Width: 580
GlyphClass: 2
Flags: W
LayerCount: 2
Fore
SplineSet
94 288 m 1,0,-1
 94 348 l 1,1,-1
 260 348 l 1,2,-1
 260 514 l 1,3,-1
 320 514 l 1,4,-1
 320 348 l 1,5,-1
 486 348 l 1,6,-1
 486 288 l 1,7,-1
 320 288 l 1,8,-1
 320 122 l 1,9,-1
 260 122 l 1,10,-1
 260 288 l 1,11,-1
 94 288 l 1,0,-1
EndSplineSet
EndChar

StartChar: comma
Encoding: 44 44 15
Width: 226
GlyphClass: 2
Flags: W
LayerCount: 2
Fore
SplineSet
77 -14 m 1,0,-1
 65 50 l 1,1,2
 65 68 65 68 67 78.5 c 128,-1,3
 69 89 69 89 80 99 c 128,-1,4
 91 109 91 109 117 109 c 128,-1,5
 143 109 143 109 152 93 c 128,-1,6
 161 77 161 77 161 49.5 c 128,-1,7
 161 22 161 22 150.5 -6 c 128,-1,8
 140 -34 140 -34 126 -54 c 1,9,10
 93 -97 93 -97 72 -112 c 2,11,-1
 61 -120 l 1,12,-1
 38 -93 l 1,13,14
 51 -81 51 -81 58 -73 c 0,15,16
 77 -51 77 -51 77 -14 c 1,0,-1
EndSplineSet
EndChar

StartChar: hyphen
Encoding: 45 45 16
Width: 492
GlyphClass: 2
Flags: W
LayerCount: 2
Fore
SplineSet
70 288 m 1,0,-1
 70 348 l 1,1,-1
 422 348 l 1,2,-1
 422 288 l 1,3,-1
 70 288 l 1,0,-1
EndSplineSet
EndChar

StartChar: period
Encoding: 46 46 17
Width: 226
GlyphClass: 2
Flags: W
LayerCount: 2
Fore
SplineSet
65 50 m 0,0,1
 65 68 65 68 67 78.5 c 128,-1,2
 69 89 69 89 80 99 c 128,-1,3
 91 109 91 109 117 109 c 128,-1,4
 143 109 143 109 152 93 c 128,-1,5
 161 77 161 77 161 57.5 c 128,-1,6
 161 38 161 38 159.5 29.5 c 128,-1,7
 158 21 158 21 154 12 c 0,8,9
 144 -8 144 -8 104.5 -8 c 128,-1,10
 65 -8 65 -8 65 50 c 0,0,1
EndSplineSet
EndChar

StartChar: slash
Encoding: 47 47 18
Width: 308
GlyphClass: 2
Flags: W
LayerCount: 2
Fore
SplineSet
0 -106 m 1,0,-1
 237 775 l 1,1,-1
 308 775 l 1,2,-1
 71 -106 l 1,3,-1
 0 -106 l 1,0,-1
EndSplineSet
EndChar

StartChar: zero
Encoding: 48 48 19
Width: 580
GlyphClass: 2
Flags: W
LayerCount: 2
Fore
SplineSet
392.5 3 m 128,-1,1
 350 -14 350 -14 294 -14 c 128,-1,2
 238 -14 238 -14 200 -3.5 c 128,-1,3
 162 7 162 7 137.5 30 c 128,-1,4
 113 53 113 53 97 80.5 c 128,-1,5
 81 108 81 108 73 151 c 128,-1,6
 65 194 65 194 62.5 235 c 128,-1,7
 60 276 60 276 60 335 c 128,-1,8
 60 394 60 394 62.5 434.5 c 128,-1,9
 65 475 65 475 73 518 c 128,-1,10
 81 561 81 561 97 588.5 c 128,-1,11
 113 616 113 616 138 639 c 0,12,13
 184 683 184 683 289 683 c 0,14,15
 404 683 404 683 460 622 c 0,16,17
 505 572 505 572 515 453 c 0,18,19
 519 406 519 406 519 335 c 128,-1,20
 519 264 519 264 515 217 c 128,-1,21
 511 170 511 170 497.5 122 c 128,-1,22
 484 74 484 74 459.5 47 c 128,-1,0
 435 20 435 20 392.5 3 c 128,-1,1
289 45 m 128,-1,24
 331 45 331 45 360.5 58 c 128,-1,25
 390 71 390 71 407 92.5 c 128,-1,26
 424 114 424 114 433.5 152.5 c 128,-1,27
 443 191 443 191 446 232 c 128,-1,28
 449 273 449 273 449 335 c 128,-1,29
 449 397 449 397 446 437.5 c 128,-1,30
 443 478 443 478 433.5 516.5 c 128,-1,31
 424 555 424 555 407 576.5 c 128,-1,32
 390 598 390 598 360.5 611 c 128,-1,33
 331 624 331 624 289 624 c 128,-1,34
 247 624 247 624 218 611 c 128,-1,35
 189 598 189 598 171.5 576.5 c 128,-1,36
 154 555 154 555 145 516.5 c 128,-1,37
 136 478 136 478 133 437.5 c 128,-1,38
 130 397 130 397 130 335 c 128,-1,39
 130 273 130 273 133 232 c 128,-1,40
 136 191 136 191 145 152.5 c 128,-1,41
 154 114 154 114 171.5 92.5 c 128,-1,42
 189 71 189 71 218 58 c 128,-1,23
 247 45 247 45 289 45 c 128,-1,24
EndSplineSet
EndChar

StartChar: one
Encoding: 49 49 20
Width: 580
GlyphClass: 2
Flags: W
LayerCount: 2
Fore
SplineSet
138 575 m 1,0,-1
 138 620 l 1,1,2
 238 630 238 630 293 670 c 1,3,-1
 345 670 l 1,4,-1
 345 59 l 1,5,-1
 485 59 l 1,6,-1
 485 0 l 1,7,-1
 133 0 l 1,8,-1
 133 59 l 1,9,-1
 273 59 l 1,10,-1
 273 575 l 1,11,-1
 138 575 l 1,0,-1
EndSplineSet
EndChar

StartChar: two
Encoding: 50 50 21
Width: 580
GlyphClass: 2
Flags: W
LayerCount: 2
Fore
SplineSet
505 59 m 1,0,-1
 505 0 l 1,1,-1
 76 0 l 1,2,-1
 76 57 l 1,3,-1
 338 340 l 2,4,5
 383 389 383 389 405.5 426 c 128,-1,6
 428 463 428 463 428 513.5 c 128,-1,7
 428 564 428 564 397 594.5 c 128,-1,8
 366 625 366 625 289 625 c 128,-1,9
 212 625 212 625 182 591 c 128,-1,10
 152 557 152 557 152 490 c 1,11,-1
 90 490 l 1,12,13
 90 584 90 584 136.5 634 c 128,-1,14
 183 684 183 684 292 684 c 0,15,16
 498 684 498 684 498 506 c 0,17,18
 498 448 498 448 466 395.5 c 128,-1,19
 434 343 434 343 377 281 c 2,20,-1
 171 59 l 1,21,-1
 505 59 l 1,0,-1
EndSplineSet
EndChar

StartChar: three
Encoding: 51 51 22
Width: 580
GlyphClass: 2
Flags: W
LayerCount: 2
Fore
SplineSet
516 167 m 0,0,1
 516 -14 516 -14 290 -14 c 0,2,3
 174 -14 174 -14 124.5 35.5 c 128,-1,4
 75 85 75 85 75 179 c 1,5,-1
 137 179 l 1,6,7
 137 114 137 114 172.5 79.5 c 128,-1,8
 208 45 208 45 290 45 c 0,9,10
 446 45 446 45 446 166 c 0,11,12
 446 229 446 229 413 267 c 128,-1,13
 380 305 380 305 308 305 c 2,14,-1
 202 305 l 1,15,-1
 202 359 l 1,16,-1
 309 359 l 2,17,18
 369 359 369 359 403 396.5 c 128,-1,19
 437 434 437 434 437 495.5 c 128,-1,20
 437 557 437 557 404.5 591 c 128,-1,21
 372 625 372 625 290 625 c 0,22,23
 150 625 150 625 150 490 c 1,24,-1
 88 490 l 1,25,26
 88 684 88 684 290 684 c 0,27,28
 406 684 406 684 456.5 634 c 128,-1,29
 507 584 507 584 507 490 c 0,30,31
 507 437 507 437 478.5 396.5 c 128,-1,32
 450 356 450 356 403 335 c 1,33,34
 455 316 455 316 485.5 273.5 c 128,-1,35
 516 231 516 231 516 167 c 0,0,1
EndSplineSet
EndChar

StartChar: four
Encoding: 52 52 23
Width: 580
GlyphClass: 2
Flags: W
LayerCount: 2
Fore
SplineSet
437 0 m 1,0,-1
 366 0 l 1,1,-1
 366 150 l 1,2,-1
 32 150 l 1,3,-1
 32 208 l 1,4,-1
 325 670 l 1,5,-1
 437 670 l 1,6,-1
 437 209 l 1,7,-1
 521 209 l 1,8,-1
 521 150 l 1,9,-1
 437 150 l 1,10,-1
 437 0 l 1,0,-1
366 209 m 1,11,-1
 366 611 l 1,12,-1
 111 209 l 1,13,-1
 366 209 l 1,11,-1
EndSplineSet
EndChar

StartChar: five
Encoding: 53 53 24
Width: 580
GlyphClass: 2
Flags: W
LayerCount: 2
Fore
SplineSet
477 670 m 1,0,-1
 477 611 l 1,1,-1
 177 611 l 1,2,-1
 164 400 l 1,3,-1
 207 400 l 2,4,5
 369 400 369 400 441.5 354.5 c 128,-1,6
 514 309 514 309 514 200.5 c 128,-1,7
 514 92 514 92 463 39 c 128,-1,8
 412 -14 412 -14 295.5 -14 c 128,-1,9
 179 -14 179 -14 131 39 c 128,-1,10
 83 92 83 92 83 195 c 1,11,-1
 145 195 l 1,12,13
 145 121 145 121 177 83 c 128,-1,14
 209 45 209 45 292.5 45 c 128,-1,15
 376 45 376 45 410 82.5 c 128,-1,16
 444 120 444 120 444 196.5 c 128,-1,17
 444 273 444 273 391 307 c 128,-1,18
 338 341 338 341 206 341 c 2,19,-1
 97 341 l 1,20,-1
 118 670 l 1,21,-1
 477 670 l 1,0,-1
EndSplineSet
EndChar

StartChar: six
Encoding: 54 54 25
Width: 580
GlyphClass: 2
Flags: W
LayerCount: 2
Fore
SplineSet
513 202 m 0,0,1
 513 99 513 99 462 42.5 c 128,-1,2
 411 -14 411 -14 284.5 -14 c 128,-1,3
 158 -14 158 -14 109.5 58 c 128,-1,4
 61 130 61 130 61 289 c 0,5,6
 61 546 61 546 124 620 c 0,7,8
 178 684 178 684 291 684 c 128,-1,9
 404 684 404 684 452 635 c 128,-1,10
 500 586 500 586 501 482 c 1,11,-1
 439 482 l 1,12,13
 439 558 439 558 404.5 591.5 c 128,-1,14
 370 625 370 625 290 625 c 0,15,16
 211 625 211 625 174 579 c 0,17,18
 131 526 131 526 131 357 c 1,19,20
 218 383 218 383 289 383 c 0,21,22
 513 383 513 383 513 202 c 0,0,1
406 292.5 m 128,-1,24
 369 327 369 327 287.5 327 c 128,-1,25
 206 327 206 327 131 302 c 1,26,27
 133 153 133 153 165.5 99 c 128,-1,28
 198 45 198 45 287 45 c 128,-1,29
 376 45 376 45 409.5 85 c 128,-1,30
 443 125 443 125 443 202 c 0,31,23
 443 258 443 258 406 292.5 c 128,-1,24
EndSplineSet
EndChar

StartChar: seven
Encoding: 55 55 26
Width: 580
GlyphClass: 2
Flags: W
LayerCount: 2
Fore
SplineSet
86 508 m 1,0,-1
 86 670 l 1,1,-1
 515 670 l 1,2,-1
 515 614 l 1,3,-1
 251 0 l 1,4,-1
 174 0 l 1,5,-1
 438 611 l 1,6,-1
 139 611 l 1,7,-1
 139 508 l 1,8,-1
 86 508 l 1,0,-1
EndSplineSet
EndChar

StartChar: eight
Encoding: 56 56 27
Width: 580
GlyphClass: 2
Flags: W
LayerCount: 2
Fore
SplineSet
75 490 m 0,0,1
 75 584 75 584 124.5 634 c 128,-1,2
 174 684 174 684 290 684 c 128,-1,3
 406 684 406 684 455.5 634 c 128,-1,4
 505 584 505 584 505 490 c 0,5,6
 505 381 505 381 401 339 c 1,7,8
 459 319 459 319 486.5 279 c 128,-1,9
 514 239 514 239 514 170 c 0,10,11
 514 -14 514 -14 290 -14 c 128,-1,12
 66 -14 66 -14 66 170 c 0,13,14
 66 292 66 292 176 334 c 1,15,16
 75 372 75 372 75 490 c 0,0,1
257 314 m 1,17,18
 136 293 136 293 136 169 c 128,-1,19
 136 45 136 45 290 45 c 128,-1,20
 444 45 444 45 444 170 c 0,21,22
 444 231 444 231 419.5 261.5 c 128,-1,23
 395 292 395 292 334 302 c 2,24,-1
 257 314 l 1,17,18
435 490 m 0,25,26
 435 556 435 556 403 590.5 c 128,-1,27
 371 625 371 625 290 625 c 128,-1,28
 209 625 209 625 177 590.5 c 128,-1,29
 145 556 145 556 145 494.5 c 128,-1,30
 145 433 145 433 169.5 405.5 c 128,-1,31
 194 378 194 378 256 368 c 2,32,-1
 314 358 l 1,33,34
 435 379 435 379 435 490 c 0,25,26
EndSplineSet
EndChar

StartChar: nine
Encoding: 57 57 28
Width: 580
GlyphClass: 2
Flags: W
LayerCount: 2
Fore
SplineSet
291 684 m 0,0,1
 361 684 361 684 405 665 c 128,-1,2
 449 646 449 646 473 601 c 128,-1,3
 497 556 497 556 505 497.5 c 128,-1,4
 513 439 513 439 513 354.5 c 128,-1,5
 513 270 513 270 508.5 220 c 128,-1,6
 504 170 504 170 490.5 122.5 c 128,-1,7
 477 75 477 75 452 47 c 0,8,9
 399 -14 399 -14 285.5 -14 c 128,-1,10
 172 -14 172 -14 123 37.5 c 128,-1,11
 74 89 74 89 73 188 c 1,12,-1
 135 188 l 1,13,14
 135 117 135 117 170 81 c 128,-1,15
 205 45 205 45 288.5 45 c 128,-1,16
 372 45 372 45 405.5 98 c 128,-1,17
 439 151 439 151 442 301 c 1,18,19
 364 278 364 278 288 278 c 0,20,21
 63 278 63 278 63 473 c 1,22,23
 65 575 65 575 118.5 629.5 c 128,-1,24
 172 684 172 684 291 684 c 0,0,1
170.5 374.5 m 128,-1,26
 208 335 208 335 287.5 335 c 128,-1,27
 367 335 367 335 443 355 c 1,28,29
 442 518 442 518 412 571.5 c 128,-1,30
 382 625 382 625 294 625 c 128,-1,31
 206 625 206 625 169.5 586.5 c 128,-1,32
 133 548 133 548 133 481 c 128,-1,25
 133 414 133 414 170.5 374.5 c 128,-1,26
EndSplineSet
EndChar

StartChar: colon
Encoding: 58 58 29
Width: 226
GlyphClass: 2
Flags: W
LayerCount: 2
Fore
SplineSet
65 50 m 0,0,1
 65 68 65 68 67 78.5 c 128,-1,2
 69 89 69 89 80 99 c 128,-1,3
 91 109 91 109 117 109 c 128,-1,4
 143 109 143 109 152 93 c 128,-1,5
 161 77 161 77 161 57.5 c 128,-1,6
 161 38 161 38 159.5 29.5 c 128,-1,7
 158 21 158 21 154 12 c 0,8,9
 144 -8 144 -8 104.5 -8 c 128,-1,10
 65 -8 65 -8 65 50 c 0,0,1
65 471 m 0,11,12
 65 489 65 489 67 499.5 c 128,-1,13
 69 510 69 510 80 520 c 128,-1,14
 91 530 91 530 117 530 c 128,-1,15
 143 530 143 530 152 514 c 128,-1,16
 161 498 161 498 161 478.5 c 128,-1,17
 161 459 161 459 159.5 450.5 c 128,-1,18
 158 442 158 442 154 432 c 1,19,20
 144 413 144 413 104.5 413 c 128,-1,21
 65 413 65 413 65 471 c 0,11,12
EndSplineSet
EndChar

StartChar: semicolon
Encoding: 59 59 30
Width: 226
GlyphClass: 2
Flags: W
LayerCount: 2
Fore
SplineSet
77 -14 m 1,0,-1
 65 50 l 1,1,2
 65 68 65 68 67 78.5 c 128,-1,3
 69 89 69 89 80 99 c 128,-1,4
 91 109 91 109 117 109 c 128,-1,5
 143 109 143 109 152 93 c 128,-1,6
 161 77 161 77 161 49.5 c 128,-1,7
 161 22 161 22 150.5 -6 c 128,-1,8
 140 -34 140 -34 126 -54 c 1,9,10
 93 -97 93 -97 72 -112 c 2,11,-1
 61 -120 l 1,12,-1
 38 -93 l 1,13,14
 51 -81 51 -81 58 -73 c 0,15,16
 77 -51 77 -51 77 -14 c 1,0,-1
65 471 m 0,17,18
 65 489 65 489 67 499.5 c 128,-1,19
 69 510 69 510 80 520 c 128,-1,20
 91 530 91 530 117 530 c 128,-1,21
 143 530 143 530 152 514 c 128,-1,22
 161 498 161 498 161 478.5 c 128,-1,23
 161 459 161 459 159.5 450.5 c 128,-1,24
 158 442 158 442 154 432 c 1,25,26
 144 413 144 413 104.5 413 c 128,-1,27
 65 413 65 413 65 471 c 0,17,18
EndSplineSet
EndChar

StartChar: less
Encoding: 60 60 31
Width: 580
GlyphClass: 2
Flags: W
LayerCount: 2
Fore
SplineSet
89 279 m 1,0,-1
 89 355 l 1,1,-1
 491 523 l 1,2,-1
 491 457 l 1,3,-1
 148 317 l 1,4,-1
 491 177 l 1,5,-1
 491 111 l 1,6,-1
 89 279 l 1,0,-1
EndSplineSet
EndChar

StartChar: equal
Encoding: 61 61 32
Width: 580
GlyphClass: 2
Flags: W
LayerCount: 2
Fore
SplineSet
94 388 m 1,0,-1
 94 448 l 1,1,-1
 486 448 l 1,2,-1
 486 388 l 1,3,-1
 94 388 l 1,0,-1
94 188 m 1,4,-1
 94 248 l 1,5,-1
 486 248 l 1,6,-1
 486 188 l 1,7,-1
 94 188 l 1,4,-1
EndSplineSet
EndChar

StartChar: greater
Encoding: 62 62 33
Width: 580
GlyphClass: 2
Flags: W
LayerCount: 2
Fore
SplineSet
491 355 m 1,0,-1
 491 279 l 1,1,-1
 89 111 l 1,2,-1
 89 177 l 1,3,-1
 432 317 l 1,4,-1
 89 457 l 1,5,-1
 89 523 l 1,6,-1
 491 355 l 1,0,-1
EndSplineSet
EndChar

StartChar: question
Encoding: 63 63 34
Width: 484
GlyphClass: 2
Flags: W
LayerCount: 2
Fore
SplineSet
190.5 2 m 128,-1,1
 179 12 179 12 177 22.5 c 128,-1,2
 175 33 175 33 175 55 c 128,-1,3
 175 77 175 77 184 93 c 128,-1,4
 193 109 193 109 223.5 109 c 128,-1,5
 254 109 254 109 264 90 c 1,6,7
 268 80 268 80 269.5 71.5 c 128,-1,8
 271 63 271 63 271 43 c 128,-1,9
 271 23 271 23 262 7.5 c 128,-1,10
 253 -8 253 -8 227.5 -8 c 128,-1,0
 202 -8 202 -8 190.5 2 c 128,-1,1
348 421 m 128,-1,12
 384 453 384 453 384 530.5 c 128,-1,13
 384 608 384 608 352 646.5 c 128,-1,14
 320 685 320 685 238 685 c 0,15,16
 102 685 102 685 102 572 c 1,17,-1
 42 572 l 1,18,19
 42 656 42 656 88.5 700 c 128,-1,20
 135 744 135 744 244.5 744 c 128,-1,21
 354 744 354 744 403 691 c 128,-1,22
 452 638 452 638 452 534.5 c 128,-1,23
 452 431 452 431 408.5 389 c 128,-1,24
 365 347 365 347 273 333 c 1,25,-1
 257 331 l 1,26,-1
 246 185 l 1,27,-1
 200 185 l 1,28,-1
 193 375 l 1,29,-1
 244 381 l 2,30,11
 312 389 312 389 348 421 c 128,-1,12
EndSplineSet
EndChar

StartChar: at
Encoding: 64 64 35
Width: 980
GlyphClass: 2
Flags: W
LayerCount: 2
Fore
SplineSet
584 159 m 1,0,1
 519 106 519 106 441.5 106 c 128,-1,2
 364 106 364 106 333.5 138 c 128,-1,3
 303 170 303 170 303 236 c 128,-1,4
 303 302 303 302 332.5 333.5 c 128,-1,5
 362 365 362 365 444 370 c 2,6,-1
 584 378 l 1,7,-1
 584 456 l 2,8,9
 584 497 584 497 560.5 514 c 128,-1,10
 537 531 537 531 481.5 531 c 128,-1,11
 426 531 426 531 405 509.5 c 128,-1,12
 384 488 384 488 381 440 c 1,13,-1
 323 442 l 1,14,15
 328 514 328 514 363 550 c 128,-1,16
 398 586 398 586 490 586 c 0,17,18
 648 586 648 586 648 458 c 2,19,-1
 648 -20 l 1,20,21
 752 4 752 4 788 98 c 0,22,23
 820 183 820 183 820 328 c 0,24,25
 820 405 820 405 812 458.5 c 128,-1,26
 804 512 804 512 783 558.5 c 128,-1,27
 762 605 762 605 725.5 632.5 c 128,-1,28
 689 660 689 660 630.5 675 c 128,-1,29
 572 690 572 690 490 690 c 128,-1,30
 408 690 408 690 349.5 675 c 128,-1,31
 291 660 291 660 254 632.5 c 128,-1,32
 217 605 217 605 196 558.5 c 128,-1,33
 175 512 175 512 167.5 458.5 c 128,-1,34
 160 405 160 405 160 328 c 128,-1,35
 160 251 160 251 167.5 197.5 c 128,-1,36
 175 144 175 144 196 97.5 c 128,-1,37
 217 51 217 51 254 24 c 0,38,39
 331 -34 331 -34 490 -34 c 1,40,-1
 490 -89 l 1,41,42
 371 -89 371 -89 292.5 -63.5 c 128,-1,43
 214 -38 214 -38 169.5 17 c 128,-1,44
 125 72 125 72 107.5 145.5 c 128,-1,45
 90 219 90 219 90 328 c 128,-1,46
 90 437 90 437 107.5 510.5 c 128,-1,47
 125 584 125 584 169.5 639 c 128,-1,48
 214 694 214 694 292.5 719.5 c 128,-1,49
 371 745 371 745 490 745 c 128,-1,50
 609 745 609 745 687.5 719.5 c 128,-1,51
 766 694 766 694 810.5 639 c 128,-1,52
 855 584 855 584 872.5 510.5 c 128,-1,53
 890 437 890 437 890 328 c 0,54,55
 890 131 890 131 823.5 31.5 c 128,-1,56
 757 -68 757 -68 584 -87 c 1,57,-1
 584 159 l 1,0,1
452 158 m 0,58,59
 523 158 523 158 584 214 c 1,60,-1
 584 332 l 1,61,-1
 452 324 l 2,62,63
 403 321 403 321 385.5 302.5 c 128,-1,64
 368 284 368 284 368 239.5 c 128,-1,65
 368 195 368 195 387 176.5 c 128,-1,66
 406 158 406 158 452 158 c 0,58,59
EndSplineSet
EndChar

StartChar: A
Encoding: 65 65 36
Width: 653
GlyphClass: 2
Flags: W
LayerCount: 2
Fore
SplineSet
648 50 m 1,0,-1
 648 0 l 1,1,-1
 470 0 l 1,2,-1
 470 50 l 1,3,-1
 529 50 l 1,4,-1
 468 236 l 1,5,-1
 184 236 l 1,6,-1
 123 50 l 1,7,-1
 183 50 l 1,8,-1
 183 0 l 1,9,-1
 5 0 l 1,10,-1
 5 50 l 1,11,-1
 51 50 l 1,12,-1
 278 730 l 1,13,-1
 375 730 l 1,14,-1
 601 50 l 1,15,-1
 648 50 l 1,0,-1
326 667 m 1,16,-1
 204 295 l 1,17,-1
 449 295 l 1,18,-1
 326 667 l 1,16,-1
EndSplineSet
EndChar

StartChar: B
Encoding: 66 66 37
Width: 629
GlyphClass: 2
Flags: W
LayerCount: 2
Fore
SplineSet
360 0 m 2,0,-1
 70 0 l 1,1,-1
 70 50 l 1,2,-1
 130 50 l 1,3,-1
 130 680 l 1,4,-1
 70 680 l 1,5,-1
 70 730 l 1,6,-1
 320 730 l 2,7,8
 475 730 475 730 518 650 c 0,9,10
 539 610 539 610 539 545.5 c 128,-1,11
 539 481 539 481 519 440 c 128,-1,12
 499 399 499 399 442 378 c 1,13,14
 523 363 523 363 551 316.5 c 128,-1,15
 579 270 579 270 579 195 c 0,16,17
 579 81 579 81 520 39 c 1,18,19
 467 0 467 0 360 0 c 2,0,-1
202 59 m 1,20,-1
 360 59 l 2,21,22
 448 59 448 59 477.5 94.5 c 128,-1,23
 507 130 507 130 507 200 c 128,-1,24
 507 270 507 270 477.5 306.5 c 128,-1,25
 448 343 448 343 360 343 c 2,26,-1
 202 343 l 1,27,-1
 202 59 l 1,20,-1
202 404 m 1,28,-1
 320 404 l 2,29,30
 408 404 408 404 437.5 438 c 128,-1,31
 467 472 467 472 467 538 c 128,-1,32
 467 604 467 604 437.5 637.5 c 128,-1,33
 408 671 408 671 320 671 c 2,34,-1
 202 671 l 1,35,-1
 202 404 l 1,28,-1
EndSplineSet
EndChar

StartChar: C
Encoding: 67 67 38
Width: 619
GlyphClass: 2
Flags: W
LayerCount: 2
Fore
SplineSet
508 730 m 1,0,-1
 562 730 l 1,1,-1
 562 514 l 1,2,-1
 508 514 l 1,3,4
 502 597 502 597 461.5 640.5 c 128,-1,5
 421 684 421 684 326 684 c 0,6,7
 228 684 228 684 182 630 c 0,8,9
 144 584 144 584 136 474 c 0,10,11
 132 431 132 431 132 363 c 128,-1,12
 132 295 132 295 134.5 255 c 128,-1,13
 137 215 137 215 148 169 c 128,-1,14
 159 123 159 123 180 100 c 0,15,16
 229 46 229 46 328 46 c 128,-1,17
 427 46 427 46 463.5 90 c 128,-1,18
 500 134 500 134 503 212 c 1,19,-1
 562 209 l 1,20,21
 558 155 558 155 547 117.5 c 128,-1,22
 536 80 536 80 512 48 c 0,23,24
 464 -14 464 -14 336 -14 c 0,25,26
 210 -14 210 -14 153 32 c 0,27,28
 123 57 123 57 104 86.5 c 128,-1,29
 85 116 85 116 76 163 c 0,30,31
 60 240 60 240 60 351.5 c 128,-1,32
 60 463 60 463 69.5 526 c 128,-1,33
 79 589 79 589 106.5 642 c 128,-1,34
 134 695 134 695 188 719.5 c 128,-1,35
 242 744 242 744 326 744 c 0,36,37
 457 744 457 744 508 656 c 1,38,-1
 508 730 l 1,0,-1
EndSplineSet
EndChar

StartChar: D
Encoding: 68 68 39
Width: 688
GlyphClass: 2
Flags: W
LayerCount: 2
Fore
SplineSet
70 730 m 1,0,-1
 345 730 l 2,1,2
 474 730 474 730 532 685 c 0,3,4
 563 661 563 661 582 632.5 c 128,-1,5
 601 604 601 604 611 560 c 0,6,7
 628 484 628 484 628 386.5 c 128,-1,8
 628 289 628 289 623 238.5 c 128,-1,9
 618 188 618 188 601.5 139 c 128,-1,10
 585 90 585 90 554 62 c 0,11,12
 487 0 487 0 345 0 c 2,13,-1
 70 0 l 1,14,-1
 70 50 l 1,15,-1
 130 50 l 1,16,-1
 130 680 l 1,17,-1
 70 680 l 1,18,-1
 70 730 l 1,0,-1
345 671 m 2,19,-1
 202 671 l 1,20,-1
 202 59 l 1,21,-1
 345 59 l 2,22,23
 414 59 414 59 457.5 79 c 128,-1,24
 501 99 501 99 522 143 c 128,-1,25
 543 187 543 187 549.5 236 c 128,-1,26
 556 285 556 285 556 365 c 128,-1,27
 556 445 556 445 549.5 494 c 128,-1,28
 543 543 543 543 522 587 c 128,-1,29
 501 631 501 631 457.5 651 c 128,-1,30
 414 671 414 671 345 671 c 2,19,-1
EndSplineSet
EndChar

StartChar: E
Encoding: 69 69 40
Width: 620
GlyphClass: 2
Flags: W
LayerCount: 2
Fore
SplineSet
70 0 m 1,0,-1
 70 50 l 1,1,-1
 130 50 l 1,2,-1
 130 680 l 1,3,-1
 70 680 l 1,4,-1
 70 730 l 1,5,-1
 540 730 l 1,6,-1
 540 572 l 1,7,-1
 484 572 l 1,8,-1
 484 671 l 1,9,-1
 202 671 l 1,10,-1
 202 401 l 1,11,-1
 490 401 l 1,12,-1
 490 341 l 1,13,-1
 202 341 l 1,14,-1
 202 59 l 1,15,-1
 504 59 l 1,16,-1
 504 158 l 1,17,-1
 560 158 l 1,18,-1
 560 0 l 1,19,-1
 70 0 l 1,0,-1
EndSplineSet
EndChar

StartChar: F
Encoding: 70 70 41
Width: 560
GlyphClass: 2
Flags: W
LayerCount: 2
Fore
SplineSet
70 680 m 1,0,-1
 70 730 l 1,1,-1
 520 730 l 1,2,-1
 520 572 l 1,3,-1
 464 572 l 1,4,-1
 464 671 l 1,5,-1
 202 671 l 1,6,-1
 202 401 l 1,7,-1
 470 401 l 1,8,-1
 470 341 l 1,9,-1
 202 341 l 1,10,-1
 202 51 l 1,11,-1
 282 51 l 1,12,-1
 282 0 l 1,13,-1
 70 0 l 1,14,-1
 70 51 l 1,15,-1
 130 51 l 1,16,-1
 130 680 l 1,17,-1
 70 680 l 1,0,-1
EndSplineSet
EndChar

StartChar: G
Encoding: 71 71 42
Width: 671
GlyphClass: 2
Flags: W
LayerCount: 2
Fore
SplineSet
394 315 m 1,0,-1
 394 365 l 1,1,-1
 572 365 l 1,2,-1
 572 0 l 1,3,-1
 531 0 l 1,4,-1
 520 84 l 1,5,6
 465 -14 465 -14 327 -14 c 0,7,8
 230 -14 230 -14 164 20 c 0,9,10
 115 45 115 45 86 116 c 0,11,12
 60 182 60 182 60 365 c 0,13,14
 60 443 60 443 65.5 496.5 c 128,-1,15
 71 550 71 550 88 600 c 128,-1,16
 105 650 105 650 135 680 c 0,17,18
 201 744 201 744 332 744 c 128,-1,19
 463 744 463 744 513 653 c 1,20,-1
 513 730 l 1,21,-1
 567 730 l 1,22,-1
 567 514 l 1,23,-1
 513 514 l 1,24,25
 507 593 507 593 468.5 638.5 c 128,-1,26
 430 684 430 684 337 684 c 0,27,28
 234 684 234 684 185 630 c 0,29,30
 144 584 144 584 136 474 c 0,31,32
 132 431 132 431 132 367.5 c 128,-1,33
 132 304 132 304 133.5 268.5 c 128,-1,34
 135 233 135 233 141 191.5 c 128,-1,35
 147 150 147 150 159.5 127 c 128,-1,36
 172 104 172 104 194 84 c 1,37,38
 233 46 233 46 327 46 c 0,39,40
 503 46 503 46 508 212 c 1,41,-1
 508 315 l 1,42,-1
 394 315 l 1,0,-1
EndSplineSet
EndChar

StartChar: H
Encoding: 72 72 43
Width: 752
GlyphClass: 2
Flags: W
LayerCount: 2
Fore
SplineSet
490 0 m 1,0,-1
 490 50 l 1,1,-1
 550 50 l 1,2,-1
 550 335 l 1,3,-1
 202 335 l 1,4,-1
 202 50 l 1,5,-1
 262 50 l 1,6,-1
 262 0 l 1,7,-1
 70 0 l 1,8,-1
 70 50 l 1,9,-1
 130 50 l 1,10,-1
 130 680 l 1,11,-1
 70 680 l 1,12,-1
 70 730 l 1,13,-1
 262 730 l 1,14,-1
 262 680 l 1,15,-1
 202 680 l 1,16,-1
 202 395 l 1,17,-1
 550 395 l 1,18,-1
 550 680 l 1,19,-1
 490 680 l 1,20,-1
 490 730 l 1,21,-1
 682 730 l 1,22,-1
 682 680 l 1,23,-1
 622 680 l 1,24,-1
 622 50 l 1,25,-1
 682 50 l 1,26,-1
 682 0 l 1,27,-1
 490 0 l 1,0,-1
EndSplineSet
EndChar

StartChar: I
Encoding: 73 73 44
Width: 352
GlyphClass: 2
Flags: W
LayerCount: 2
Fore
SplineSet
70 680 m 1,0,-1
 70 730 l 1,1,-1
 282 730 l 1,2,-1
 282 680 l 1,3,-1
 212 680 l 1,4,-1
 212 50 l 1,5,-1
 282 50 l 1,6,-1
 282 0 l 1,7,-1
 70 0 l 1,8,-1
 70 50 l 1,9,-1
 140 50 l 1,10,-1
 140 680 l 1,11,-1
 70 680 l 1,0,-1
EndSplineSet
EndChar

StartChar: J
Encoding: 74 74 45
Width: 471
GlyphClass: 2
Flags: W
LayerCount: 2
Fore
SplineSet
214 680 m 1,0,-1
 214 730 l 1,1,-1
 426 730 l 1,2,-1
 426 680 l 1,3,-1
 366 680 l 1,4,-1
 366 183 l 2,5,6
 366 61 366 61 321 23 c 0,7,8
 277 -14 277 -14 188 -14 c 0,9,10
 107 -14 107 -14 72 15 c 0,11,12
 54 30 54 30 43 45.5 c 128,-1,13
 32 61 32 61 27 87 c 0,14,15
 20 123 20 123 20 183 c 1,16,-1
 82 183 l 1,17,18
 82 106 82 106 104.5 76 c 128,-1,19
 127 46 127 46 190 46 c 128,-1,20
 253 46 253 46 273.5 75 c 128,-1,21
 294 104 294 104 294 183 c 2,22,-1
 294 680 l 1,23,-1
 214 680 l 1,0,-1
EndSplineSet
EndChar

StartChar: K
Encoding: 75 75 46
Width: 629
GlyphClass: 2
Flags: W
LayerCount: 2
Fore
SplineSet
427 0 m 1,0,-1
 427 50 l 1,1,-1
 478 50 l 1,2,-1
 285 340 l 1,3,-1
 202 340 l 1,4,-1
 202 50 l 1,5,-1
 262 50 l 1,6,-1
 262 0 l 1,7,-1
 70 0 l 1,8,-1
 70 50 l 1,9,-1
 130 50 l 1,10,-1
 130 680 l 1,11,-1
 70 680 l 1,12,-1
 70 730 l 1,13,-1
 262 730 l 1,14,-1
 262 680 l 1,15,-1
 202 680 l 1,16,-1
 202 399 l 1,17,-1
 289 399 l 1,18,-1
 470 680 l 1,19,-1
 417 680 l 1,20,-1
 417 730 l 1,21,-1
 599 730 l 1,22,-1
 599 680 l 1,23,-1
 545 680 l 1,24,-1
 342 368 l 1,25,-1
 556 50 l 1,26,-1
 609 50 l 1,27,-1
 609 0 l 1,28,-1
 427 0 l 1,0,-1
EndSplineSet
EndChar

StartChar: L
Encoding: 76 76 47
Width: 507
GlyphClass: 2
Flags: W
LayerCount: 2
Fore
SplineSet
70 680 m 1,0,-1
 70 730 l 1,1,-1
 282 730 l 1,2,-1
 282 680 l 1,3,-1
 202 680 l 1,4,-1
 202 59 l 1,5,-1
 441 59 l 1,6,-1
 441 158 l 1,7,-1
 497 158 l 1,8,-1
 497 0 l 1,9,-1
 70 0 l 1,10,-1
 70 50 l 1,11,-1
 130 50 l 1,12,-1
 130 680 l 1,13,-1
 70 680 l 1,0,-1
EndSplineSet
EndChar

StartChar: M
Encoding: 77 77 48
Width: 896
GlyphClass: 2
Flags: W
LayerCount: 2
Fore
SplineSet
634 0 m 1,0,-1
 634 50 l 1,1,-1
 694 50 l 1,2,-1
 694 617 l 1,3,-1
 476 56 l 1,4,-1
 404 56 l 1,5,-1
 202 609 l 1,6,-1
 202 50 l 1,7,-1
 262 50 l 1,8,-1
 262 0 l 1,9,-1
 70 0 l 1,10,-1
 70 50 l 1,11,-1
 130 50 l 1,12,-1
 130 680 l 1,13,-1
 70 680 l 1,14,-1
 70 730 l 1,15,-1
 229 730 l 1,16,-1
 441 142 l 1,17,-1
 667 730 l 1,18,-1
 826 730 l 1,19,-1
 826 680 l 1,20,-1
 766 680 l 1,21,-1
 766 50 l 1,22,-1
 826 50 l 1,23,-1
 826 0 l 1,24,-1
 634 0 l 1,0,-1
EndSplineSet
EndChar

StartChar: N
Encoding: 78 78 49
Width: 770
GlyphClass: 2
Flags: W
LayerCount: 2
Fore
SplineSet
518 680 m 1,0,-1
 518 730 l 1,1,-1
 710 730 l 1,2,-1
 710 680 l 1,3,-1
 650 680 l 1,4,-1
 650 0 l 1,5,-1
 570 0 l 1,6,-1
 202 610 l 1,7,-1
 202 50 l 1,8,-1
 262 50 l 1,9,-1
 262 0 l 1,10,-1
 70 0 l 1,11,-1
 70 50 l 1,12,-1
 130 50 l 1,13,-1
 130 680 l 1,14,-1
 70 680 l 1,15,-1
 70 730 l 1,16,-1
 210 730 l 1,17,-1
 578 119 l 1,18,-1
 578 680 l 1,19,-1
 518 680 l 1,0,-1
EndSplineSet
EndChar

StartChar: O
Encoding: 79 79 50
Width: 675
GlyphClass: 2
Flags: W
LayerCount: 2
Fore
SplineSet
337 -14 m 128,-1,1
 263 -14 263 -14 212 3.5 c 128,-1,2
 161 21 161 21 131.5 50 c 128,-1,3
 102 79 102 79 85.5 130.5 c 128,-1,4
 69 182 69 182 64.5 233.5 c 128,-1,5
 60 285 60 285 60 364.5 c 128,-1,6
 60 444 60 444 64.5 495.5 c 128,-1,7
 69 547 69 547 85.5 598.5 c 128,-1,8
 102 650 102 650 131.5 679 c 128,-1,9
 161 708 161 708 212 726 c 128,-1,10
 263 744 263 744 337 744 c 128,-1,11
 411 744 411 744 462 726 c 128,-1,12
 513 708 513 708 543 679 c 128,-1,13
 573 650 573 650 589 599 c 128,-1,14
 605 548 605 548 610 496 c 128,-1,15
 615 444 615 444 615 365 c 128,-1,16
 615 286 615 286 610 233.5 c 128,-1,17
 605 181 605 181 589 130 c 128,-1,18
 573 79 573 79 543 50 c 128,-1,19
 513 21 513 21 462 3.5 c 128,-1,0
 411 -14 411 -14 337 -14 c 128,-1,1
337 46 m 128,-1,21
 391 46 391 46 429 61 c 128,-1,22
 467 76 467 76 489.5 100.5 c 128,-1,23
 512 125 512 125 524 168.5 c 128,-1,24
 536 212 536 212 539.5 255.5 c 128,-1,25
 543 299 543 299 543 365 c 128,-1,26
 543 431 543 431 539.5 474.5 c 128,-1,27
 536 518 536 518 524 561.5 c 128,-1,28
 512 605 512 605 489.5 629.5 c 128,-1,29
 467 654 467 654 429 669 c 128,-1,30
 391 684 391 684 337 684 c 128,-1,31
 283 684 283 684 245 669 c 128,-1,32
 207 654 207 654 185 629.5 c 128,-1,33
 163 605 163 605 151 561.5 c 128,-1,34
 139 518 139 518 135.5 474.5 c 128,-1,35
 132 431 132 431 132 365 c 128,-1,36
 132 299 132 299 135.5 255.5 c 128,-1,37
 139 212 139 212 151 168.5 c 128,-1,38
 163 125 163 125 185 100.5 c 128,-1,39
 207 76 207 76 245 61 c 128,-1,20
 283 46 283 46 337 46 c 128,-1,21
EndSplineSet
EndChar

StartChar: P
Encoding: 80 80 51
Width: 599
GlyphClass: 2
Flags: W
LayerCount: 2
Fore
SplineSet
330 275 m 2,0,-1
 202 275 l 1,1,-1
 202 50 l 1,2,-1
 282 50 l 1,3,-1
 282 0 l 1,4,-1
 70 0 l 1,5,-1
 70 50 l 1,6,-1
 130 50 l 1,7,-1
 130 680 l 1,8,-1
 70 680 l 1,9,-1
 70 730 l 1,10,-1
 330 730 l 2,11,12
 471 730 471 730 514 659 c 0,13,14
 535 624 535 624 542 589 c 128,-1,15
 549 554 549 554 549 508 c 128,-1,16
 549 462 549 462 545.5 433 c 128,-1,17
 542 404 542 404 529 372 c 128,-1,18
 516 340 516 340 493 320 c 0,19,20
 439 275 439 275 330 275 c 2,0,-1
202 334 m 1,21,-1
 330 334 l 2,22,23
 425 334 425 334 454 384 c 0,24,25
 468 409 468 409 472.5 435 c 128,-1,26
 477 461 477 461 477 502 c 128,-1,27
 477 543 477 543 472.5 569.5 c 128,-1,28
 468 596 468 596 454 622 c 1,29,30
 425 671 425 671 330 671 c 2,31,-1
 202 671 l 1,32,-1
 202 334 l 1,21,-1
EndSplineSet
EndChar

StartChar: Q
Encoding: 81 81 52
Width: 675
GlyphClass: 2
Flags: W
LayerCount: 2
Fore
SplineSet
64 238 m 0,0,1
 60 288 60 288 60 366 c 128,-1,2
 60 444 60 444 64.5 495.5 c 128,-1,3
 69 547 69 547 85.5 598.5 c 128,-1,4
 102 650 102 650 131.5 679 c 128,-1,5
 161 708 161 708 212 726 c 128,-1,6
 263 744 263 744 337 744 c 128,-1,7
 411 744 411 744 462 726 c 128,-1,8
 513 708 513 708 543 679 c 128,-1,9
 573 650 573 650 589 599 c 128,-1,10
 605 548 605 548 610 496 c 128,-1,11
 615 444 615 444 615 367.5 c 128,-1,12
 615 291 615 291 611 241.5 c 128,-1,13
 607 192 607 192 593 143 c 128,-1,14
 579 94 579 94 554 64 c 0,15,16
 500 -2 500 -2 386 -12 c 1,17,-1
 477 -192 l 1,18,-1
 402 -192 l 1,19,-1
 312 -13 l 1,20,21
 185 -7 185 -7 125 57 c 0,22,23
 76 110 76 110 64 238 c 0,0,1
337 46 m 128,-1,25
 391 46 391 46 429 61 c 128,-1,26
 467 76 467 76 489.5 100.5 c 128,-1,27
 512 125 512 125 524 168.5 c 128,-1,28
 536 212 536 212 539.5 255.5 c 128,-1,29
 543 299 543 299 543 365 c 128,-1,30
 543 431 543 431 539.5 474.5 c 128,-1,31
 536 518 536 518 524 561.5 c 128,-1,32
 512 605 512 605 489.5 629.5 c 128,-1,33
 467 654 467 654 429 669 c 128,-1,34
 391 684 391 684 337 684 c 128,-1,35
 283 684 283 684 245 669 c 128,-1,36
 207 654 207 654 185 629.5 c 128,-1,37
 163 605 163 605 151 561.5 c 128,-1,38
 139 518 139 518 135.5 474.5 c 128,-1,39
 132 431 132 431 132 365 c 128,-1,40
 132 299 132 299 135.5 255.5 c 128,-1,41
 139 212 139 212 151 168.5 c 128,-1,42
 163 125 163 125 185 100.5 c 128,-1,43
 207 76 207 76 245 61 c 128,-1,24
 283 46 283 46 337 46 c 128,-1,25
EndSplineSet
EndChar

StartChar: R
Encoding: 82 82 53
Width: 659
GlyphClass: 2
Flags: W
LayerCount: 2
Fore
SplineSet
281 305 m 2,0,-1
 202 305 l 1,1,-1
 202 50 l 1,2,-1
 262 50 l 1,3,-1
 262 0 l 1,4,-1
 70 0 l 1,5,-1
 70 50 l 1,6,-1
 130 50 l 1,7,-1
 130 680 l 1,8,-1
 70 680 l 1,9,-1
 70 730 l 1,10,-1
 340 730 l 2,11,12
 500 730 500 730 539 639 c 0,13,14
 552 609 552 609 555.5 582 c 128,-1,15
 559 555 559 555 559 517 c 128,-1,16
 559 479 559 479 555 451 c 128,-1,17
 551 423 551 423 538 394 c 0,18,19
 513 335 513 335 432 315 c 1,20,21
 460 295 460 295 481 249 c 1,22,-1
 567 50 l 1,23,-1
 629 50 l 1,24,-1
 629 0 l 1,25,-1
 512 0 l 1,26,-1
 411 237 l 2,27,28
 393 278 393 278 364 291.5 c 128,-1,29
 335 305 335 305 281 305 c 2,0,-1
202 364 m 1,30,-1
 340 364 l 2,31,32
 436 364 436 364 464 410 c 0,33,34
 478 433 478 433 482.5 457 c 128,-1,35
 487 481 487 481 487 517.5 c 128,-1,36
 487 554 487 554 482.5 578 c 128,-1,37
 478 602 478 602 464 625 c 0,38,39
 436 671 436 671 340 671 c 2,40,-1
 202 671 l 1,41,-1
 202 364 l 1,30,-1
EndSplineSet
EndChar

StartChar: S
Encoding: 83 83 54
Width: 576
GlyphClass: 2
Flags: W
LayerCount: 2
Fore
SplineSet
101 0 m 1,0,-1
 47 0 l 1,1,-1
 47 216 l 1,2,-1
 101 216 l 1,3,4
 103 141 103 141 150 93.5 c 128,-1,5
 197 46 197 46 290.5 46 c 128,-1,6
 384 46 384 46 421.5 80 c 128,-1,7
 459 114 459 114 459 182.5 c 128,-1,8
 459 251 459 251 432 279 c 128,-1,9
 405 307 405 307 333 321 c 2,10,-1
 243 338 l 2,11,12
 135 359 135 359 94.5 399 c 128,-1,13
 54 439 54 439 54 537.5 c 128,-1,14
 54 636 54 636 102 690 c 128,-1,15
 150 744 150 744 268 744 c 0,16,17
 405 744 405 744 459 652 c 1,18,-1
 459 730 l 1,19,-1
 513 730 l 1,20,-1
 513 552 l 1,21,-1
 459 552 l 1,22,23
 439 684 439 684 283 684 c 0,24,25
 192 684 192 684 159 647 c 128,-1,26
 126 610 126 610 126 541 c 128,-1,27
 126 472 126 472 149 446 c 128,-1,28
 172 420 172 420 246 406 c 2,29,-1
 335 389 l 2,30,31
 445 368 445 368 488 326.5 c 128,-1,32
 531 285 531 285 531 187.5 c 128,-1,33
 531 90 531 90 479.5 38 c 128,-1,34
 428 -14 428 -14 295 -14 c 128,-1,35
 162 -14 162 -14 101 86 c 1,36,-1
 101 0 l 1,0,-1
EndSplineSet
EndChar

StartChar: T
Encoding: 84 84 55
Width: 538
GlyphClass: 2
Flags: W
LayerCount: 2
Fore
SplineSet
528 572 m 1,0,-1
 472 572 l 1,1,-1
 472 671 l 1,2,-1
 305 671 l 1,3,-1
 305 50 l 1,4,-1
 385 50 l 1,5,-1
 385 0 l 1,6,-1
 153 0 l 1,7,-1
 153 50 l 1,8,-1
 233 50 l 1,9,-1
 233 671 l 1,10,-1
 66 671 l 1,11,-1
 66 572 l 1,12,-1
 10 572 l 1,13,-1
 10 730 l 1,14,-1
 528 730 l 1,15,-1
 528 572 l 1,0,-1
EndSplineSet
EndChar

StartChar: U
Encoding: 85 85 56
Width: 750
GlyphClass: 2
Flags: W
LayerCount: 2
Fore
SplineSet
55 680 m 1,0,-1
 55 730 l 1,1,-1
 247 730 l 1,2,-1
 247 680 l 1,3,-1
 187 680 l 1,4,-1
 187 241 l 2,5,6
 187 116 187 116 246 78 c 0,7,8
 274 60 274 60 303.5 53.5 c 128,-1,9
 333 47 333 47 374.5 47 c 128,-1,10
 416 47 416 47 445.5 53.5 c 128,-1,11
 475 60 475 60 504 78 c 0,12,13
 563 116 563 116 563 241 c 2,14,-1
 563 680 l 1,15,-1
 503 680 l 1,16,-1
 503 730 l 1,17,-1
 695 730 l 1,18,-1
 695 680 l 1,19,-1
 635 680 l 1,20,-1
 635 241 l 2,21,22
 635 113 635 113 582 52 c 1,23,24
 560 25 560 25 523.5 9.5 c 128,-1,25
 487 -6 487 -6 453.5 -10 c 128,-1,26
 420 -14 420 -14 374 -14 c 128,-1,27
 328 -14 328 -14 295 -10 c 128,-1,28
 262 -6 262 -6 226 9.5 c 128,-1,29
 190 25 190 25 168 52 c 1,30,31
 115 113 115 113 115 241 c 2,32,-1
 115 680 l 1,33,-1
 55 680 l 1,0,-1
EndSplineSet
EndChar

StartChar: V
Encoding: 86 86 57
Width: 627
GlyphClass: 2
Flags: W
LayerCount: 2
Fore
SplineSet
10 674 m 1,0,-1
 10 730 l 1,1,-1
 192 730 l 1,2,-1
 192 674 l 1,3,-1
 129 674 l 1,4,-1
 313 61 l 1,5,-1
 498 674 l 1,6,-1
 435 674 l 1,7,-1
 435 730 l 1,8,-1
 617 730 l 1,9,-1
 617 674 l 1,10,-1
 569 674 l 1,11,-1
 362 0 l 1,12,-1
 265 0 l 1,13,-1
 57 674 l 1,14,-1
 10 674 l 1,0,-1
EndSplineSet
EndChar

StartChar: W
Encoding: 87 87 58
Width: 889
GlyphClass: 2
Flags: W
LayerCount: 2
Fore
SplineSet
15 674 m 1,0,-1
 15 730 l 1,1,-1
 197 730 l 1,2,-1
 197 674 l 1,3,-1
 129 674 l 1,4,-1
 263 59 l 1,5,-1
 409 730 l 1,6,-1
 480 730 l 1,7,-1
 626 59 l 1,8,-1
 760 674 l 1,9,-1
 692 674 l 1,10,-1
 692 730 l 1,11,-1
 874 730 l 1,12,-1
 874 674 l 1,13,-1
 831 674 l 1,14,-1
 679 0 l 1,15,-1
 574 0 l 1,16,-1
 444 591 l 1,17,-1
 315 0 l 1,18,-1
 210 0 l 1,19,-1
 57 674 l 1,20,-1
 15 674 l 1,0,-1
EndSplineSet
EndChar

StartChar: X
Encoding: 88 88 59
Width: 661
GlyphClass: 2
Flags: W
LayerCount: 2
Fore
SplineSet
432 674 m 1,0,-1
 432 730 l 1,1,-1
 614 730 l 1,2,-1
 614 674 l 1,3,-1
 559 674 l 1,4,-1
 373 376 l 1,5,-1
 577 56 l 1,6,-1
 631 56 l 1,7,-1
 631 0 l 1,8,-1
 449 0 l 1,9,-1
 449 56 l 1,10,-1
 494 56 l 1,11,-1
 325 321 l 1,12,-1
 164 56 l 1,13,-1
 212 56 l 1,14,-1
 212 0 l 1,15,-1
 30 0 l 1,16,-1
 30 56 l 1,17,-1
 84 56 l 1,18,-1
 287 381 l 1,19,-1
 101 674 l 1,20,-1
 47 674 l 1,21,-1
 47 730 l 1,22,-1
 229 730 l 1,23,-1
 229 674 l 1,24,-1
 184 674 l 1,25,-1
 335 436 l 1,26,-1
 479 674 l 1,27,-1
 432 674 l 1,0,-1
EndSplineSet
EndChar

StartChar: Y
Encoding: 89 89 60
Width: 562
GlyphClass: 2
Flags: W
LayerCount: 2
Fore
SplineSet
317 56 m 1,0,-1
 387 56 l 1,1,-1
 387 0 l 1,2,-1
 175 0 l 1,3,-1
 175 56 l 1,4,-1
 245 56 l 1,5,-1
 245 255 l 1,6,-1
 55 674 l 1,7,-1
 10 674 l 1,8,-1
 10 730 l 1,9,-1
 192 730 l 1,10,-1
 192 674 l 1,11,-1
 130 674 l 1,12,-1
 281 332 l 1,13,-1
 431 674 l 1,14,-1
 370 674 l 1,15,-1
 370 730 l 1,16,-1
 552 730 l 1,17,-1
 552 674 l 1,18,-1
 506 674 l 1,19,-1
 317 255 l 1,20,-1
 317 56 l 1,0,-1
EndSplineSet
EndChar

StartChar: Z
Encoding: 90 90 61
Width: 545
GlyphClass: 2
Flags: W
LayerCount: 2
Fore
SplineSet
106 572 m 1,0,-1
 50 572 l 1,1,-1
 50 730 l 1,2,-1
 505 730 l 1,3,-1
 505 684 l 1,4,-1
 122 64 l 1,5,-1
 459 64 l 1,6,-1
 459 158 l 1,7,-1
 515 158 l 1,8,-1
 515 0 l 1,9,-1
 30 0 l 1,10,-1
 30 46 l 1,11,-1
 413 666 l 1,12,-1
 106 666 l 1,13,-1
 106 572 l 1,0,-1
EndSplineSet
EndChar

StartChar: bracketleft
Encoding: 91 91 62
Width: 284
GlyphClass: 2
Flags: W
LayerCount: 2
Fore
SplineSet
80 -66 m 1,0,-1
 80 735 l 1,1,-1
 279 735 l 1,2,-1
 279 673 l 1,3,-1
 153 673 l 1,4,-1
 153 -4 l 1,5,-1
 279 -4 l 1,6,-1
 279 -66 l 1,7,-1
 80 -66 l 1,0,-1
EndSplineSet
EndChar

StartChar: backslash
Encoding: 92 92 63
Width: 308
GlyphClass: 2
Flags: W
LayerCount: 2
Fore
SplineSet
71 775 m 1,0,-1
 308 -106 l 1,1,-1
 237 -106 l 1,2,-1
 0 775 l 1,3,-1
 71 775 l 1,0,-1
EndSplineSet
EndChar

StartChar: bracketright
Encoding: 93 93 64
Width: 284
GlyphClass: 2
Flags: W
LayerCount: 2
Fore
SplineSet
204 735 m 1,0,-1
 204 -66 l 1,1,-1
 5 -66 l 1,2,-1
 5 -4 l 1,3,-1
 131 -4 l 1,4,-1
 131 673 l 1,5,-1
 5 673 l 1,6,-1
 5 735 l 1,7,-1
 204 735 l 1,0,-1
EndSplineSet
EndChar

StartChar: asciicircum
Encoding: 94 94 65
Width: 580
GlyphClass: 2
Flags: W
LayerCount: 2
Fore
SplineSet
252 618 m 1,0,-1
 328 618 l 1,1,-1
 476 316 l 1,2,-1
 410 316 l 1,3,-1
 290 567 l 1,4,-1
 170 316 l 1,5,-1
 104 316 l 1,6,-1
 252 618 l 1,0,-1
EndSplineSet
EndChar

StartChar: underscore
Encoding: 95 95 66
Width: 580
GlyphClass: 2
Flags: W
LayerCount: 2
Fore
SplineSet
70 -60 m 1,0,-1
 70 0 l 1,1,-1
 510 0 l 1,2,-1
 510 -60 l 1,3,-1
 70 -60 l 1,0,-1
EndSplineSet
EndChar

StartChar: grave
Encoding: 96 96 67
Width: 314
GlyphClass: 2
Flags: W
LayerCount: 2
Fore
SplineSet
264 666 m 1,0,-1
 222 624 l 1,1,-1
 50 774 l 1,2,-1
 103 827 l 1,3,-1
 264 666 l 1,0,-1
EndSplineSet
EndChar

StartChar: a
Encoding: 97 97 68
Width: 612
GlyphClass: 2
Flags: W
LayerCount: 2
Fore
SplineSet
427 65 m 1,0,1
 339 -14 339 -14 239 -14 c 128,-1,2
 139 -14 139 -14 101.5 26 c 128,-1,3
 64 66 64 66 64 148.5 c 128,-1,4
 64 231 64 231 100 269 c 128,-1,5
 136 307 136 307 237 314 c 2,6,-1
 422 326 l 1,7,-1
 422 426 l 2,8,9
 422 527 422 527 294 527 c 0,10,11
 209 527 209 527 180.5 498 c 128,-1,12
 152 469 152 469 148 407 c 1,13,-1
 89 410 l 1,14,15
 92 453 92 453 101.5 482 c 128,-1,16
 111 511 111 511 132 536 c 0,17,18
 174 586 174 586 294 586 c 0,19,20
 492 586 492 586 492 426 c 2,21,-1
 492 50 l 1,22,-1
 552 50 l 1,23,-1
 552 0 l 1,24,-1
 445 0 l 1,25,-1
 427 65 l 1,0,1
243 43 m 0,26,27
 340 43 340 43 422 121 c 1,28,-1
 422 272 l 1,29,-1
 241 261 l 2,30,31
 177 257 177 257 154.5 233.5 c 128,-1,32
 132 210 132 210 132 151 c 128,-1,33
 132 92 132 92 157 67.5 c 128,-1,34
 182 43 182 43 243 43 c 0,26,27
EndSplineSet
EndChar

StartChar: b
Encoding: 98 98 69
Width: 636
GlyphClass: 2
Flags: W
LayerCount: 2
Fore
SplineSet
40 700 m 1,0,-1
 40 750 l 1,1,-1
 170 750 l 1,2,-1
 170 532 l 1,3,4
 261 586 261 586 346 586 c 0,5,6
 497 586 497 586 536 458 c 0,7,8
 556 389 556 389 556 311 c 128,-1,9
 556 233 556 233 552.5 194.5 c 128,-1,10
 549 156 549 156 536 114 c 128,-1,11
 523 72 523 72 501 46 c 0,12,13
 450 -14 450 -14 350.5 -14 c 128,-1,14
 251 -14 251 -14 161 51 c 1,15,-1
 147 0 l 1,16,-1
 100 0 l 1,17,-1
 100 700 l 1,18,-1
 40 700 l 1,0,-1
170 475 m 1,19,-1
 170 102 l 1,20,21
 245 45 245 45 326 45 c 0,22,23
 409 45 409 45 446 91 c 0,24,25
 477 128 477 128 484 210 c 0,26,27
 486 240 486 240 486 280 c 128,-1,28
 486 320 486 320 484 345.5 c 128,-1,29
 482 371 482 371 477 400.5 c 128,-1,30
 472 430 472 430 461.5 451.5 c 128,-1,31
 451 473 451 473 435 491 c 0,32,33
 403 527 403 527 327 527 c 128,-1,34
 251 527 251 527 170 475 c 1,19,-1
EndSplineSet
EndChar

StartChar: c
Encoding: 99 99 70
Width: 567
GlyphClass: 2
Flags: W
LayerCount: 2
Fore
SplineSet
498 572 m 1,0,-1
 498 370 l 1,1,-1
 452 370 l 1,2,3
 443 449 443 449 405 488 c 128,-1,4
 367 527 367 527 289 527 c 0,5,6
 246 527 246 527 215.5 512 c 128,-1,7
 185 497 185 497 169 475.5 c 128,-1,8
 153 454 153 454 144 419 c 0,9,10
 130 369 130 369 130 310 c 128,-1,11
 130 251 130 251 131.5 227 c 128,-1,12
 133 203 133 203 138 172 c 128,-1,13
 143 141 143 141 154 121 c 128,-1,14
 165 101 165 101 182 82 c 0,15,16
 217 45 217 45 299.5 45 c 128,-1,17
 382 45 382 45 412.5 74 c 128,-1,18
 443 103 443 103 447 165 c 1,19,-1
 504 162 l 1,20,21
 501 119 501 119 491.5 90 c 128,-1,22
 482 61 482 61 460 35.5 c 128,-1,23
 438 10 438 10 397 -2 c 128,-1,24
 356 -14 356 -14 295 -14 c 128,-1,25
 234 -14 234 -14 189.5 3 c 128,-1,26
 145 20 145 20 120.5 46 c 128,-1,27
 96 72 96 72 82 114 c 128,-1,28
 68 156 68 156 64 194.5 c 128,-1,29
 60 233 60 233 60 286 c 128,-1,30
 60 339 60 339 64.5 379 c 128,-1,31
 69 419 69 419 83.5 460 c 128,-1,32
 98 501 98 501 122 527 c 0,33,34
 178 586 178 586 288 586 c 128,-1,35
 398 586 398 586 448 510 c 1,36,-1
 447 572 l 1,37,-1
 498 572 l 1,0,-1
EndSplineSet
EndChar

StartChar: d
Encoding: 100 100 71
Width: 636
GlyphClass: 2
Flags: W
LayerCount: 2
Fore
SplineSet
275 -14 m 0,0,1
 219 -14 219 -14 178.5 3 c 128,-1,2
 138 20 138 20 115.5 46 c 128,-1,3
 93 72 93 72 80 114 c 128,-1,4
 67 156 67 156 63.5 194.5 c 128,-1,5
 60 233 60 233 60 286 c 128,-1,6
 60 339 60 339 63.5 377.5 c 128,-1,7
 67 416 67 416 80.5 458 c 128,-1,8
 94 500 94 500 117 526 c 128,-1,9
 140 552 140 552 181.5 569 c 128,-1,10
 223 586 223 586 291.5 586 c 128,-1,11
 360 586 360 586 446 550 c 1,12,-1
 446 700 l 1,13,-1
 386 700 l 1,14,-1
 386 750 l 1,15,-1
 516 750 l 1,16,-1
 516 50 l 1,17,-1
 576 50 l 1,18,-1
 576 0 l 1,19,-1
 469 0 l 1,20,-1
 456 60 l 1,21,22
 372 -14 372 -14 275 -14 c 0,0,1
162 106 m 128,-1,24
 194 45 194 45 283.5 45 c 128,-1,25
 373 45 373 45 446 112 c 1,26,-1
 446 493 l 1,27,28
 373 527 373 527 290 527 c 0,29,30
 193 527 193 527 160 458 c 0,31,32
 130 396 130 396 130 281.5 c 128,-1,23
 130 167 130 167 162 106 c 128,-1,24
EndSplineSet
EndChar

StartChar: e
Encoding: 101 101 72
Width: 588
GlyphClass: 2
Flags: W
LayerCount: 2
Fore
SplineSet
109.5 57.5 m 128,-1,1
 60 129 60 129 60 286 c 0,2,3
 60 339 60 339 64 377.5 c 128,-1,4
 68 416 68 416 82 458 c 128,-1,5
 96 500 96 500 121 526 c 128,-1,6
 146 552 146 552 190 569 c 128,-1,7
 234 586 234 586 295 586 c 128,-1,8
 356 586 356 586 399.5 569 c 128,-1,9
 443 552 443 552 467.5 526 c 128,-1,10
 492 500 492 500 506 458 c 128,-1,11
 520 416 520 416 524 377.5 c 128,-1,12
 528 339 528 339 528 286 c 2,13,-1
 528 270 l 1,14,-1
 130 270 l 1,15,16
 131 148 131 148 164.5 96.5 c 128,-1,17
 198 45 198 45 292.5 45 c 128,-1,18
 387 45 387 45 421 79.5 c 128,-1,19
 455 114 455 114 461 180 c 1,20,-1
 519 177 l 1,21,22
 515 134 515 134 505 103.5 c 128,-1,23
 495 73 495 73 472 44 c 0,24,25
 426 -14 426 -14 292.5 -14 c 128,-1,0
 159 -14 159 -14 109.5 57.5 c 128,-1,1
294 527 m 0,26,27
 244 527 244 527 210.5 511 c 128,-1,28
 177 495 177 495 160 464 c 0,29,30
 132 412 132 412 130 325 c 1,31,-1
 457 325 l 1,32,33
 455 415 455 415 428 466 c 0,34,35
 396 527 396 527 294 527 c 0,26,27
EndSplineSet
EndChar

StartChar: f
Encoding: 102 102 73
Width: 343
GlyphClass: 2
Flags: W
LayerCount: 2
Fore
SplineSet
198 611 m 2,0,-1
 198 572 l 1,1,-1
 318 572 l 1,2,-1
 318 522 l 1,3,-1
 198 522 l 1,4,-1
 198 50 l 1,5,-1
 278 50 l 1,6,-1
 278 0 l 1,7,-1
 68 0 l 1,8,-1
 68 50 l 1,9,-1
 128 50 l 1,10,-1
 128 522 l 1,11,-1
 60 522 l 1,12,-1
 60 572 l 1,13,-1
 128 572 l 1,14,-1
 128 606 l 2,15,16
 128 684 128 684 155 719.5 c 128,-1,17
 182 755 182 755 267 755 c 2,18,-1
 328 755 l 1,19,-1
 328 705 l 1,20,-1
 267 700 l 2,21,22
 225 696 225 696 211.5 677 c 128,-1,23
 198 658 198 658 198 611 c 2,0,-1
EndSplineSet
EndChar

StartChar: g
Encoding: 103 103 74
Width: 580
GlyphClass: 2
Flags: W
LayerCount: 2
Fore
SplineSet
288 184 m 0,0,1
 229 184 229 184 184 200 c 1,2,-1
 136 154 l 2,3,4
 110 129 110 129 110 96 c 0,5,6
 110 53 110 53 163 53 c 2,7,-1
 392 53 l 2,8,9
 463 53 463 53 501.5 19 c 128,-1,10
 540 -15 540 -15 540 -80 c 0,11,12
 540 -125 540 -125 524.5 -156.5 c 128,-1,13
 509 -188 509 -188 488 -204 c 128,-1,14
 467 -220 467 -220 428.5 -229 c 128,-1,15
 390 -238 390 -238 361 -239.5 c 128,-1,16
 332 -241 332 -241 279 -241 c 128,-1,17
 226 -241 226 -241 189 -236.5 c 128,-1,18
 152 -232 152 -232 118 -218 c 0,19,20
 50 -192 50 -192 50 -104 c 0,21,22
 50 -39 50 -39 108 8 c 1,23,24
 53 31 53 31 53 91 c 0,25,26
 53 140 53 140 97 184 c 1,27,-1
 140 225 l 1,28,29
 88 269 88 269 88 385 c 0,30,31
 88 503 88 503 141 546 c 1,32,33
 192 586 192 586 282.5 586 c 128,-1,34
 373 586 373 586 423 561 c 1,35,-1
 494 632 l 1,36,-1
 536 590 l 1,37,-1
 469 523 l 1,38,39
 501 479 501 479 501 385 c 0,40,41
 501 268 501 268 448 224 c 1,42,43
 398 184 398 184 288 184 c 0,0,1
182.5 273 m 128,-1,45
 209 237 209 237 294.5 237 c 128,-1,46
 380 237 380 237 406.5 273 c 128,-1,47
 433 309 433 309 433 385 c 128,-1,48
 433 461 433 461 406.5 497 c 128,-1,49
 380 533 380 533 294.5 533 c 128,-1,50
 209 533 209 533 182.5 497 c 128,-1,51
 156 461 156 461 156 385 c 128,-1,44
 156 309 156 309 182.5 273 c 128,-1,45
432.5 -169.5 m 128,-1,53
 475 -151 475 -151 475 -81 c 0,54,55
 475 0 475 0 372 0 c 2,56,-1
 157 0 l 1,57,58
 111 -38 111 -38 111 -100 c 0,59,60
 111 -158 111 -158 162 -174 c 0,61,62
 205 -188 205 -188 297.5 -188 c 128,-1,52
 390 -188 390 -188 432.5 -169.5 c 128,-1,53
EndSplineSet
EndChar

StartChar: h
Encoding: 104 104 75
Width: 681
GlyphClass: 2
Flags: W
LayerCount: 2
Fore
SplineSet
60 700 m 1,0,-1
 60 750 l 1,1,-1
 190 750 l 1,2,-1
 190 513 l 1,3,4
 290 586 290 586 387 586 c 128,-1,5
 484 586 484 586 522.5 542.5 c 128,-1,6
 561 499 561 499 561 407 c 2,7,-1
 561 50 l 1,8,-1
 621 50 l 1,9,-1
 621 0 l 1,10,-1
 431 0 l 1,11,-1
 431 50 l 1,12,-1
 491 50 l 1,13,-1
 491 408 l 2,14,15
 491 471 491 471 466.5 499 c 128,-1,16
 442 527 442 527 385 527 c 0,17,18
 283 527 283 527 190 453 c 1,19,-1
 190 50 l 1,20,-1
 250 50 l 1,21,-1
 250 0 l 1,22,-1
 60 0 l 1,23,-1
 60 50 l 1,24,-1
 120 50 l 1,25,-1
 120 700 l 1,26,-1
 60 700 l 1,0,-1
EndSplineSet
EndChar

StartChar: i
Encoding: 105 105 76
Width: 320
GlyphClass: 2
Flags: W
LayerCount: 2
Fore
SplineSet
70 522 m 1,0,-1
 70 572 l 1,1,-1
 200 572 l 1,2,-1
 200 50 l 1,3,-1
 260 50 l 1,4,-1
 260 0 l 1,5,-1
 70 0 l 1,6,-1
 70 50 l 1,7,-1
 130 50 l 1,8,-1
 130 522 l 1,9,-1
 70 522 l 1,0,-1
195.5 681 m 128,-1,11
 185 672 185 672 165.5 672 c 128,-1,12
 146 672 146 672 136 681 c 128,-1,13
 126 690 126 690 124 699.5 c 128,-1,14
 122 709 122 709 122 725.5 c 128,-1,15
 122 742 122 742 124 751.5 c 128,-1,16
 126 761 126 761 136 770 c 128,-1,17
 146 779 146 779 170 779 c 128,-1,18
 194 779 194 779 202 765 c 128,-1,19
 210 751 210 751 210 730 c 128,-1,20
 210 709 210 709 208 699.5 c 128,-1,10
 206 690 206 690 195.5 681 c 128,-1,11
EndSplineSet
EndChar

StartChar: j
Encoding: 106 106 77
Width: 310
GlyphClass: 2
Flags: W
LayerCount: 2
Fore
SplineSet
60 522 m 1,0,-1
 60 572 l 1,1,-1
 190 572 l 1,2,-1
 190 -78 l 2,3,4
 190 -156 190 -156 163 -191.5 c 128,-1,5
 136 -227 136 -227 51 -227 c 2,6,-1
 -10 -227 l 1,7,-1
 -10 -172 l 1,8,-1
 51 -167 l 2,9,10
 93 -163 93 -163 106.5 -144 c 128,-1,11
 120 -125 120 -125 120 -78 c 2,12,-1
 120 522 l 1,13,-1
 60 522 l 1,0,-1
195.5 681 m 128,-1,15
 185 672 185 672 165.5 672 c 128,-1,16
 146 672 146 672 136 681 c 128,-1,17
 126 690 126 690 124 699.5 c 128,-1,18
 122 709 122 709 122 725.5 c 128,-1,19
 122 742 122 742 124 751.5 c 128,-1,20
 126 761 126 761 136 770 c 128,-1,21
 146 779 146 779 170 779 c 128,-1,22
 194 779 194 779 202 765 c 128,-1,23
 210 751 210 751 210 730 c 128,-1,24
 210 709 210 709 208 699.5 c 128,-1,14
 206 690 206 690 195.5 681 c 128,-1,15
EndSplineSet
EndChar

StartChar: k
Encoding: 107 107 78
Width: 596
GlyphClass: 2
Flags: W
LayerCount: 2
Fore
SplineSet
60 700 m 1,0,-1
 60 750 l 1,1,-1
 190 750 l 1,2,-1
 190 336 l 1,3,-1
 280 336 l 1,4,-1
 410 522 l 1,5,-1
 358 522 l 1,6,-1
 358 572 l 1,7,-1
 548 572 l 1,8,-1
 548 522 l 1,9,-1
 488 522 l 1,10,-1
 333 303 l 1,11,-1
 507 50 l 1,12,-1
 566 50 l 1,13,-1
 566 0 l 1,14,-1
 376 0 l 1,15,-1
 376 50 l 1,16,-1
 429 50 l 1,17,-1
 270 282 l 1,18,-1
 190 282 l 1,19,-1
 190 50 l 1,20,-1
 250 50 l 1,21,-1
 250 0 l 1,22,-1
 60 0 l 1,23,-1
 60 50 l 1,24,-1
 120 50 l 1,25,-1
 120 700 l 1,26,-1
 60 700 l 1,0,-1
EndSplineSet
EndChar

StartChar: l
Encoding: 108 108 79
Width: 310
GlyphClass: 2
Flags: W
LayerCount: 2
Fore
SplineSet
60 700 m 1,0,-1
 60 750 l 1,1,-1
 190 750 l 1,2,-1
 190 50 l 1,3,-1
 250 50 l 1,4,-1
 250 0 l 1,5,-1
 60 0 l 1,6,-1
 60 50 l 1,7,-1
 120 50 l 1,8,-1
 120 700 l 1,9,-1
 60 700 l 1,0,-1
EndSplineSet
EndChar

StartChar: m
Encoding: 109 109 80
Width: 1022
GlyphClass: 2
Flags: W
LayerCount: 2
Fore
SplineSet
421 0 m 1,0,-1
 421 50 l 1,1,-1
 481 50 l 1,2,-1
 481 408 l 2,3,4
 481 527 481 527 374 527 c 0,5,6
 278 527 278 527 200 455 c 1,7,-1
 200 50 l 1,8,-1
 260 50 l 1,9,-1
 260 0 l 1,10,-1
 70 0 l 1,11,-1
 70 50 l 1,12,-1
 130 50 l 1,13,-1
 130 522 l 1,14,-1
 70 522 l 1,15,-1
 70 572 l 1,16,-1
 177 572 l 1,17,-1
 193 510 l 1,18,19
 277 586 277 586 387 586 c 128,-1,20
 497 586 497 586 534 503 c 1,21,22
 569 538 569 538 623.5 562 c 128,-1,23
 678 586 678 586 734 586 c 0,24,25
 902 586 902 586 902 408 c 2,26,-1
 902 50 l 1,27,-1
 962 50 l 1,28,-1
 962 0 l 1,29,-1
 772 0 l 1,30,-1
 772 50 l 1,31,-1
 832 50 l 1,32,-1
 832 408 l 2,33,34
 832 527 832 527 725 527 c 0,35,36
 628 527 628 527 548 453 c 1,37,38
 551 432 551 432 551 408 c 2,39,-1
 551 50 l 1,40,-1
 611 50 l 1,41,-1
 611 0 l 1,42,-1
 421 0 l 1,0,-1
EndSplineSet
EndChar

StartChar: n
Encoding: 110 110 81
Width: 691
GlyphClass: 2
Flags: W
LayerCount: 2
Fore
SplineSet
70 522 m 1,0,-1
 70 572 l 1,1,-1
 177 572 l 1,2,-1
 194 508 l 1,3,4
 295 586 295 586 406 586 c 0,5,6
 494 586 494 586 532.5 542.5 c 128,-1,7
 571 499 571 499 571 407 c 2,8,-1
 571 50 l 1,9,-1
 631 50 l 1,10,-1
 631 0 l 1,11,-1
 441 0 l 1,12,-1
 441 50 l 1,13,-1
 501 50 l 1,14,-1
 501 408 l 2,15,16
 501 471 501 471 476.5 499 c 128,-1,17
 452 527 452 527 395 527 c 0,18,19
 293 527 293 527 200 453 c 1,20,-1
 200 50 l 1,21,-1
 260 50 l 1,22,-1
 260 0 l 1,23,-1
 70 0 l 1,24,-1
 70 50 l 1,25,-1
 130 50 l 1,26,-1
 130 522 l 1,27,-1
 70 522 l 1,0,-1
EndSplineSet
EndChar

StartChar: o
Encoding: 111 111 82
Width: 608
GlyphClass: 2
Flags: W
LayerCount: 2
Fore
SplineSet
304 45 m 128,-1,1
 352 45 352 45 385.5 59.5 c 128,-1,2
 419 74 419 74 436.5 94.5 c 128,-1,3
 454 115 454 115 464 150.5 c 128,-1,4
 474 186 474 186 476 214.5 c 128,-1,5
 478 243 478 243 478 286 c 128,-1,6
 478 329 478 329 476 357.5 c 128,-1,7
 474 386 474 386 464 421.5 c 128,-1,8
 454 457 454 457 436.5 477.5 c 128,-1,9
 419 498 419 498 385.5 512.5 c 128,-1,10
 352 527 352 527 304 527 c 128,-1,11
 256 527 256 527 222.5 512.5 c 128,-1,12
 189 498 189 498 171.5 477.5 c 128,-1,13
 154 457 154 457 144 421.5 c 128,-1,14
 134 386 134 386 132 357.5 c 128,-1,15
 130 329 130 329 130 286 c 128,-1,16
 130 243 130 243 132 214.5 c 128,-1,17
 134 186 134 186 144 150.5 c 128,-1,18
 154 115 154 115 171.5 94.5 c 128,-1,19
 189 74 189 74 222.5 59.5 c 128,-1,0
 256 45 256 45 304 45 c 128,-1,1
304 -14 m 128,-1,21
 258 -14 258 -14 221.5 -5 c 128,-1,22
 185 4 185 4 159.5 18.5 c 128,-1,23
 134 33 134 33 115.5 56 c 128,-1,24
 97 79 97 79 86.5 103 c 128,-1,25
 76 127 76 127 70 159.5 c 128,-1,26
 64 192 64 192 62 220.5 c 128,-1,27
 60 249 60 249 60 286 c 128,-1,28
 60 323 60 323 62 351.5 c 128,-1,29
 64 380 64 380 70 412.5 c 128,-1,30
 76 445 76 445 86.5 469 c 128,-1,31
 97 493 97 493 115.5 516 c 128,-1,32
 134 539 134 539 159.5 553.5 c 128,-1,33
 185 568 185 568 221.5 577 c 128,-1,34
 258 586 258 586 304 586 c 128,-1,35
 350 586 350 586 386.5 577 c 128,-1,36
 423 568 423 568 448.5 553.5 c 128,-1,37
 474 539 474 539 492.5 516 c 128,-1,38
 511 493 511 493 521.5 469 c 128,-1,39
 532 445 532 445 538 412.5 c 128,-1,40
 544 380 544 380 546 351.5 c 128,-1,41
 548 323 548 323 548 286 c 128,-1,42
 548 249 548 249 546 220.5 c 128,-1,43
 544 192 544 192 538 159.5 c 128,-1,44
 532 127 532 127 521.5 103 c 128,-1,45
 511 79 511 79 492.5 56 c 128,-1,46
 474 33 474 33 448.5 18.5 c 128,-1,47
 423 4 423 4 386.5 -5 c 128,-1,20
 350 -14 350 -14 304 -14 c 128,-1,21
EndSplineSet
EndChar

StartChar: p
Encoding: 112 112 83
Width: 656
GlyphClass: 2
Flags: W
LayerCount: 2
Fore
SplineSet
556 458 m 0,0,1
 569 416 569 416 572.5 377.5 c 128,-1,2
 576 339 576 339 576 286 c 128,-1,3
 576 233 576 233 572.5 194.5 c 128,-1,4
 569 156 569 156 555.5 114 c 128,-1,5
 542 72 542 72 519 46 c 128,-1,6
 496 20 496 20 454.5 3 c 128,-1,7
 413 -14 413 -14 341.5 -14 c 128,-1,8
 270 -14 270 -14 190 21 c 1,9,-1
 190 -177 l 1,10,-1
 270 -177 l 1,11,-1
 270 -227 l 1,12,-1
 60 -227 l 1,13,-1
 60 -177 l 1,14,-1
 120 -177 l 1,15,-1
 120 522 l 1,16,-1
 60 522 l 1,17,-1
 60 572 l 1,18,-1
 167 572 l 1,19,-1
 181 518 l 1,20,21
 272 586 272 586 371 586 c 0,22,23
 516 586 516 586 556 458 c 0,0,1
356 527 m 0,24,25
 267 527 267 527 190 468 c 1,26,-1
 190 77 l 1,27,28
 260 45 260 45 346 45 c 0,29,30
 464 45 464 45 492 144 c 0,31,32
 506 195 506 195 506 257.5 c 128,-1,33
 506 320 506 320 504 345.5 c 128,-1,34
 502 371 502 371 497 400.5 c 128,-1,35
 492 430 492 430 481.5 451.5 c 128,-1,36
 471 473 471 473 455 491 c 0,37,38
 423 527 423 527 356 527 c 0,24,25
EndSplineSet
EndChar

StartChar: q
Encoding: 113 113 84
Width: 647
GlyphClass: 2
Flags: W
LayerCount: 2
Fore
SplineSet
596 -177 m 1,0,-1
 596 -227 l 1,1,-1
 386 -227 l 1,2,-1
 386 -177 l 1,3,-1
 466 -177 l 1,4,-1
 466 26 l 1,5,6
 377 -14 377 -14 310 -14 c 128,-1,7
 243 -14 243 -14 201.5 3 c 128,-1,8
 160 20 160 20 137 46 c 128,-1,9
 114 72 114 72 100.5 114 c 128,-1,10
 87 156 87 156 83.5 194.5 c 128,-1,11
 80 233 80 233 80 286 c 128,-1,12
 80 339 80 339 83.5 377.5 c 128,-1,13
 87 416 87 416 100.5 458 c 128,-1,14
 114 500 114 500 137 526 c 128,-1,15
 160 552 160 552 201.5 569 c 128,-1,16
 243 586 243 586 300 586 c 0,17,18
 400 586 400 586 477 528 c 1,19,-1
 489 572 l 1,20,-1
 596 572 l 1,21,-1
 596 522 l 1,22,-1
 536 522 l 1,23,-1
 536 -177 l 1,24,-1
 596 -177 l 1,0,-1
310 45 m 0,25,26
 391 45 391 45 466 84 c 1,27,-1
 466 477 l 1,28,29
 402 527 402 527 310 527 c 0,30,31
 197 527 197 527 167 430 c 0,32,33
 150 375 150 375 150 301.5 c 128,-1,34
 150 228 150 228 155.5 188.5 c 128,-1,35
 161 149 161 149 178 114 c 0,36,37
 210 45 210 45 310 45 c 0,25,26
EndSplineSet
EndChar

StartChar: r
Encoding: 114 114 85
Width: 419
GlyphClass: 2
Flags: W
LayerCount: 2
Fore
SplineSet
200 50 m 1,0,-1
 280 50 l 1,1,-1
 280 0 l 1,2,-1
 70 0 l 1,3,-1
 70 50 l 1,4,-1
 130 50 l 1,5,-1
 130 522 l 1,6,-1
 70 522 l 1,7,-1
 70 572 l 1,8,-1
 177 572 l 1,9,-1
 199 462 l 1,10,11
 269 581 269 581 409 586 c 1,12,-1
 409 519 l 1,13,14
 268 514 268 514 200 389 c 1,15,-1
 200 50 l 1,0,-1
EndSplineSet
EndChar

StartChar: s
Encoding: 115 115 86
Width: 568
GlyphClass: 2
Flags: W
LayerCount: 2
Fore
SplineSet
476 572 m 1,0,-1
 476 370 l 1,1,-1
 430 370 l 1,2,3
 422 469 422 469 382 500 c 0,4,5
 360 516 360 516 333 521.5 c 128,-1,6
 306 527 306 527 253 527 c 128,-1,7
 200 527 200 527 171.5 500 c 128,-1,8
 143 473 143 473 143 430.5 c 128,-1,9
 143 388 143 388 166.5 366.5 c 128,-1,10
 190 345 190 345 249 330 c 2,11,-1
 327 309 l 2,12,13
 419 284 419 284 458.5 250.5 c 128,-1,14
 498 217 498 217 498 146 c 0,15,16
 498 -14 498 -14 301 -14 c 0,17,18
 176 -14 176 -14 124 74 c 1,19,-1
 126 0 l 1,20,-1
 75 0 l 1,21,-1
 75 202 l 1,22,-1
 121 202 l 1,23,24
 138 45 138 45 292 45 c 0,25,26
 428 45 428 45 428 146 c 0,27,28
 428 182 428 182 405 204 c 128,-1,29
 382 226 382 226 324 241 c 2,30,-1
 246 262 l 1,31,32
 153 286 153 286 113 319.5 c 128,-1,33
 73 353 73 353 73 426 c 128,-1,34
 73 499 73 499 120.5 542.5 c 128,-1,35
 168 586 168 586 261 586 c 0,36,37
 380 586 380 586 426 514 c 1,38,-1
 425 572 l 1,39,-1
 476 572 l 1,0,-1
EndSplineSet
EndChar

StartChar: t
Encoding: 116 116 87
Width: 370
GlyphClass: 2
Flags: W
LayerCount: 2
Fore
SplineSet
35 522 m 1,0,-1
 35 572 l 1,1,-1
 125 572 l 1,2,-1
 125 686 l 1,3,-1
 195 700 l 1,4,-1
 195 572 l 1,5,-1
 300 572 l 1,6,-1
 300 522 l 1,7,-1
 195 522 l 1,8,-1
 195 125 l 2,9,10
 195 79 195 79 207.5 60 c 128,-1,11
 220 41 220 41 244.5 41 c 128,-1,12
 269 41 269 41 304 49 c 1,13,-1
 313 0 l 1,14,15
 263 -14 263 -14 231.5 -14 c 128,-1,16
 200 -14 200 -14 180.5 -6 c 128,-1,17
 161 2 161 2 150.5 14 c 128,-1,18
 140 26 140 26 134 46 c 0,19,20
 125 76 125 76 125 125 c 2,21,-1
 125 522 l 1,22,-1
 35 522 l 1,0,-1
EndSplineSet
EndChar

StartChar: u
Encoding: 117 117 88
Width: 696
GlyphClass: 2
Flags: W
LayerCount: 2
Fore
SplineSet
60 572 m 1,0,-1
 190 572 l 1,1,-1
 190 164 l 2,2,3
 190 100 190 100 215.5 72.5 c 128,-1,4
 241 45 241 45 304 45 c 0,5,6
 411 45 411 45 506 132 c 1,7,-1
 506 522 l 1,8,-1
 446 522 l 1,9,-1
 446 572 l 1,10,-1
 576 572 l 1,11,-1
 576 50 l 1,12,-1
 636 50 l 1,13,-1
 636 0 l 1,14,-1
 529 0 l 1,15,-1
 509 73 l 1,16,17
 404 -14 404 -14 289 -14 c 0,18,19
 195 -14 195 -14 157.5 28 c 128,-1,20
 120 70 120 70 120 163 c 2,21,-1
 120 522 l 1,22,-1
 60 522 l 1,23,-1
 60 572 l 1,0,-1
EndSplineSet
EndChar

StartChar: v
Encoding: 118 118 89
Width: 572
GlyphClass: 2
Flags: W
LayerCount: 2
Fore
SplineSet
176 572 m 1,0,-1
 176 522 l 1,1,-1
 119 522 l 1,2,-1
 286 77 l 1,3,-1
 452 522 l 1,4,-1
 396 522 l 1,5,-1
 396 572 l 1,6,-1
 562 572 l 1,7,-1
 562 522 l 1,8,-1
 523 522 l 1,9,-1
 324 0 l 1,10,-1
 248 0 l 1,11,-1
 49 522 l 1,12,-1
 10 522 l 1,13,-1
 10 572 l 1,14,-1
 176 572 l 1,0,-1
EndSplineSet
EndChar

StartChar: w
Encoding: 119 119 90
Width: 786
GlyphClass: 2
Flags: W
LayerCount: 2
Fore
SplineSet
776 572 m 1,0,-1
 776 522 l 1,1,-1
 741 522 l 1,2,-1
 591 0 l 1,3,-1
 514 0 l 1,4,-1
 393 418 l 1,5,-1
 272 0 l 1,6,-1
 195 0 l 1,7,-1
 44 522 l 1,8,-1
 10 522 l 1,9,-1
 10 572 l 1,10,-1
 176 572 l 1,11,-1
 176 522 l 1,12,-1
 115 522 l 1,13,-1
 238 87 l 1,14,-1
 363 522 l 1,15,-1
 422 522 l 1,16,-1
 548 87 l 1,17,-1
 671 522 l 1,18,-1
 610 522 l 1,19,-1
 610 572 l 1,20,-1
 776 572 l 1,0,-1
EndSplineSet
EndChar

StartChar: x
Encoding: 120 120 91
Width: 569
GlyphClass: 2
Flags: W
LayerCount: 2
Fore
SplineSet
201 50 m 1,0,-1
 201 0 l 1,1,-1
 25 0 l 1,2,-1
 25 50 l 1,3,-1
 67 50 l 1,4,-1
 243 299 l 1,5,-1
 87 522 l 1,6,-1
 40 522 l 1,7,-1
 40 572 l 1,8,-1
 216 572 l 1,9,-1
 216 522 l 1,10,-1
 166 522 l 1,11,-1
 288 348 l 1,12,-1
 409 522 l 1,13,-1
 353 522 l 1,14,-1
 353 572 l 1,15,-1
 529 572 l 1,16,-1
 529 522 l 1,17,-1
 486 522 l 1,18,-1
 326 294 l 1,19,-1
 497 50 l 1,20,-1
 544 50 l 1,21,-1
 544 0 l 1,22,-1
 368 0 l 1,23,-1
 368 50 l 1,24,-1
 418 50 l 1,25,-1
 281 246 l 1,26,-1
 144 50 l 1,27,-1
 201 50 l 1,0,-1
EndSplineSet
EndChar

StartChar: y
Encoding: 121 121 92
Width: 572
GlyphClass: 2
Flags: W
LayerCount: 2
Fore
SplineSet
99 -227 m 1,0,-1
 99 -177 l 1,1,-1
 158 -172 l 2,2,3
 183 -170 183 -170 191 -163 c 128,-1,4
 199 -156 199 -156 207 -136 c 2,5,-1
 253 -13 l 1,6,-1
 49 522 l 1,7,-1
 10 522 l 1,8,-1
 10 572 l 1,9,-1
 176 572 l 1,10,-1
 176 522 l 1,11,-1
 119 522 l 1,12,-1
 286 76 l 1,13,-1
 452 522 l 1,14,-1
 396 522 l 1,15,-1
 396 572 l 1,16,-1
 562 572 l 1,17,-1
 562 522 l 1,18,-1
 523 522 l 1,19,-1
 263 -162 l 2,20,21
 250 -196 250 -196 235 -211.5 c 128,-1,22
 220 -227 220 -227 189 -227 c 2,23,-1
 99 -227 l 1,0,-1
EndSplineSet
EndChar

StartChar: z
Encoding: 122 122 93
Width: 536
GlyphClass: 2
Flags: W
LayerCount: 2
Fore
SplineSet
436 166 m 1,0,-1
 486 166 l 1,1,-1
 486 0 l 1,2,-1
 40 0 l 1,3,-1
 40 50 l 1,4,-1
 396 516 l 1,5,-1
 114 516 l 1,6,-1
 114 406 l 1,7,-1
 64 406 l 1,8,-1
 64 572 l 1,9,-1
 482 572 l 1,10,-1
 482 522 l 1,11,-1
 126 56 l 1,12,-1
 436 56 l 1,13,-1
 436 166 l 1,0,-1
EndSplineSet
EndChar

StartChar: braceleft
Encoding: 123 123 94
Width: 294
GlyphClass: 2
Flags: W
LayerCount: 2
Fore
SplineSet
162 526 m 1,0,-1
 170 404 l 1,1,2
 170 374 170 374 155.5 356 c 128,-1,3
 141 338 141 338 121 338 c 1,4,-1
 121 332 l 1,5,6
 141 332 141 332 155.5 314 c 128,-1,7
 170 296 170 296 170 266 c 1,8,-1
 162 144 l 1,9,10
 162 73 162 73 190.5 34.5 c 128,-1,11
 219 -4 219 -4 289 -4 c 1,12,-1
 289 -66 l 1,13,14
 88 -66 88 -66 88 137 c 1,15,-1
 96 261 l 1,16,17
 96 288 96 288 72.5 299 c 128,-1,18
 49 310 49 310 21 310 c 1,19,-1
 21 360 l 1,20,21
 49 360 49 360 72.5 371 c 128,-1,22
 96 382 96 382 96 409 c 1,23,24
 96 409 96 409 88 533 c 1,25,26
 88 736 88 736 289 736 c 1,27,-1
 289 674 l 1,28,29
 219 674 219 674 190.5 635.5 c 128,-1,30
 162 597 162 597 162 526 c 1,0,-1
EndSplineSet
EndChar

StartChar: bar
Encoding: 124 124 95
Width: 321
GlyphClass: 2
Flags: W
LayerCount: 2
Fore
SplineSet
120 -106 m 1,0,-1
 120 775 l 1,1,-1
 201 775 l 1,2,-1
 201 -106 l 1,3,-1
 120 -106 l 1,0,-1
EndSplineSet
EndChar

StartChar: braceright
Encoding: 125 125 96
Width: 294
GlyphClass: 2
Flags: W
LayerCount: 2
Fore
SplineSet
132 144 m 1,0,-1
 124 266 l 1,1,2
 124 296 124 296 138.5 314 c 128,-1,3
 153 332 153 332 173 332 c 1,4,-1
 173 338 l 1,5,6
 153 338 153 338 138.5 356 c 128,-1,7
 124 374 124 374 124 404 c 1,8,-1
 132 526 l 1,9,10
 132 597 132 597 103.5 635.5 c 128,-1,11
 75 674 75 674 5 674 c 1,12,-1
 5 736 l 1,13,14
 206 736 206 736 206 533 c 1,15,-1
 198 409 l 1,16,17
 198 382 198 382 221.5 371 c 128,-1,18
 245 360 245 360 273 360 c 1,19,-1
 273 310 l 1,20,21
 245 310 245 310 221.5 299 c 128,-1,22
 198 288 198 288 198 261 c 1,23,24
 198 261 198 261 206 137 c 1,25,26
 206 -66 206 -66 5 -66 c 1,27,-1
 5 -4 l 1,28,29
 75 -4 75 -4 103.5 34.5 c 128,-1,30
 132 73 132 73 132 144 c 1,0,-1
EndSplineSet
EndChar

StartChar: asciitilde
Encoding: 126 126 97
Width: 580
GlyphClass: 2
Flags: W
LayerCount: 2
Fore
SplineSet
94 348 m 1,0,1
 128 324 128 324 170.5 324 c 128,-1,2
 213 324 213 324 289.5 345.5 c 128,-1,3
 366 367 366 367 407.5 367 c 128,-1,4
 449 367 449 367 486 348 c 1,5,-1
 486 288 l 1,6,7
 448 309 448 309 407 309 c 128,-1,8
 366 309 366 309 289.5 287.5 c 128,-1,9
 213 266 213 266 172 266 c 128,-1,10
 131 266 131 266 94 288 c 1,11,-1
 94 348 l 1,0,1
EndSplineSet
EndChar

StartChar: exclamdown
Encoding: 161 161 98
Width: 316
GlyphClass: 2
Flags: W
LayerCount: 2
Fore
SplineSet
206 528 m 0,0,1
 206 510 206 510 204 499.5 c 128,-1,2
 202 489 202 489 191 479 c 128,-1,3
 180 469 180 469 154 469 c 128,-1,4
 128 469 128 469 119 485 c 128,-1,5
 110 501 110 501 110 520.5 c 128,-1,6
 110 540 110 540 111.5 548.5 c 128,-1,7
 113 557 113 557 118 566 c 0,8,9
 127 586 127 586 166.5 586 c 128,-1,10
 206 586 206 586 206 528 c 0,0,1
199 -152 m 1,11,-1
 119 -152 l 1,12,-1
 119 6 l 1,13,-1
 137 393 l 1,14,-1
 181 393 l 1,15,-1
 199 6 l 1,16,-1
 199 -152 l 1,11,-1
EndSplineSet
EndChar

StartChar: cent
Encoding: 162 162 99
Width: 580
GlyphClass: 2
Flags: W
LayerCount: 2
Fore
SplineSet
288 -74 m 1,0,-1
 288 35 l 1,1,2
 235 38 235 38 196.5 56.5 c 128,-1,3
 158 75 158 75 136.5 101 c 128,-1,4
 115 127 115 127 103 168 c 0,5,6
 84 233 84 233 84 308.5 c 128,-1,7
 84 384 84 384 87.5 420.5 c 128,-1,8
 91 457 91 457 103.5 497 c 128,-1,9
 116 537 116 537 137 563 c 128,-1,10
 158 589 158 589 196.5 608.5 c 128,-1,11
 235 628 235 628 288 633 c 1,12,-1
 288 744 l 1,13,-1
 338 744 l 1,14,-1
 338 635 l 1,15,16
 432 632 432 632 472 582 c 128,-1,17
 512 532 512 532 519 446 c 1,18,-1
 456 441 l 1,19,20
 453 501 453 501 427.5 534.5 c 128,-1,21
 402 568 402 568 338 571 c 1,22,-1
 338 99 l 1,23,24
 407 104 407 104 434 132 c 128,-1,25
 461 160 461 160 463 214 c 1,26,-1
 526 209 l 1,27,28
 519 129 519 129 477.5 85.5 c 128,-1,29
 436 42 436 42 338 36 c 1,30,-1
 338 -74 l 1,31,-1
 288 -74 l 1,0,-1
157.5 250.5 m 128,-1,33
 161 218 161 218 173 181 c 0,34,35
 197 108 197 108 288 100 c 1,36,-1
 288 568 l 1,37,38
 187 554 187 554 164 456 c 0,39,40
 154 411 154 411 154 347 c 128,-1,32
 154 283 154 283 157.5 250.5 c 128,-1,33
EndSplineSet
EndChar

StartChar: sterling
Encoding: 163 163 100
Width: 580
GlyphClass: 2
Flags: W
LayerCount: 2
Fore
SplineSet
64 286 m 1,0,-1
 64 346 l 1,1,-1
 130 346 l 1,2,-1
 130 489 l 2,3,4
 130 586 130 586 173.5 635 c 128,-1,5
 217 684 217 684 319.5 684 c 128,-1,6
 422 684 422 684 468 631 c 128,-1,7
 514 578 514 578 514 475 c 1,8,-1
 442 475 l 1,9,10
 442 547 442 547 414 584.5 c 128,-1,11
 386 622 386 622 319 622 c 128,-1,12
 252 622 252 622 228.5 590 c 128,-1,13
 205 558 205 558 205 489 c 2,14,-1
 205 346 l 1,15,-1
 441 346 l 1,16,-1
 441 286 l 1,17,-1
 205 286 l 1,18,-1
 205 174 l 2,19,20
 205 133 205 133 196 110 c 128,-1,21
 187 87 187 87 165 64 c 1,22,-1
 531 64 l 1,23,-1
 531 0 l 1,24,-1
 82 0 l 1,25,-1
 82 56 l 1,26,27
 130 98 130 98 130 164 c 2,28,-1
 130 286 l 1,29,-1
 64 286 l 1,0,-1
EndSplineSet
EndChar

StartChar: currency
Encoding: 164 164 101
Width: 580
GlyphClass: 2
Flags: W
LayerCount: 2
Fore
SplineSet
427 163 m 1,0,1
 377 131 377 131 288.5 131 c 128,-1,2
 200 131 200 131 155 165 c 1,3,-1
 74 84 l 1,4,-1
 39 119 l 1,5,-1
 121 201 l 1,6,7
 96 245 96 245 96 334.5 c 128,-1,8
 96 424 96 424 123 467 c 1,9,-1
 39 551 l 1,10,-1
 74 586 l 1,11,-1
 157 503 l 1,12,13
 208 539 208 539 296.5 539 c 128,-1,14
 385 539 385 539 429 509 c 1,15,-1
 506 586 l 1,16,-1
 541 551 l 1,17,-1
 464 474 l 1,18,19
 494 430 494 430 494 337 c 128,-1,20
 494 244 494 244 462 197 c 1,21,-1
 541 119 l 1,22,-1
 506 84 l 1,23,-1
 427 163 l 1,0,1
215.5 202.5 m 128,-1,25
 243 191 243 191 284.5 191 c 128,-1,26
 326 191 326 191 354 199.5 c 128,-1,27
 382 208 382 208 397 220.5 c 128,-1,28
 412 233 412 233 420 254 c 0,29,30
 431 283 431 283 431 325.5 c 128,-1,31
 431 368 431 368 428 388.5 c 128,-1,32
 425 409 425 409 414 432 c 0,33,34
 390 478 390 478 303 478 c 0,35,36
 205 478 205 478 179 432 c 0,37,38
 166 409 166 409 162.5 388.5 c 128,-1,39
 159 368 159 368 159 335 c 128,-1,40
 159 302 159 302 162 281.5 c 128,-1,41
 165 261 165 261 176.5 237.5 c 128,-1,24
 188 214 188 214 215.5 202.5 c 128,-1,25
EndSplineSet
EndChar

StartChar: yen
Encoding: 165 165 102
Width: 580
GlyphClass: 2
Flags: W
LayerCount: 2
Fore
SplineSet
77 346 m 1,0,-1
 77 406 l 1,1,-1
 186 406 l 1,2,-1
 49 670 l 1,3,-1
 125 670 l 1,4,-1
 290 343 l 1,5,-1
 455 670 l 1,6,-1
 531 670 l 1,7,-1
 393 406 l 1,8,-1
 504 406 l 1,9,-1
 504 346 l 1,10,-1
 362 346 l 1,11,-1
 331 286 l 1,12,-1
 504 286 l 1,13,-1
 504 226 l 1,14,-1
 326 226 l 1,15,-1
 326 0 l 1,16,-1
 254 0 l 1,17,-1
 254 226 l 1,18,-1
 77 226 l 1,19,-1
 77 286 l 1,20,-1
 249 286 l 1,21,-1
 217 346 l 1,22,-1
 77 346 l 1,0,-1
EndSplineSet
EndChar

StartChar: brokenbar
Encoding: 166 166 103
Width: 321
GlyphClass: 2
Flags: W
LayerCount: 2
Fore
SplineSet
120 445 m 1,0,-1
 120 775 l 1,1,-1
 201 775 l 1,2,-1
 201 445 l 1,3,-1
 120 445 l 1,0,-1
120 -106 m 1,4,-1
 120 224 l 1,5,-1
 201 224 l 1,6,-1
 201 -106 l 1,7,-1
 120 -106 l 1,4,-1
EndSplineSet
EndChar

StartChar: section
Encoding: 167 167 104
Width: 576
GlyphClass: 2
Flags: W
LayerCount: 2
Fore
SplineSet
531 209 m 0,0,1
 531 145 531 145 501 94 c 1,2,3
 531 48 531 48 531 -45 c 128,-1,4
 531 -138 531 -138 478 -189.5 c 128,-1,5
 425 -241 425 -241 292 -241 c 0,6,7
 181 -241 181 -241 124 -180 c 128,-1,8
 67 -119 67 -119 67 -11 c 1,9,-1
 131 -11 l 1,10,11
 137 -181 137 -181 292 -181 c 0,12,13
 384 -181 384 -181 421.5 -147 c 128,-1,14
 459 -113 459 -113 459 -42.5 c 128,-1,15
 459 28 459 28 431 61 c 128,-1,16
 403 94 403 94 333 94 c 2,17,-1
 243 94 l 2,18,19
 138 94 138 94 96 141.5 c 128,-1,20
 54 189 54 189 54 289 c 0,21,22
 54 351 54 351 84 400 c 1,23,24
 54 444 54 444 54 533 c 0,25,26
 54 744 54 744 283 744 c 0,27,28
 393 744 393 744 444.5 695.5 c 128,-1,29
 496 647 496 647 507 549 c 1,30,-1
 448 545 l 1,31,32
 440 614 440 614 402.5 649 c 128,-1,33
 365 684 365 684 278.5 684 c 128,-1,34
 192 684 192 684 159 647 c 128,-1,35
 126 610 126 610 126 538.5 c 128,-1,36
 126 467 126 467 150 436.5 c 128,-1,37
 174 406 174 406 246 406 c 2,38,-1
 335 406 l 2,39,40
 441 406 441 406 486 357 c 128,-1,41
 531 308 531 308 531 209 c 0,0,1
243 338 m 2,42,43
 173 338 173 338 134 358 c 1,44,45
 126 331 126 331 126 277 c 128,-1,46
 126 223 126 223 150 192.5 c 128,-1,47
 174 162 174 162 246 162 c 2,48,-1
 335 162 l 2,49,50
 406 162 406 162 450 139 c 1,51,52
 459 164 459 164 459 199 c 0,53,54
 459 272 459 272 431 305 c 128,-1,55
 403 338 403 338 333 338 c 2,56,-1
 243 338 l 2,42,43
EndSplineSet
EndChar

StartChar: dieresis
Encoding: 168 168 105
Width: 308
GlyphClass: 2
Flags: W
LayerCount: 2
Fore
SplineSet
78.5 681 m 128,-1,1
 68 672 68 672 48.5 672 c 128,-1,2
 29 672 29 672 19 681 c 128,-1,3
 9 690 9 690 7 699.5 c 128,-1,4
 5 709 5 709 5 725.5 c 128,-1,5
 5 742 5 742 7 751.5 c 128,-1,6
 9 761 9 761 19 770 c 128,-1,7
 29 779 29 779 53 779 c 128,-1,8
 77 779 77 779 85 765 c 128,-1,9
 93 751 93 751 93 730 c 128,-1,10
 93 709 93 709 91 699.5 c 128,-1,0
 89 690 89 690 78.5 681 c 128,-1,1
288.5 681 m 128,-1,12
 278 672 278 672 258.5 672 c 128,-1,13
 239 672 239 672 229 681 c 128,-1,14
 219 690 219 690 217 699.5 c 128,-1,15
 215 709 215 709 215 725.5 c 128,-1,16
 215 742 215 742 217 751.5 c 128,-1,17
 219 761 219 761 229 770 c 128,-1,18
 239 779 239 779 263 779 c 128,-1,19
 287 779 287 779 295 765 c 128,-1,20
 303 751 303 751 303 730 c 128,-1,21
 303 709 303 709 301 699.5 c 128,-1,11
 299 690 299 690 288.5 681 c 128,-1,12
EndSplineSet
EndChar

StartChar: copyright
Encoding: 169 169 106
Width: 727
GlyphClass: 2
Flags: W
LayerCount: 2
Fore
SplineSet
70 560 m 128,-1,1
 70 718 70 718 137.5 786 c 128,-1,2
 205 854 205 854 363 854 c 128,-1,3
 521 854 521 854 589 786 c 128,-1,4
 657 718 657 718 657 560 c 128,-1,5
 657 402 657 402 589 334.5 c 128,-1,6
 521 267 521 267 363 267 c 128,-1,7
 205 267 205 267 137.5 334.5 c 128,-1,0
 70 402 70 402 70 560 c 128,-1,1
118 560 m 128,-1,9
 118 423 118 423 172 366.5 c 128,-1,10
 226 310 226 310 363 310 c 128,-1,11
 500 310 500 310 554.5 367 c 128,-1,12
 609 424 609 424 609 560.5 c 128,-1,13
 609 697 609 697 554.5 754 c 128,-1,14
 500 811 500 811 363.5 811 c 128,-1,15
 227 811 227 811 172.5 754 c 128,-1,8
 118 697 118 697 118 560 c 128,-1,9
362 727 m 0,16,17
 300 727 300 727 279.5 687.5 c 128,-1,18
 259 648 259 648 259 559.5 c 128,-1,19
 259 471 259 471 278.5 433 c 128,-1,20
 298 395 298 395 363 395 c 0,21,22
 446 395 446 395 449 484 c 1,23,-1
 491 482 l 1,24,25
 487 418 487 418 459 385 c 128,-1,26
 431 352 431 352 363 352 c 0,27,28
 268 352 268 352 237.5 401.5 c 128,-1,29
 207 451 207 451 207 560 c 128,-1,30
 207 669 207 669 239 719 c 128,-1,31
 271 769 271 769 362 769 c 0,32,33
 426 769 426 769 455 741 c 128,-1,34
 484 713 484 713 490 656 c 1,35,-1
 447 653 l 1,36,37
 443 691 443 691 423.5 709 c 128,-1,38
 404 727 404 727 362 727 c 0,16,17
EndSplineSet
EndChar

StartChar: ordfeminine
Encoding: 170 170 107
Width: 427
GlyphClass: 2
Flags: W
LayerCount: 2
Fore
SplineSet
293 392 m 1,0,1
 231 340 231 340 162.5 340 c 128,-1,2
 94 340 94 340 67 368.5 c 128,-1,3
 40 397 40 397 40 455 c 128,-1,4
 40 513 40 513 65.5 540.5 c 128,-1,5
 91 568 91 568 164 573 c 2,6,-1
 283 581 l 1,7,-1
 283 645 l 2,8,9
 283 709 283 709 203 709 c 0,10,11
 150 709 150 709 130.5 690 c 128,-1,12
 111 671 111 671 109 631 c 1,13,-1
 57 634 l 1,14,15
 62 697 62 697 93 728.5 c 128,-1,16
 124 760 124 760 205 760 c 0,17,18
 347 760 347 760 347 648 c 2,19,-1
 347 393 l 1,20,-1
 389 393 l 1,21,-1
 389 350 l 1,22,-1
 305 350 l 1,23,-1
 293 392 l 1,0,1
172 390 m 0,24,25
 234 390 234 390 283 436 c 1,26,-1
 283 535 l 1,27,-1
 174 528 l 2,28,29
 133 526 133 526 118 510.5 c 128,-1,30
 103 495 103 495 103 458 c 128,-1,31
 103 421 103 421 118.5 405.5 c 128,-1,32
 134 390 134 390 172 390 c 0,24,25
47 256 m 1,33,-1
 47 299 l 1,34,-1
 389 299 l 1,35,-1
 389 256 l 1,36,-1
 47 256 l 1,33,-1
EndSplineSet
EndChar

StartChar: guillemotleft
Encoding: 171 171 108
Width: 520
GlyphClass: 2
Flags: W
LayerCount: 2
Fore
SplineSet
244 158 m 1,0,-1
 198 112 l 1,1,-1
 30 299 l 1,2,-1
 30 331 l 1,3,-1
 198 518 l 1,4,-1
 244 472 l 1,5,-1
 121 315 l 1,6,-1
 244 158 l 1,0,-1
460 158 m 1,7,-1
 413 112 l 1,8,-1
 245 299 l 1,9,-1
 245 331 l 1,10,-1
 413 518 l 1,11,-1
 460 472 l 1,12,-1
 336 315 l 1,13,-1
 460 158 l 1,7,-1
EndSplineSet
EndChar

StartChar: logicalnot
Encoding: 172 172 109
Width: 580
GlyphClass: 2
Flags: W
LayerCount: 2
Fore
SplineSet
94 288 m 1,0,-1
 94 348 l 1,1,-1
 486 348 l 1,2,-1
 486 150 l 1,3,-1
 430 150 l 1,4,-1
 430 288 l 1,5,-1
 94 288 l 1,0,-1
EndSplineSet
EndChar

StartChar: registered
Encoding: 174 174 110
Width: 727
GlyphClass: 2
Flags: W
LayerCount: 2
Fore
SplineSet
70 560 m 128,-1,1
 70 718 70 718 137.5 786 c 128,-1,2
 205 854 205 854 363 854 c 128,-1,3
 521 854 521 854 589 786 c 128,-1,4
 657 718 657 718 657 560 c 128,-1,5
 657 402 657 402 589 334.5 c 128,-1,6
 521 267 521 267 363 267 c 128,-1,7
 205 267 205 267 137.5 334.5 c 128,-1,0
 70 402 70 402 70 560 c 128,-1,1
118 560 m 128,-1,9
 118 423 118 423 172 366.5 c 128,-1,10
 226 310 226 310 363 310 c 128,-1,11
 500 310 500 310 554.5 367 c 128,-1,12
 609 424 609 424 609 560.5 c 128,-1,13
 609 697 609 697 554.5 754 c 128,-1,14
 500 811 500 811 363.5 811 c 128,-1,15
 227 811 227 811 172.5 754 c 128,-1,8
 118 697 118 697 118 560 c 128,-1,9
246 762 m 1,16,-1
 369 762 l 2,17,18
 445 762 445 762 469 730.5 c 128,-1,19
 493 699 493 699 493 649 c 128,-1,20
 493 599 493 599 479.5 571.5 c 128,-1,21
 466 544 466 544 426 532 c 1,22,23
 440 519 440 519 450 497 c 2,24,-1
 510 360 l 1,25,-1
 454 360 l 1,26,-1
 398 490 l 2,27,28
 383 525 383 525 344 525 c 2,29,-1
 298 525 l 1,30,-1
 298 360 l 1,31,-1
 246 360 l 1,32,-1
 246 762 l 1,16,-1
298 566 m 1,33,-1
 368 566 l 2,34,35
 413 566 413 566 427 585.5 c 128,-1,36
 441 605 441 605 441 643 c 128,-1,37
 441 681 441 681 427 700.5 c 128,-1,38
 413 720 413 720 368 720 c 2,39,-1
 298 720 l 1,40,-1
 298 566 l 1,33,-1
EndSplineSet
EndChar

StartChar: macron
Encoding: 175 175 111
Width: 354
GlyphClass: 2
Flags: W
LayerCount: 2
Fore
SplineSet
50 694 m 1,0,-1
 50 759 l 1,1,-1
 304 759 l 1,2,-1
 304 694 l 1,3,-1
 50 694 l 1,0,-1
EndSplineSet
EndChar

StartChar: degree
Encoding: 176 176 112
Width: 425
GlyphClass: 2
Flags: W
LayerCount: 2
Fore
SplineSet
212 391 m 128,-1,1
 246 391 246 391 268 401.5 c 128,-1,2
 290 412 290 412 299 433.5 c 128,-1,3
 308 455 308 455 310.5 474 c 128,-1,4
 313 493 313 493 313 525 c 128,-1,5
 313 557 313 557 310.5 576 c 128,-1,6
 308 595 308 595 299 616.5 c 128,-1,7
 290 638 290 638 268 648.5 c 128,-1,8
 246 659 246 659 212 659 c 128,-1,9
 178 659 178 659 156 648.5 c 128,-1,10
 134 638 134 638 125 616.5 c 128,-1,11
 116 595 116 595 113.5 576 c 128,-1,12
 111 557 111 557 111 525 c 128,-1,13
 111 493 111 493 113.5 474 c 128,-1,14
 116 455 116 455 125 433.5 c 128,-1,15
 134 412 134 412 156 401.5 c 128,-1,0
 178 391 178 391 212 391 c 128,-1,1
212 340 m 128,-1,17
 159 340 159 340 124.5 354.5 c 128,-1,18
 90 369 90 369 74 398 c 128,-1,19
 58 427 58 427 53 455.5 c 128,-1,20
 48 484 48 484 48 525.5 c 128,-1,21
 48 567 48 567 53 595.5 c 128,-1,22
 58 624 58 624 74 652.5 c 128,-1,23
 90 681 90 681 124.5 695.5 c 128,-1,24
 159 710 159 710 212 710 c 128,-1,25
 265 710 265 710 300 695.5 c 128,-1,26
 335 681 335 681 351 652.5 c 128,-1,27
 367 624 367 624 372 595.5 c 128,-1,28
 377 567 377 567 377 525.5 c 128,-1,29
 377 484 377 484 372 455.5 c 128,-1,30
 367 427 367 427 351 398 c 128,-1,31
 335 369 335 369 300 354.5 c 128,-1,16
 265 340 265 340 212 340 c 128,-1,17
EndSplineSet
EndChar

StartChar: plusminus
Encoding: 177 177 113
Width: 580
GlyphClass: 2
Flags: W
LayerCount: 2
Fore
SplineSet
94 338 m 1,0,-1
 94 398 l 1,1,-1
 260 398 l 1,2,-1
 260 564 l 1,3,-1
 320 564 l 1,4,-1
 320 398 l 1,5,-1
 486 398 l 1,6,-1
 486 338 l 1,7,-1
 320 338 l 1,8,-1
 320 172 l 1,9,-1
 260 172 l 1,10,-1
 260 338 l 1,11,-1
 94 338 l 1,0,-1
94 0 m 1,12,-1
 94 60 l 1,13,-1
 486 60 l 1,14,-1
 486 0 l 1,15,-1
 94 0 l 1,12,-1
EndSplineSet
EndChar

StartChar: twosuperior
Encoding: 178 178 114
Width: 414
GlyphClass: 2
Flags: W
LayerCount: 2
Fore
SplineSet
340 385 m 1,0,-1
 340 340 l 1,1,-1
 73 340 l 1,2,-1
 73 382 l 1,3,-1
 227 549 l 2,4,5
 247 571 247 571 256 582 c 0,6,7
 281 613 281 613 281 644 c 0,8,9
 281 709 281 709 206 709 c 0,10,11
 161 709 161 709 144.5 690 c 128,-1,12
 128 671 128 671 128 632 c 1,13,-1
 80 632 l 1,14,15
 80 692 80 692 109 723 c 128,-1,16
 138 754 138 754 208 754 c 0,17,18
 335 754 335 754 335 644 c 0,19,20
 335 588 335 588 267 514 c 2,21,-1
 148 385 l 1,22,-1
 340 385 l 1,0,-1
EndSplineSet
EndChar

StartChar: threesuperior
Encoding: 179 179 115
Width: 414
GlyphClass: 2
Flags: W
LayerCount: 2
Fore
SplineSet
347 443 m 0,0,1
 347 390 347 390 312 361 c 128,-1,2
 277 332 277 332 205 332 c 128,-1,3
 133 332 133 332 102.5 362 c 128,-1,4
 72 392 72 392 72 453 c 1,5,-1
 120 453 l 1,6,7
 120 376 120 376 206 376 c 128,-1,8
 292 376 292 376 292 444 c 0,9,10
 292 520 292 520 210 520 c 2,11,-1
 150 520 l 1,12,-1
 150 562 l 1,13,-1
 211 562 l 2,14,15
 248 562 248 562 267 582 c 128,-1,16
 286 602 286 602 286 636 c 0,17,18
 286 709 286 709 207 709 c 128,-1,19
 128 709 128 709 128 632 c 1,20,-1
 80 632 l 1,21,22
 80 692 80 692 109.5 723 c 128,-1,23
 139 754 139 754 208 754 c 0,24,25
 341 754 341 754 341 635 c 0,26,27
 341 572 341 572 279 543 c 1,28,29
 347 518 347 518 347 443 c 0,0,1
EndSplineSet
EndChar

StartChar: acute
Encoding: 180 180 116
Width: 314
GlyphClass: 2
Flags: W
LayerCount: 2
Fore
SplineSet
92 624 m 1,0,-1
 50 666 l 1,1,-1
 211 827 l 1,2,-1
 264 774 l 1,3,-1
 92 624 l 1,0,-1
EndSplineSet
EndChar

StartChar: mu
Encoding: 181 181 117
Width: 641
GlyphClass: 2
Flags: W
LayerCount: 2
Fore
SplineSet
155 572 m 1,0,-1
 155 315 l 2,1,2
 155 200 155 200 166.5 154.5 c 128,-1,3
 178 109 178 109 195 90 c 128,-1,4
 212 71 212 71 241 59.5 c 128,-1,5
 270 48 270 48 312 48 c 128,-1,6
 354 48 354 48 383 59.5 c 128,-1,7
 412 71 412 71 429.5 90 c 128,-1,8
 447 109 447 109 456 144 c 0,9,10
 471 204 471 204 471 315 c 2,11,-1
 471 572 l 1,12,-1
 541 572 l 1,13,-1
 541 325 l 2,14,15
 541 158 541 158 517 100 c 0,16,17
 492 38 492 38 450 15 c 0,18,19
 396 -14 396 -14 318 -14 c 128,-1,20
 240 -14 240 -14 196.5 2.5 c 128,-1,21
 153 19 153 19 128 74 c 1,22,-1
 122 71 l 1,23,-1
 146 0 l 1,24,-1
 146 -227 l 1,25,-1
 85 -227 l 1,26,-1
 85 572 l 1,27,-1
 155 572 l 1,0,-1
EndSplineSet
EndChar

StartChar: paragraph
Encoding: 182 182 118
Width: 489
GlyphClass: 2
Flags: W
LayerCount: 2
Fore
SplineSet
419 50 m 1,0,-1
 419 0 l 1,1,-1
 207 0 l 1,2,-1
 207 50 l 1,3,-1
 287 50 l 1,4,-1
 287 285 l 1,5,-1
 225 285 l 2,6,7
 99 285 99 285 61 345 c 0,8,9
 42 375 42 375 36 404.5 c 128,-1,10
 30 434 30 434 30 477.5 c 128,-1,11
 30 521 30 521 36 550.5 c 128,-1,12
 42 580 42 580 61 610 c 0,13,14
 99 670 99 670 225 670 c 2,15,-1
 419 670 l 1,16,-1
 419 620 l 1,17,-1
 359 620 l 1,18,-1
 359 50 l 1,19,-1
 419 50 l 1,0,-1
EndSplineSet
EndChar

StartChar: periodcentered
Encoding: 183 183 119
Width: 226
GlyphClass: 2
Flags: W
LayerCount: 2
Fore
SplineSet
65 315 m 0,0,1
 65 333 65 333 67 343.5 c 128,-1,2
 69 354 69 354 80 364 c 128,-1,3
 91 374 91 374 117 374 c 128,-1,4
 143 374 143 374 152 358 c 128,-1,5
 161 342 161 342 161 322.5 c 128,-1,6
 161 303 161 303 159.5 294.5 c 128,-1,7
 158 286 158 286 154 276 c 1,8,9
 144 257 144 257 104.5 257 c 128,-1,10
 65 257 65 257 65 315 c 0,0,1
EndSplineSet
EndChar

StartChar: cedilla
Encoding: 184 184 120
Width: 299
GlyphClass: 2
Flags: W
LayerCount: 2
Fore
SplineSet
50 -146 m 1,0,-1
 100 -146 l 1,1,2
 100 -168 100 -168 110.5 -179.5 c 128,-1,3
 121 -191 121 -191 149 -191 c 128,-1,4
 177 -191 177 -191 188 -179.5 c 128,-1,5
 199 -168 199 -168 199 -145 c 0,6,7
 199 -105 199 -105 147 -96 c 2,8,-1
 94 -86 l 1,9,-1
 94 -50 l 1,10,-1
 153 -50 l 2,11,12
 198 -50 198 -50 223.5 -71 c 128,-1,13
 249 -92 249 -92 249 -142.5 c 128,-1,14
 249 -193 249 -193 227.5 -217 c 128,-1,15
 206 -241 206 -241 149.5 -241 c 128,-1,16
 93 -241 93 -241 71.5 -217 c 128,-1,17
 50 -193 50 -193 50 -146 c 1,0,-1
EndSplineSet
EndChar

StartChar: onesuperior
Encoding: 185 185 121
Width: 414
GlyphClass: 2
Flags: W
LayerCount: 2
Fore
SplineSet
109 681 m 1,0,-1
 109 715 l 1,1,2
 172 721 172 721 205 745 c 1,3,-1
 247 745 l 1,4,-1
 247 385 l 1,5,-1
 330 385 l 1,6,-1
 330 340 l 1,7,-1
 108 340 l 1,8,-1
 108 385 l 1,9,-1
 191 385 l 1,10,-1
 191 681 l 1,11,-1
 109 681 l 1,0,-1
EndSplineSet
EndChar

StartChar: ordmasculine
Encoding: 186 186 122
Width: 425
GlyphClass: 2
Flags: W
LayerCount: 2
Fore
SplineSet
160.5 400 m 128,-1,1
 182 391 182 391 212.5 391 c 128,-1,2
 243 391 243 391 264.5 400.5 c 128,-1,3
 286 410 286 410 297 423 c 128,-1,4
 308 436 308 436 314 459.5 c 128,-1,5
 320 483 320 483 321.5 501.5 c 128,-1,6
 323 520 323 520 323 550 c 128,-1,7
 323 580 323 580 321.5 598.5 c 128,-1,8
 320 617 320 617 314 640.5 c 128,-1,9
 308 664 308 664 297 677 c 0,10,11
 270 709 270 709 212 709 c 0,12,13
 128 709 128 709 110 641 c 0,14,15
 101 606 101 606 101 563 c 128,-1,16
 101 520 101 520 102.5 501 c 128,-1,17
 104 482 104 482 110 459 c 128,-1,18
 116 436 116 436 127.5 422.5 c 128,-1,0
 139 409 139 409 160.5 400 c 128,-1,1
305.5 356.5 m 128,-1,20
 269 340 269 340 217.5 340 c 128,-1,21
 166 340 166 340 133.5 352 c 128,-1,22
 101 364 101 364 83 382.5 c 128,-1,23
 65 401 65 401 54 430 c 0,24,25
 38 476 38 476 38 536.5 c 128,-1,26
 38 597 38 597 43.5 629.5 c 128,-1,27
 49 662 49 662 66 694 c 0,28,29
 99 760 99 760 212 760 c 256,30,31
 325 760 325 760 359 694 c 0,32,33
 376 662 376 662 381.5 630 c 128,-1,34
 387 598 387 598 387 550.5 c 128,-1,35
 387 503 387 503 381.5 470.5 c 128,-1,36
 376 438 376 438 359 405.5 c 128,-1,19
 342 373 342 373 305.5 356.5 c 128,-1,20
48 256 m 1,37,-1
 48 299 l 1,38,-1
 376 299 l 1,39,-1
 376 256 l 1,40,-1
 48 256 l 1,37,-1
EndSplineSet
EndChar

StartChar: guillemotright
Encoding: 187 187 123
Width: 520
GlyphClass: 2
Flags: W
LayerCount: 2
Fore
SplineSet
276 472 m 1,0,-1
 322 518 l 1,1,-1
 490 331 l 1,2,-1
 490 299 l 1,3,-1
 322 112 l 1,4,-1
 276 158 l 1,5,-1
 399 315 l 1,6,-1
 276 472 l 1,0,-1
60 472 m 1,7,-1
 107 518 l 1,8,-1
 275 331 l 1,9,-1
 275 299 l 1,10,-1
 107 112 l 1,11,-1
 60 158 l 1,12,-1
 184 315 l 1,13,-1
 60 472 l 1,7,-1
EndSplineSet
EndChar

StartChar: onequarter
Encoding: 188 188 124
Width: 982
GlyphClass: 2
Flags: W
LayerCount: 2
Fore
SplineSet
859 0 m 1,0,-1
 805 0 l 1,1,-1
 805 85 l 1,2,-1
 605 85 l 1,3,-1
 605 128 l 1,4,-1
 774 405 l 1,5,-1
 859 405 l 1,6,-1
 859 130 l 1,7,-1
 907 130 l 1,8,-1
 907 85 l 1,9,-1
 859 85 l 1,10,-1
 859 0 l 1,0,-1
368 -66 m 1,11,-1
 582 735 l 1,12,-1
 635 735 l 1,13,-1
 420 -66 l 1,14,-1
 368 -66 l 1,11,-1
116 612 m 1,15,-1
 116 646 l 1,16,17
 179 652 179 652 212 676 c 1,18,-1
 254 676 l 1,19,-1
 254 316 l 1,20,-1
 337 316 l 1,21,-1
 337 271 l 1,22,-1
 115 271 l 1,23,-1
 115 316 l 1,24,-1
 198 316 l 1,25,-1
 198 612 l 1,26,-1
 116 612 l 1,15,-1
805 130 m 1,27,-1
 805 357 l 1,28,-1
 667 130 l 1,29,-1
 805 130 l 1,27,-1
EndSplineSet
EndChar

StartChar: onehalf
Encoding: 189 189 125
Width: 982
GlyphClass: 2
Flags: W
LayerCount: 2
Fore
SplineSet
899 45 m 1,0,-1
 899 0 l 1,1,-1
 632 0 l 1,2,-1
 632 42 l 1,3,-1
 786 209 l 2,4,5
 806 231 806 231 814 242 c 0,6,7
 840 273 840 273 840 304 c 0,8,9
 840 369 840 369 765 369 c 0,10,11
 720 369 720 369 703.5 350 c 128,-1,12
 687 331 687 331 687 292 c 1,13,-1
 639 292 l 1,14,15
 639 352 639 352 668 383 c 128,-1,16
 697 414 697 414 767 414 c 0,17,18
 894 414 894 414 894 304 c 0,19,20
 894 248 894 248 826 174 c 2,21,-1
 707 45 l 1,22,-1
 899 45 l 1,0,-1
348 -66 m 1,23,-1
 562 735 l 1,24,-1
 615 735 l 1,25,-1
 400 -66 l 1,26,-1
 348 -66 l 1,23,-1
116 612 m 1,27,-1
 116 646 l 1,28,29
 179 652 179 652 212 676 c 1,30,-1
 254 676 l 1,31,-1
 254 316 l 1,32,-1
 337 316 l 1,33,-1
 337 271 l 1,34,-1
 115 271 l 1,35,-1
 115 316 l 1,36,-1
 198 316 l 1,37,-1
 198 612 l 1,38,-1
 116 612 l 1,27,-1
EndSplineSet
EndChar

StartChar: threequarters
Encoding: 190 190 126
Width: 982
GlyphClass: 2
Flags: W
LayerCount: 2
Fore
SplineSet
859 0 m 1,0,-1
 805 0 l 1,1,-1
 805 85 l 1,2,-1
 605 85 l 1,3,-1
 605 128 l 1,4,-1
 774 405 l 1,5,-1
 859 405 l 1,6,-1
 859 130 l 1,7,-1
 907 130 l 1,8,-1
 907 85 l 1,9,-1
 859 85 l 1,10,-1
 859 0 l 1,0,-1
355 374 m 0,11,12
 355 321 355 321 320 292 c 128,-1,13
 285 263 285 263 213 263 c 128,-1,14
 141 263 141 263 110.5 293 c 128,-1,15
 80 323 80 323 80 384 c 1,16,-1
 128 384 l 1,17,18
 128 307 128 307 214 307 c 128,-1,19
 300 307 300 307 300 375 c 0,20,21
 300 451 300 451 218 451 c 2,22,-1
 158 451 l 1,23,-1
 158 493 l 1,24,-1
 219 493 l 2,25,26
 256 493 256 493 275 513 c 128,-1,27
 294 533 294 533 294 568 c 0,28,29
 294 640 294 640 215 640 c 128,-1,30
 136 640 136 640 136 563 c 1,31,-1
 88 563 l 1,32,33
 88 623 88 623 117.5 654 c 128,-1,34
 147 685 147 685 216 685 c 0,35,36
 349 685 349 685 349 566 c 0,37,38
 349 503 349 503 287 474 c 1,39,40
 355 448 355 448 355 374 c 0,11,12
373 -66 m 1,41,-1
 587 735 l 1,42,-1
 640 735 l 1,43,-1
 425 -66 l 1,44,-1
 373 -66 l 1,41,-1
805 130 m 1,45,-1
 805 357 l 1,46,-1
 667 130 l 1,47,-1
 805 130 l 1,45,-1
EndSplineSet
EndChar

StartChar: questiondown
Encoding: 191 191 127
Width: 484
GlyphClass: 2
Flags: W
LayerCount: 2
Fore
SplineSet
319 528 m 0,0,1
 319 510 319 510 317 499.5 c 128,-1,2
 315 489 315 489 304 479 c 128,-1,3
 293 469 293 469 267 469 c 128,-1,4
 241 469 241 469 232 485 c 128,-1,5
 223 501 223 501 223 520.5 c 128,-1,6
 223 540 223 540 224.5 548.5 c 128,-1,7
 226 557 226 557 230 566 c 0,8,9
 240 586 240 586 279.5 586 c 128,-1,10
 319 586 319 586 319 528 c 0,0,1
146 157 m 128,-1,12
 110 125 110 125 110 47.5 c 128,-1,13
 110 -30 110 -30 142 -68.5 c 128,-1,14
 174 -107 174 -107 256 -107 c 0,15,16
 392 -107 392 -107 392 6 c 1,17,-1
 452 6 l 1,18,19
 452 -78 452 -78 405.5 -122 c 128,-1,20
 359 -166 359 -166 249.5 -166 c 128,-1,21
 140 -166 140 -166 91 -113 c 128,-1,22
 42 -60 42 -60 42 43.5 c 128,-1,23
 42 147 42 147 85.5 189 c 128,-1,24
 129 231 129 231 221 245 c 1,25,-1
 237 247 l 1,26,-1
 248 393 l 1,27,-1
 294 393 l 1,28,-1
 301 203 l 1,29,-1
 250 197 l 2,30,11
 182 189 182 189 146 157 c 128,-1,12
EndSplineSet
EndChar

StartChar: Agrave
Encoding: 192 192 128
Width: 653
GlyphClass: 2
Flags: W
LayerCount: 2
Fore
SplineSet
648 50 m 1,0,-1
 648 0 l 1,1,-1
 470 0 l 1,2,-1
 470 50 l 1,3,-1
 529 50 l 1,4,-1
 468 236 l 1,5,-1
 184 236 l 1,6,-1
 123 50 l 1,7,-1
 183 50 l 1,8,-1
 183 0 l 1,9,-1
 5 0 l 1,10,-1
 5 50 l 1,11,-1
 51 50 l 1,12,-1
 278 730 l 1,13,-1
 375 730 l 1,14,-1
 601 50 l 1,15,-1
 648 50 l 1,0,-1
326 667 m 1,16,-1
 204 295 l 1,17,-1
 449 295 l 1,18,-1
 326 667 l 1,16,-1
433 824 m 1,19,-1
 391 782 l 1,20,-1
 219 932 l 1,21,-1
 272 985 l 1,22,-1
 433 824 l 1,19,-1
EndSplineSet
EndChar

StartChar: Aacute
Encoding: 193 193 129
Width: 653
GlyphClass: 2
Flags: W
LayerCount: 2
Fore
SplineSet
648 50 m 1,0,-1
 648 0 l 1,1,-1
 470 0 l 1,2,-1
 470 50 l 1,3,-1
 529 50 l 1,4,-1
 468 236 l 1,5,-1
 184 236 l 1,6,-1
 123 50 l 1,7,-1
 183 50 l 1,8,-1
 183 0 l 1,9,-1
 5 0 l 1,10,-1
 5 50 l 1,11,-1
 51 50 l 1,12,-1
 278 730 l 1,13,-1
 375 730 l 1,14,-1
 601 50 l 1,15,-1
 648 50 l 1,0,-1
326 667 m 1,16,-1
 204 295 l 1,17,-1
 449 295 l 1,18,-1
 326 667 l 1,16,-1
261 782 m 1,19,-1
 219 824 l 1,20,-1
 380 985 l 1,21,-1
 433 932 l 1,22,-1
 261 782 l 1,19,-1
EndSplineSet
EndChar

StartChar: Acircumflex
Encoding: 194 194 130
Width: 653
GlyphClass: 2
Flags: W
LayerCount: 2
Fore
SplineSet
648 50 m 1,0,-1
 648 0 l 1,1,-1
 470 0 l 1,2,-1
 470 50 l 1,3,-1
 529 50 l 1,4,-1
 468 236 l 1,5,-1
 184 236 l 1,6,-1
 123 50 l 1,7,-1
 183 50 l 1,8,-1
 183 0 l 1,9,-1
 5 0 l 1,10,-1
 5 50 l 1,11,-1
 51 50 l 1,12,-1
 278 730 l 1,13,-1
 375 730 l 1,14,-1
 601 50 l 1,15,-1
 648 50 l 1,0,-1
326 667 m 1,16,-1
 204 295 l 1,17,-1
 449 295 l 1,18,-1
 326 667 l 1,16,-1
218 782 m 1,19,-1
 176 824 l 1,20,-1
 312 979 l 1,21,-1
 341 979 l 1,22,-1
 477 824 l 1,23,-1
 435 782 l 1,24,-1
 326 892 l 1,25,-1
 218 782 l 1,19,-1
EndSplineSet
EndChar

StartChar: Atilde
Encoding: 195 195 131
Width: 653
GlyphClass: 2
Flags: W
LayerCount: 2
Fore
SplineSet
648 50 m 1,0,-1
 648 0 l 1,1,-1
 470 0 l 1,2,-1
 470 50 l 1,3,-1
 529 50 l 1,4,-1
 468 236 l 1,5,-1
 184 236 l 1,6,-1
 123 50 l 1,7,-1
 183 50 l 1,8,-1
 183 0 l 1,9,-1
 5 0 l 1,10,-1
 5 50 l 1,11,-1
 51 50 l 1,12,-1
 278 730 l 1,13,-1
 375 730 l 1,14,-1
 601 50 l 1,15,-1
 648 50 l 1,0,-1
326 667 m 1,16,-1
 204 295 l 1,17,-1
 449 295 l 1,18,-1
 326 667 l 1,16,-1
399 835 m 0,19,20
 374 835 374 835 325 853 c 128,-1,21
 276 871 276 871 260 871 c 128,-1,22
 244 871 244 871 234 861 c 128,-1,23
 224 851 224 851 216 827 c 1,24,-1
 165 843 l 1,25,26
 192 936 192 936 253 936 c 0,27,28
 278 936 278 936 328 918 c 128,-1,29
 378 900 378 900 393.5 900 c 128,-1,30
 409 900 409 900 419 910 c 128,-1,31
 429 920 429 920 437 944 c 1,32,-1
 487 928 l 1,33,34
 460 835 460 835 399 835 c 0,19,20
EndSplineSet
EndChar

StartChar: Adieresis
Encoding: 196 196 132
Width: 653
GlyphClass: 2
Flags: W
LayerCount: 2
Fore
SplineSet
648 50 m 1,0,-1
 648 0 l 1,1,-1
 470 0 l 1,2,-1
 470 50 l 1,3,-1
 529 50 l 1,4,-1
 468 236 l 1,5,-1
 184 236 l 1,6,-1
 123 50 l 1,7,-1
 183 50 l 1,8,-1
 183 0 l 1,9,-1
 5 0 l 1,10,-1
 5 50 l 1,11,-1
 51 50 l 1,12,-1
 278 730 l 1,13,-1
 375 730 l 1,14,-1
 601 50 l 1,15,-1
 648 50 l 1,0,-1
326 667 m 1,16,-1
 204 295 l 1,17,-1
 449 295 l 1,18,-1
 326 667 l 1,16,-1
250.5 839 m 128,-1,20
 240 830 240 830 220.5 830 c 128,-1,21
 201 830 201 830 191 839 c 128,-1,22
 181 848 181 848 179 857.5 c 128,-1,23
 177 867 177 867 177 883.5 c 128,-1,24
 177 900 177 900 179 909.5 c 128,-1,25
 181 919 181 919 191 928 c 128,-1,26
 201 937 201 937 225 937 c 128,-1,27
 249 937 249 937 257 923 c 128,-1,28
 265 909 265 909 265 888 c 128,-1,29
 265 867 265 867 263 857.5 c 128,-1,19
 261 848 261 848 250.5 839 c 128,-1,20
460.5 839 m 128,-1,31
 450 830 450 830 430.5 830 c 128,-1,32
 411 830 411 830 401 839 c 128,-1,33
 391 848 391 848 389 857.5 c 128,-1,34
 387 867 387 867 387 883.5 c 128,-1,35
 387 900 387 900 389 909.5 c 128,-1,36
 391 919 391 919 401 928 c 128,-1,37
 411 937 411 937 435 937 c 128,-1,38
 459 937 459 937 467 923 c 128,-1,39
 475 909 475 909 475 888 c 128,-1,40
 475 867 475 867 473 857.5 c 128,-1,30
 471 848 471 848 460.5 839 c 128,-1,31
EndSplineSet
EndChar

StartChar: Aring
Encoding: 197 197 133
Width: 653
GlyphClass: 2
Flags: W
LayerCount: 2
Fore
SplineSet
648 50 m 1,0,-1
 648 0 l 1,1,-1
 470 0 l 1,2,-1
 470 50 l 1,3,-1
 529 50 l 1,4,-1
 468 236 l 1,5,-1
 184 236 l 1,6,-1
 123 50 l 1,7,-1
 183 50 l 1,8,-1
 183 0 l 1,9,-1
 5 0 l 1,10,-1
 5 50 l 1,11,-1
 51 50 l 1,12,-1
 278 730 l 1,13,-1
 375 730 l 1,14,-1
 601 50 l 1,15,-1
 648 50 l 1,0,-1
326 667 m 1,16,-1
 204 295 l 1,17,-1
 449 295 l 1,18,-1
 326 667 l 1,16,-1
325 786 m 128,-1,20
 293 786 293 786 273 794 c 128,-1,21
 253 802 253 802 244.5 818 c 128,-1,22
 236 834 236 834 233.5 848 c 128,-1,23
 231 862 231 862 231 883 c 128,-1,24
 231 904 231 904 233.5 918 c 128,-1,25
 236 932 236 932 244.5 948.5 c 128,-1,26
 253 965 253 965 273 973 c 128,-1,27
 293 981 293 981 325 981 c 128,-1,28
 357 981 357 981 378 973 c 128,-1,29
 399 965 399 965 407.5 948.5 c 128,-1,30
 416 932 416 932 418.5 918 c 128,-1,31
 421 904 421 904 421 883 c 128,-1,32
 421 862 421 862 418.5 848 c 128,-1,33
 416 834 416 834 407.5 818 c 128,-1,34
 399 802 399 802 378 794 c 128,-1,19
 357 786 357 786 325 786 c 128,-1,20
296.5 838 m 128,-1,36
 306 829 306 829 325.5 829 c 128,-1,37
 345 829 345 829 355 838 c 128,-1,38
 365 847 365 847 367 857 c 128,-1,39
 369 867 369 867 369 883.5 c 128,-1,40
 369 900 369 900 367 909.5 c 128,-1,41
 365 919 365 919 355 928.5 c 128,-1,42
 345 938 345 938 321.5 938 c 128,-1,43
 298 938 298 938 290.5 923.5 c 128,-1,44
 283 909 283 909 283 888 c 128,-1,45
 283 867 283 867 285 857 c 128,-1,35
 287 847 287 847 296.5 838 c 128,-1,36
EndSplineSet
EndChar

StartChar: AE
Encoding: 198 198 134
Width: 943
GlyphClass: 2
Flags: W
LayerCount: 2
Fore
SplineSet
5 0 m 1,0,-1
 5 50 l 1,1,-1
 54 50 l 1,2,-1
 318 730 l 1,3,-1
 863 730 l 1,4,-1
 863 572 l 1,5,-1
 807 572 l 1,6,-1
 807 671 l 1,7,-1
 525 671 l 1,8,-1
 525 401 l 1,9,-1
 813 401 l 1,10,-1
 813 341 l 1,11,-1
 525 341 l 1,12,-1
 525 59 l 1,13,-1
 827 59 l 1,14,-1
 827 158 l 1,15,-1
 883 158 l 1,16,-1
 883 0 l 1,17,-1
 393 0 l 1,18,-1
 393 50 l 1,19,-1
 453 50 l 1,20,-1
 453 341 l 1,21,-1
 237 341 l 1,22,-1
 126 50 l 1,23,-1
 183 50 l 1,24,-1
 183 0 l 1,25,-1
 5 0 l 1,0,-1
453 671 m 1,26,-1
 364 671 l 1,27,-1
 260 401 l 1,28,-1
 453 401 l 1,29,-1
 453 671 l 1,26,-1
EndSplineSet
EndChar

StartChar: Ccedilla
Encoding: 199 199 135
Width: 634
GlyphClass: 2
Flags: W
LayerCount: 2
Fore
SplineSet
523 730 m 1,0,-1
 577 730 l 1,1,-1
 577 514 l 1,2,-1
 523 514 l 1,3,4
 517 597 517 597 476.5 640.5 c 128,-1,5
 436 684 436 684 341 684 c 0,6,7
 243 684 243 684 198 630 c 0,8,9
 159 584 159 584 150 474 c 0,10,11
 147 431 147 431 147 363 c 128,-1,12
 147 295 147 295 149.5 255 c 128,-1,13
 152 215 152 215 163 169 c 128,-1,14
 174 123 174 123 195 100 c 0,15,16
 244 46 244 46 343 46 c 128,-1,17
 442 46 442 46 478.5 90 c 128,-1,18
 515 134 515 134 518 212 c 1,19,-1
 577 209 l 1,20,21
 573 155 573 155 562 117.5 c 128,-1,22
 551 80 551 80 527 48 c 0,23,24
 479 -14 479 -14 351 -14 c 0,25,26
 225 -14 225 -14 168 32 c 0,27,28
 138 57 138 57 119 86.5 c 128,-1,29
 100 116 100 116 90 163 c 0,30,31
 75 240 75 240 75 351.5 c 128,-1,32
 75 463 75 463 84.5 526 c 128,-1,33
 94 589 94 589 121.5 642 c 128,-1,34
 149 695 149 695 203 719.5 c 128,-1,35
 257 744 257 744 341 744 c 0,36,37
 472 744 472 744 523 656 c 1,38,-1
 523 730 l 1,0,-1
215 -146 m 1,39,-1
 265 -146 l 1,40,41
 265 -168 265 -168 275.5 -179.5 c 128,-1,42
 286 -191 286 -191 314 -191 c 128,-1,43
 342 -191 342 -191 353 -179.5 c 128,-1,44
 364 -168 364 -168 364 -145 c 0,45,46
 364 -105 364 -105 312 -96 c 2,47,-1
 259 -86 l 1,48,-1
 259 -50 l 1,49,-1
 318 -50 l 2,50,51
 363 -50 363 -50 388.5 -71 c 128,-1,52
 414 -92 414 -92 414 -142.5 c 128,-1,53
 414 -193 414 -193 392.5 -217 c 128,-1,54
 371 -241 371 -241 314.5 -241 c 128,-1,55
 258 -241 258 -241 236.5 -217 c 128,-1,56
 215 -193 215 -193 215 -146 c 1,39,-1
EndSplineSet
EndChar

StartChar: Egrave
Encoding: 200 200 136
Width: 620
GlyphClass: 2
Flags: W
LayerCount: 2
Fore
SplineSet
70 0 m 1,0,-1
 70 50 l 1,1,-1
 130 50 l 1,2,-1
 130 680 l 1,3,-1
 70 680 l 1,4,-1
 70 730 l 1,5,-1
 540 730 l 1,6,-1
 540 572 l 1,7,-1
 484 572 l 1,8,-1
 484 671 l 1,9,-1
 202 671 l 1,10,-1
 202 401 l 1,11,-1
 490 401 l 1,12,-1
 490 341 l 1,13,-1
 202 341 l 1,14,-1
 202 59 l 1,15,-1
 504 59 l 1,16,-1
 504 158 l 1,17,-1
 560 158 l 1,18,-1
 560 0 l 1,19,-1
 70 0 l 1,0,-1
409 824 m 1,20,-1
 367 782 l 1,21,-1
 195 932 l 1,22,-1
 248 985 l 1,23,-1
 409 824 l 1,20,-1
EndSplineSet
EndChar

StartChar: Eacute
Encoding: 201 201 137
Width: 620
GlyphClass: 2
Flags: W
LayerCount: 2
Fore
SplineSet
70 0 m 1,0,-1
 70 50 l 1,1,-1
 130 50 l 1,2,-1
 130 680 l 1,3,-1
 70 680 l 1,4,-1
 70 730 l 1,5,-1
 540 730 l 1,6,-1
 540 572 l 1,7,-1
 484 572 l 1,8,-1
 484 671 l 1,9,-1
 202 671 l 1,10,-1
 202 401 l 1,11,-1
 490 401 l 1,12,-1
 490 341 l 1,13,-1
 202 341 l 1,14,-1
 202 59 l 1,15,-1
 504 59 l 1,16,-1
 504 158 l 1,17,-1
 560 158 l 1,18,-1
 560 0 l 1,19,-1
 70 0 l 1,0,-1
237 782 m 1,20,-1
 195 824 l 1,21,-1
 356 985 l 1,22,-1
 409 932 l 1,23,-1
 237 782 l 1,20,-1
EndSplineSet
EndChar

StartChar: Ecircumflex
Encoding: 202 202 138
Width: 620
GlyphClass: 2
Flags: W
LayerCount: 2
Fore
SplineSet
70 0 m 1,0,-1
 70 50 l 1,1,-1
 130 50 l 1,2,-1
 130 680 l 1,3,-1
 70 680 l 1,4,-1
 70 730 l 1,5,-1
 540 730 l 1,6,-1
 540 572 l 1,7,-1
 484 572 l 1,8,-1
 484 671 l 1,9,-1
 202 671 l 1,10,-1
 202 401 l 1,11,-1
 490 401 l 1,12,-1
 490 341 l 1,13,-1
 202 341 l 1,14,-1
 202 59 l 1,15,-1
 504 59 l 1,16,-1
 504 158 l 1,17,-1
 560 158 l 1,18,-1
 560 0 l 1,19,-1
 70 0 l 1,0,-1
194 782 m 1,20,-1
 152 824 l 1,21,-1
 288 979 l 1,22,-1
 317 979 l 1,23,-1
 453 824 l 1,24,-1
 411 782 l 1,25,-1
 302 892 l 1,26,-1
 194 782 l 1,20,-1
EndSplineSet
EndChar

StartChar: Edieresis
Encoding: 203 203 139
Width: 620
GlyphClass: 2
Flags: W
LayerCount: 2
Fore
SplineSet
70 0 m 1,0,-1
 70 50 l 1,1,-1
 130 50 l 1,2,-1
 130 680 l 1,3,-1
 70 680 l 1,4,-1
 70 730 l 1,5,-1
 540 730 l 1,6,-1
 540 572 l 1,7,-1
 484 572 l 1,8,-1
 484 671 l 1,9,-1
 202 671 l 1,10,-1
 202 401 l 1,11,-1
 490 401 l 1,12,-1
 490 341 l 1,13,-1
 202 341 l 1,14,-1
 202 59 l 1,15,-1
 504 59 l 1,16,-1
 504 158 l 1,17,-1
 560 158 l 1,18,-1
 560 0 l 1,19,-1
 70 0 l 1,0,-1
226.5 839 m 128,-1,21
 216 830 216 830 196.5 830 c 128,-1,22
 177 830 177 830 167 839 c 128,-1,23
 157 848 157 848 155 857.5 c 128,-1,24
 153 867 153 867 153 883.5 c 128,-1,25
 153 900 153 900 155 909.5 c 128,-1,26
 157 919 157 919 167 928 c 128,-1,27
 177 937 177 937 201 937 c 128,-1,28
 225 937 225 937 233 923 c 128,-1,29
 241 909 241 909 241 888 c 128,-1,30
 241 867 241 867 239 857.5 c 128,-1,20
 237 848 237 848 226.5 839 c 128,-1,21
436.5 839 m 128,-1,32
 426 830 426 830 406.5 830 c 128,-1,33
 387 830 387 830 377 839 c 128,-1,34
 367 848 367 848 365 857.5 c 128,-1,35
 363 867 363 867 363 883.5 c 128,-1,36
 363 900 363 900 365 909.5 c 128,-1,37
 367 919 367 919 377 928 c 128,-1,38
 387 937 387 937 411 937 c 128,-1,39
 435 937 435 937 443 923 c 128,-1,40
 451 909 451 909 451 888 c 128,-1,41
 451 867 451 867 449 857.5 c 128,-1,31
 447 848 447 848 436.5 839 c 128,-1,32
EndSplineSet
EndChar

StartChar: Igrave
Encoding: 204 204 140
Width: 352
GlyphClass: 2
Flags: W
LayerCount: 2
Fore
SplineSet
70 680 m 1,0,-1
 70 730 l 1,1,-1
 282 730 l 1,2,-1
 282 680 l 1,3,-1
 212 680 l 1,4,-1
 212 50 l 1,5,-1
 282 50 l 1,6,-1
 282 0 l 1,7,-1
 70 0 l 1,8,-1
 70 50 l 1,9,-1
 140 50 l 1,10,-1
 140 680 l 1,11,-1
 70 680 l 1,0,-1
283 824 m 1,12,-1
 241 782 l 1,13,-1
 69 932 l 1,14,-1
 122 985 l 1,15,-1
 283 824 l 1,12,-1
EndSplineSet
EndChar

StartChar: Iacute
Encoding: 205 205 141
Width: 352
GlyphClass: 2
Flags: W
LayerCount: 2
Fore
SplineSet
70 680 m 1,0,-1
 70 730 l 1,1,-1
 282 730 l 1,2,-1
 282 680 l 1,3,-1
 212 680 l 1,4,-1
 212 50 l 1,5,-1
 282 50 l 1,6,-1
 282 0 l 1,7,-1
 70 0 l 1,8,-1
 70 50 l 1,9,-1
 140 50 l 1,10,-1
 140 680 l 1,11,-1
 70 680 l 1,0,-1
131 782 m 1,12,-1
 89 824 l 1,13,-1
 250 985 l 1,14,-1
 303 932 l 1,15,-1
 131 782 l 1,12,-1
EndSplineSet
EndChar

StartChar: Icircumflex
Encoding: 206 206 142
Width: 352
GlyphClass: 2
Flags: W
LayerCount: 2
Fore
SplineSet
70 680 m 1,0,-1
 70 730 l 1,1,-1
 282 730 l 1,2,-1
 282 680 l 1,3,-1
 212 680 l 1,4,-1
 212 50 l 1,5,-1
 282 50 l 1,6,-1
 282 0 l 1,7,-1
 70 0 l 1,8,-1
 70 50 l 1,9,-1
 140 50 l 1,10,-1
 140 680 l 1,11,-1
 70 680 l 1,0,-1
68 782 m 1,12,-1
 26 824 l 1,13,-1
 162 979 l 1,14,-1
 191 979 l 1,15,-1
 327 824 l 1,16,-1
 285 782 l 1,17,-1
 176 892 l 1,18,-1
 68 782 l 1,12,-1
EndSplineSet
EndChar

StartChar: Idieresis
Encoding: 207 207 143
Width: 352
GlyphClass: 2
Flags: W
LayerCount: 2
Fore
SplineSet
70 680 m 1,0,-1
 70 730 l 1,1,-1
 282 730 l 1,2,-1
 282 680 l 1,3,-1
 212 680 l 1,4,-1
 212 50 l 1,5,-1
 282 50 l 1,6,-1
 282 0 l 1,7,-1
 70 0 l 1,8,-1
 70 50 l 1,9,-1
 140 50 l 1,10,-1
 140 680 l 1,11,-1
 70 680 l 1,0,-1
310.5 839 m 128,-1,13
 300 830 300 830 280.5 830 c 128,-1,14
 261 830 261 830 251 839 c 128,-1,15
 241 848 241 848 239 857.5 c 128,-1,16
 237 867 237 867 237 883.5 c 128,-1,17
 237 900 237 900 239 909.5 c 128,-1,18
 241 919 241 919 251 928 c 128,-1,19
 261 937 261 937 285 937 c 128,-1,20
 309 937 309 937 317 923 c 128,-1,21
 325 909 325 909 325 888 c 128,-1,22
 325 867 325 867 323 857.5 c 128,-1,12
 321 848 321 848 310.5 839 c 128,-1,13
100.5 839 m 128,-1,24
 90 830 90 830 70.5 830 c 128,-1,25
 51 830 51 830 41 839 c 128,-1,26
 31 848 31 848 29 857.5 c 128,-1,27
 27 867 27 867 27 883.5 c 128,-1,28
 27 900 27 900 29 909.5 c 128,-1,29
 31 919 31 919 41 928 c 128,-1,30
 51 937 51 937 75 937 c 128,-1,31
 99 937 99 937 107 923 c 128,-1,32
 115 909 115 909 115 888 c 128,-1,33
 115 867 115 867 113 857.5 c 128,-1,23
 111 848 111 848 100.5 839 c 128,-1,24
EndSplineSet
EndChar

StartChar: Eth
Encoding: 208 208 144
Width: 688
GlyphClass: 2
Flags: W
LayerCount: 2
Fore
SplineSet
70 674 m 1,0,-1
 70 730 l 1,1,-1
 345 730 l 2,2,3
 474 730 474 730 532 685 c 0,4,5
 563 661 563 661 582 632.5 c 128,-1,6
 601 604 601 604 611 560 c 0,7,8
 628 484 628 484 628 386.5 c 128,-1,9
 628 289 628 289 623 238.5 c 128,-1,10
 618 188 618 188 601.5 139 c 128,-1,11
 585 90 585 90 554 62 c 0,12,13
 487 0 487 0 345 0 c 2,14,-1
 70 0 l 1,15,-1
 70 56 l 1,16,-1
 130 56 l 1,17,-1
 130 335 l 1,18,-1
 70 335 l 1,19,-1
 70 395 l 1,20,-1
 130 395 l 1,21,-1
 130 674 l 1,22,-1
 70 674 l 1,0,-1
345 668 m 2,23,-1
 202 668 l 1,24,-1
 202 395 l 1,25,-1
 422 395 l 1,26,-1
 422 335 l 1,27,-1
 202 335 l 1,28,-1
 202 62 l 1,29,-1
 345 62 l 2,30,31
 414 62 414 62 457.5 81.5 c 128,-1,32
 501 101 501 101 522 144.5 c 128,-1,33
 543 188 543 188 549.5 236.5 c 128,-1,34
 556 285 556 285 556 365 c 128,-1,35
 556 445 556 445 549.5 493.5 c 128,-1,36
 543 542 543 542 522 585.5 c 128,-1,37
 501 629 501 629 457.5 648.5 c 128,-1,38
 414 668 414 668 345 668 c 2,23,-1
EndSplineSet
EndChar

StartChar: Ntilde
Encoding: 209 209 145
Width: 770
GlyphClass: 2
Flags: W
LayerCount: 2
Fore
SplineSet
518 680 m 1,0,-1
 518 730 l 1,1,-1
 710 730 l 1,2,-1
 710 680 l 1,3,-1
 650 680 l 1,4,-1
 650 0 l 1,5,-1
 570 0 l 1,6,-1
 202 610 l 1,7,-1
 202 50 l 1,8,-1
 262 50 l 1,9,-1
 262 0 l 1,10,-1
 70 0 l 1,11,-1
 70 50 l 1,12,-1
 130 50 l 1,13,-1
 130 680 l 1,14,-1
 70 680 l 1,15,-1
 70 730 l 1,16,-1
 210 730 l 1,17,-1
 578 119 l 1,18,-1
 578 680 l 1,19,-1
 518 680 l 1,0,-1
468 835 m 0,20,21
 442 835 442 835 393 853 c 128,-1,22
 344 871 344 871 328.5 871 c 128,-1,23
 313 871 313 871 303 861 c 128,-1,24
 293 851 293 851 285 827 c 1,25,-1
 234 843 l 1,26,27
 261 936 261 936 322 936 c 0,28,29
 348 936 348 936 397 918 c 128,-1,30
 446 900 446 900 462 900 c 128,-1,31
 478 900 478 900 488 910 c 128,-1,32
 498 920 498 920 506 944 c 1,33,-1
 556 928 l 1,34,35
 529 835 529 835 468 835 c 0,20,21
EndSplineSet
EndChar

StartChar: Ograve
Encoding: 210 210 146
Width: 705
GlyphClass: 2
Flags: W
LayerCount: 2
Fore
SplineSet
352 -14 m 128,-1,1
 278 -14 278 -14 227 3.5 c 128,-1,2
 176 21 176 21 146.5 50 c 128,-1,3
 117 79 117 79 100.5 130.5 c 128,-1,4
 84 182 84 182 79.5 233.5 c 128,-1,5
 75 285 75 285 75 364.5 c 128,-1,6
 75 444 75 444 79.5 495.5 c 128,-1,7
 84 547 84 547 100.5 598.5 c 128,-1,8
 117 650 117 650 146.5 679 c 128,-1,9
 176 708 176 708 227 726 c 128,-1,10
 278 744 278 744 352 744 c 128,-1,11
 426 744 426 744 477 726 c 128,-1,12
 528 708 528 708 558 679 c 128,-1,13
 588 650 588 650 604 599 c 128,-1,14
 620 548 620 548 625 496 c 128,-1,15
 630 444 630 444 630 365 c 128,-1,16
 630 286 630 286 625 233.5 c 128,-1,17
 620 181 620 181 604 130 c 128,-1,18
 588 79 588 79 558 50 c 128,-1,19
 528 21 528 21 477 3.5 c 128,-1,0
 426 -14 426 -14 352 -14 c 128,-1,1
352 46 m 128,-1,21
 406 46 406 46 444 61 c 128,-1,22
 482 76 482 76 504.5 100.5 c 128,-1,23
 527 125 527 125 539 168.5 c 128,-1,24
 551 212 551 212 554.5 255.5 c 128,-1,25
 558 299 558 299 558 365 c 128,-1,26
 558 431 558 431 554.5 474.5 c 128,-1,27
 551 518 551 518 539 561.5 c 128,-1,28
 527 605 527 605 504.5 629.5 c 128,-1,29
 482 654 482 654 444 669 c 128,-1,30
 406 684 406 684 352 684 c 128,-1,31
 298 684 298 684 260 669 c 128,-1,32
 222 654 222 654 200 629.5 c 128,-1,33
 178 605 178 605 166 561.5 c 128,-1,34
 154 518 154 518 150.5 474.5 c 128,-1,35
 147 431 147 431 147 365 c 128,-1,36
 147 299 147 299 150.5 255.5 c 128,-1,37
 154 212 154 212 166 168.5 c 128,-1,38
 178 125 178 125 200 100.5 c 128,-1,39
 222 76 222 76 260 61 c 128,-1,20
 298 46 298 46 352 46 c 128,-1,21
459 824 m 1,40,-1
 417 782 l 1,41,-1
 245 932 l 1,42,-1
 298 985 l 1,43,-1
 459 824 l 1,40,-1
EndSplineSet
EndChar

StartChar: Oacute
Encoding: 211 211 147
Width: 705
GlyphClass: 2
Flags: W
LayerCount: 2
Fore
SplineSet
352 -14 m 128,-1,1
 278 -14 278 -14 227 3.5 c 128,-1,2
 176 21 176 21 146.5 50 c 128,-1,3
 117 79 117 79 100.5 130.5 c 128,-1,4
 84 182 84 182 79.5 233.5 c 128,-1,5
 75 285 75 285 75 364.5 c 128,-1,6
 75 444 75 444 79.5 495.5 c 128,-1,7
 84 547 84 547 100.5 598.5 c 128,-1,8
 117 650 117 650 146.5 679 c 128,-1,9
 176 708 176 708 227 726 c 128,-1,10
 278 744 278 744 352 744 c 128,-1,11
 426 744 426 744 477 726 c 128,-1,12
 528 708 528 708 558 679 c 128,-1,13
 588 650 588 650 604 599 c 128,-1,14
 620 548 620 548 625 496 c 128,-1,15
 630 444 630 444 630 365 c 128,-1,16
 630 286 630 286 625 233.5 c 128,-1,17
 620 181 620 181 604 130 c 128,-1,18
 588 79 588 79 558 50 c 128,-1,19
 528 21 528 21 477 3.5 c 128,-1,0
 426 -14 426 -14 352 -14 c 128,-1,1
352 46 m 128,-1,21
 406 46 406 46 444 61 c 128,-1,22
 482 76 482 76 504.5 100.5 c 128,-1,23
 527 125 527 125 539 168.5 c 128,-1,24
 551 212 551 212 554.5 255.5 c 128,-1,25
 558 299 558 299 558 365 c 128,-1,26
 558 431 558 431 554.5 474.5 c 128,-1,27
 551 518 551 518 539 561.5 c 128,-1,28
 527 605 527 605 504.5 629.5 c 128,-1,29
 482 654 482 654 444 669 c 128,-1,30
 406 684 406 684 352 684 c 128,-1,31
 298 684 298 684 260 669 c 128,-1,32
 222 654 222 654 200 629.5 c 128,-1,33
 178 605 178 605 166 561.5 c 128,-1,34
 154 518 154 518 150.5 474.5 c 128,-1,35
 147 431 147 431 147 365 c 128,-1,36
 147 299 147 299 150.5 255.5 c 128,-1,37
 154 212 154 212 166 168.5 c 128,-1,38
 178 125 178 125 200 100.5 c 128,-1,39
 222 76 222 76 260 61 c 128,-1,20
 298 46 298 46 352 46 c 128,-1,21
287 782 m 1,40,-1
 245 824 l 1,41,-1
 406 985 l 1,42,-1
 459 932 l 1,43,-1
 287 782 l 1,40,-1
EndSplineSet
EndChar

StartChar: Ocircumflex
Encoding: 212 212 148
Width: 705
GlyphClass: 2
Flags: W
LayerCount: 2
Fore
SplineSet
352 -14 m 128,-1,1
 278 -14 278 -14 227 3.5 c 128,-1,2
 176 21 176 21 146.5 50 c 128,-1,3
 117 79 117 79 100.5 130.5 c 128,-1,4
 84 182 84 182 79.5 233.5 c 128,-1,5
 75 285 75 285 75 364.5 c 128,-1,6
 75 444 75 444 79.5 495.5 c 128,-1,7
 84 547 84 547 100.5 598.5 c 128,-1,8
 117 650 117 650 146.5 679 c 128,-1,9
 176 708 176 708 227 726 c 128,-1,10
 278 744 278 744 352 744 c 128,-1,11
 426 744 426 744 477 726 c 128,-1,12
 528 708 528 708 558 679 c 128,-1,13
 588 650 588 650 604 599 c 128,-1,14
 620 548 620 548 625 496 c 128,-1,15
 630 444 630 444 630 365 c 128,-1,16
 630 286 630 286 625 233.5 c 128,-1,17
 620 181 620 181 604 130 c 128,-1,18
 588 79 588 79 558 50 c 128,-1,19
 528 21 528 21 477 3.5 c 128,-1,0
 426 -14 426 -14 352 -14 c 128,-1,1
352 46 m 128,-1,21
 406 46 406 46 444 61 c 128,-1,22
 482 76 482 76 504.5 100.5 c 128,-1,23
 527 125 527 125 539 168.5 c 128,-1,24
 551 212 551 212 554.5 255.5 c 128,-1,25
 558 299 558 299 558 365 c 128,-1,26
 558 431 558 431 554.5 474.5 c 128,-1,27
 551 518 551 518 539 561.5 c 128,-1,28
 527 605 527 605 504.5 629.5 c 128,-1,29
 482 654 482 654 444 669 c 128,-1,30
 406 684 406 684 352 684 c 128,-1,31
 298 684 298 684 260 669 c 128,-1,32
 222 654 222 654 200 629.5 c 128,-1,33
 178 605 178 605 166 561.5 c 128,-1,34
 154 518 154 518 150.5 474.5 c 128,-1,35
 147 431 147 431 147 365 c 128,-1,36
 147 299 147 299 150.5 255.5 c 128,-1,37
 154 212 154 212 166 168.5 c 128,-1,38
 178 125 178 125 200 100.5 c 128,-1,39
 222 76 222 76 260 61 c 128,-1,20
 298 46 298 46 352 46 c 128,-1,21
244 782 m 1,40,-1
 202 824 l 1,41,-1
 338 979 l 1,42,-1
 367 979 l 1,43,-1
 503 824 l 1,44,-1
 461 782 l 1,45,-1
 352 892 l 1,46,-1
 244 782 l 1,40,-1
EndSplineSet
EndChar

StartChar: Otilde
Encoding: 213 213 149
Width: 705
GlyphClass: 2
Flags: W
LayerCount: 2
Fore
SplineSet
352 -14 m 128,-1,1
 278 -14 278 -14 227 3.5 c 128,-1,2
 176 21 176 21 146.5 50 c 128,-1,3
 117 79 117 79 100.5 130.5 c 128,-1,4
 84 182 84 182 79.5 233.5 c 128,-1,5
 75 285 75 285 75 364.5 c 128,-1,6
 75 444 75 444 79.5 495.5 c 128,-1,7
 84 547 84 547 100.5 598.5 c 128,-1,8
 117 650 117 650 146.5 679 c 128,-1,9
 176 708 176 708 227 726 c 128,-1,10
 278 744 278 744 352 744 c 128,-1,11
 426 744 426 744 477 726 c 128,-1,12
 528 708 528 708 558 679 c 128,-1,13
 588 650 588 650 604 599 c 128,-1,14
 620 548 620 548 625 496 c 128,-1,15
 630 444 630 444 630 365 c 128,-1,16
 630 286 630 286 625 233.5 c 128,-1,17
 620 181 620 181 604 130 c 128,-1,18
 588 79 588 79 558 50 c 128,-1,19
 528 21 528 21 477 3.5 c 128,-1,0
 426 -14 426 -14 352 -14 c 128,-1,1
352 46 m 128,-1,21
 406 46 406 46 444 61 c 128,-1,22
 482 76 482 76 504.5 100.5 c 128,-1,23
 527 125 527 125 539 168.5 c 128,-1,24
 551 212 551 212 554.5 255.5 c 128,-1,25
 558 299 558 299 558 365 c 128,-1,26
 558 431 558 431 554.5 474.5 c 128,-1,27
 551 518 551 518 539 561.5 c 128,-1,28
 527 605 527 605 504.5 629.5 c 128,-1,29
 482 654 482 654 444 669 c 128,-1,30
 406 684 406 684 352 684 c 128,-1,31
 298 684 298 684 260 669 c 128,-1,32
 222 654 222 654 200 629.5 c 128,-1,33
 178 605 178 605 166 561.5 c 128,-1,34
 154 518 154 518 150.5 474.5 c 128,-1,35
 147 431 147 431 147 365 c 128,-1,36
 147 299 147 299 150.5 255.5 c 128,-1,37
 154 212 154 212 166 168.5 c 128,-1,38
 178 125 178 125 200 100.5 c 128,-1,39
 222 76 222 76 260 61 c 128,-1,20
 298 46 298 46 352 46 c 128,-1,21
425 835 m 0,40,41
 400 835 400 835 351 853 c 128,-1,42
 302 871 302 871 286 871 c 128,-1,43
 270 871 270 871 260 861 c 128,-1,44
 250 851 250 851 242 827 c 1,45,-1
 191 843 l 1,46,47
 218 936 218 936 279 936 c 0,48,49
 304 936 304 936 353.5 918 c 128,-1,50
 403 900 403 900 419 900 c 128,-1,51
 435 900 435 900 445 910 c 128,-1,52
 455 920 455 920 463 944 c 1,53,-1
 513 928 l 1,54,55
 486 835 486 835 425 835 c 0,40,41
EndSplineSet
EndChar

StartChar: Odieresis
Encoding: 214 214 150
Width: 705
GlyphClass: 2
Flags: W
LayerCount: 2
Fore
SplineSet
352 -14 m 128,-1,1
 278 -14 278 -14 227 3.5 c 128,-1,2
 176 21 176 21 146.5 50 c 128,-1,3
 117 79 117 79 100.5 130.5 c 128,-1,4
 84 182 84 182 79.5 233.5 c 128,-1,5
 75 285 75 285 75 364.5 c 128,-1,6
 75 444 75 444 79.5 495.5 c 128,-1,7
 84 547 84 547 100.5 598.5 c 128,-1,8
 117 650 117 650 146.5 679 c 128,-1,9
 176 708 176 708 227 726 c 128,-1,10
 278 744 278 744 352 744 c 128,-1,11
 426 744 426 744 477 726 c 128,-1,12
 528 708 528 708 558 679 c 128,-1,13
 588 650 588 650 604 599 c 128,-1,14
 620 548 620 548 625 496 c 128,-1,15
 630 444 630 444 630 365 c 128,-1,16
 630 286 630 286 625 233.5 c 128,-1,17
 620 181 620 181 604 130 c 128,-1,18
 588 79 588 79 558 50 c 128,-1,19
 528 21 528 21 477 3.5 c 128,-1,0
 426 -14 426 -14 352 -14 c 128,-1,1
352 46 m 128,-1,21
 406 46 406 46 444 61 c 128,-1,22
 482 76 482 76 504.5 100.5 c 128,-1,23
 527 125 527 125 539 168.5 c 128,-1,24
 551 212 551 212 554.5 255.5 c 128,-1,25
 558 299 558 299 558 365 c 128,-1,26
 558 431 558 431 554.5 474.5 c 128,-1,27
 551 518 551 518 539 561.5 c 128,-1,28
 527 605 527 605 504.5 629.5 c 128,-1,29
 482 654 482 654 444 669 c 128,-1,30
 406 684 406 684 352 684 c 128,-1,31
 298 684 298 684 260 669 c 128,-1,32
 222 654 222 654 200 629.5 c 128,-1,33
 178 605 178 605 166 561.5 c 128,-1,34
 154 518 154 518 150.5 474.5 c 128,-1,35
 147 431 147 431 147 365 c 128,-1,36
 147 299 147 299 150.5 255.5 c 128,-1,37
 154 212 154 212 166 168.5 c 128,-1,38
 178 125 178 125 200 100.5 c 128,-1,39
 222 76 222 76 260 61 c 128,-1,20
 298 46 298 46 352 46 c 128,-1,21
276.5 839 m 128,-1,41
 266 830 266 830 246.5 830 c 128,-1,42
 227 830 227 830 217 839 c 128,-1,43
 207 848 207 848 205 857.5 c 128,-1,44
 203 867 203 867 203 883.5 c 128,-1,45
 203 900 203 900 205 909.5 c 128,-1,46
 207 919 207 919 217 928 c 128,-1,47
 227 937 227 937 251 937 c 128,-1,48
 275 937 275 937 283 923 c 128,-1,49
 291 909 291 909 291 888 c 128,-1,50
 291 867 291 867 289 857.5 c 128,-1,40
 287 848 287 848 276.5 839 c 128,-1,41
486.5 839 m 128,-1,52
 476 830 476 830 456.5 830 c 128,-1,53
 437 830 437 830 427 839 c 128,-1,54
 417 848 417 848 415 857.5 c 128,-1,55
 413 867 413 867 413 883.5 c 128,-1,56
 413 900 413 900 415 909.5 c 128,-1,57
 417 919 417 919 427 928 c 128,-1,58
 437 937 437 937 461 937 c 128,-1,59
 485 937 485 937 493 923 c 128,-1,60
 501 909 501 909 501 888 c 128,-1,61
 501 867 501 867 499 857.5 c 128,-1,51
 497 848 497 848 486.5 839 c 128,-1,52
EndSplineSet
EndChar

StartChar: multiply
Encoding: 215 215 151
Width: 580
GlyphClass: 2
Flags: W
LayerCount: 2
Fore
SplineSet
155 141 m 1,0,-1
 113 183 l 1,1,-1
 248 318 l 1,2,-1
 113 453 l 1,3,-1
 155 495 l 1,4,-1
 290 360 l 1,5,-1
 425 495 l 1,6,-1
 467 453 l 1,7,-1
 332 318 l 1,8,-1
 467 183 l 1,9,-1
 425 141 l 1,10,-1
 290 276 l 1,11,-1
 155 141 l 1,0,-1
EndSplineSet
EndChar

StartChar: Oslash
Encoding: 216 216 152
Width: 675
GlyphClass: 2
Flags: W
LayerCount: 2
Fore
SplineSet
65.5 229 m 128,-1,1
 60 282 60 282 60 363 c 128,-1,2
 60 444 60 444 64.5 495.5 c 128,-1,3
 69 547 69 547 85.5 598.5 c 128,-1,4
 102 650 102 650 132 679 c 0,5,6
 198 744 198 744 337 744 c 0,7,8
 360 744 360 744 398 740 c 1,9,-1
 418 827 l 1,10,-1
 471 827 l 1,11,-1
 448 731 l 1,12,13
 532 708 532 708 571 642 c 0,14,15
 605 585 605 585 612 474 c 0,16,17
 615 429 615 429 615 357.5 c 128,-1,18
 615 286 615 286 610 233.5 c 128,-1,19
 605 181 605 181 589 130 c 128,-1,20
 573 79 573 79 543 50 c 0,21,22
 477 -14 477 -14 337 -14 c 0,23,24
 313 -14 313 -14 275 -10 c 1,25,-1
 256 -94 l 1,26,-1
 204 -94 l 1,27,-1
 225 -1 l 1,28,29
 171 13 171 13 137.5 43.5 c 128,-1,30
 104 74 104 74 87.5 125 c 128,-1,0
 71 176 71 176 65.5 229 c 128,-1,1
289 49 m 1,31,32
 312 46 312 46 351.5 46 c 128,-1,33
 391 46 391 46 429 61 c 128,-1,34
 467 76 467 76 489.5 100.5 c 128,-1,35
 512 125 512 125 524 168 c 0,36,37
 543 237 543 237 543 367.5 c 128,-1,38
 543 498 543 498 522 569.5 c 128,-1,39
 501 641 501 641 434 668 c 1,40,-1
 289 49 l 1,31,32
153 160.5 m 128,-1,42
 174 89 174 89 240 62 c 1,43,-1
 384 681 l 1,44,45
 362 684 362 684 322.5 684 c 128,-1,46
 283 684 283 684 245 669 c 128,-1,47
 207 654 207 654 185 629.5 c 128,-1,48
 163 605 163 605 151 562 c 0,49,50
 132 493 132 493 132 362.5 c 128,-1,41
 132 232 132 232 153 160.5 c 128,-1,42
EndSplineSet
EndChar

StartChar: Ugrave
Encoding: 217 217 153
Width: 750
GlyphClass: 2
Flags: W
LayerCount: 2
Fore
SplineSet
55 680 m 1,0,-1
 55 730 l 1,1,-1
 247 730 l 1,2,-1
 247 680 l 1,3,-1
 187 680 l 1,4,-1
 187 241 l 2,5,6
 187 116 187 116 246 78 c 0,7,8
 274 60 274 60 303.5 53.5 c 128,-1,9
 333 47 333 47 374.5 47 c 128,-1,10
 416 47 416 47 445.5 53.5 c 128,-1,11
 475 60 475 60 504 78 c 0,12,13
 563 116 563 116 563 241 c 2,14,-1
 563 680 l 1,15,-1
 503 680 l 1,16,-1
 503 730 l 1,17,-1
 695 730 l 1,18,-1
 695 680 l 1,19,-1
 635 680 l 1,20,-1
 635 241 l 2,21,22
 635 113 635 113 582 52 c 1,23,24
 560 25 560 25 523.5 9.5 c 128,-1,25
 487 -6 487 -6 453.5 -10 c 128,-1,26
 420 -14 420 -14 374 -14 c 128,-1,27
 328 -14 328 -14 295 -10 c 128,-1,28
 262 -6 262 -6 226 9.5 c 128,-1,29
 190 25 190 25 168 52 c 1,30,31
 115 113 115 113 115 241 c 2,32,-1
 115 680 l 1,33,-1
 55 680 l 1,0,-1
452 824 m 1,34,-1
 410 782 l 1,35,-1
 238 932 l 1,36,-1
 291 985 l 1,37,-1
 452 824 l 1,34,-1
EndSplineSet
EndChar

StartChar: Uacute
Encoding: 218 218 154
Width: 750
GlyphClass: 2
Flags: W
LayerCount: 2
Fore
SplineSet
55 680 m 1,0,-1
 55 730 l 1,1,-1
 247 730 l 1,2,-1
 247 680 l 1,3,-1
 187 680 l 1,4,-1
 187 241 l 2,5,6
 187 116 187 116 246 78 c 0,7,8
 274 60 274 60 303.5 53.5 c 128,-1,9
 333 47 333 47 374.5 47 c 128,-1,10
 416 47 416 47 445.5 53.5 c 128,-1,11
 475 60 475 60 504 78 c 0,12,13
 563 116 563 116 563 241 c 2,14,-1
 563 680 l 1,15,-1
 503 680 l 1,16,-1
 503 730 l 1,17,-1
 695 730 l 1,18,-1
 695 680 l 1,19,-1
 635 680 l 1,20,-1
 635 241 l 2,21,22
 635 113 635 113 582 52 c 1,23,24
 560 25 560 25 523.5 9.5 c 128,-1,25
 487 -6 487 -6 453.5 -10 c 128,-1,26
 420 -14 420 -14 374 -14 c 128,-1,27
 328 -14 328 -14 295 -10 c 128,-1,28
 262 -6 262 -6 226 9.5 c 128,-1,29
 190 25 190 25 168 52 c 1,30,31
 115 113 115 113 115 241 c 2,32,-1
 115 680 l 1,33,-1
 55 680 l 1,0,-1
360 782 m 1,34,-1
 318 824 l 1,35,-1
 479 985 l 1,36,-1
 532 932 l 1,37,-1
 360 782 l 1,34,-1
EndSplineSet
EndChar

StartChar: Ucircumflex
Encoding: 219 219 155
Width: 750
GlyphClass: 2
Flags: W
LayerCount: 2
Fore
SplineSet
55 680 m 1,0,-1
 55 730 l 1,1,-1
 247 730 l 1,2,-1
 247 680 l 1,3,-1
 187 680 l 1,4,-1
 187 241 l 2,5,6
 187 116 187 116 246 78 c 0,7,8
 274 60 274 60 303.5 53.5 c 128,-1,9
 333 47 333 47 374.5 47 c 128,-1,10
 416 47 416 47 445.5 53.5 c 128,-1,11
 475 60 475 60 504 78 c 0,12,13
 563 116 563 116 563 241 c 2,14,-1
 563 680 l 1,15,-1
 503 680 l 1,16,-1
 503 730 l 1,17,-1
 695 730 l 1,18,-1
 695 680 l 1,19,-1
 635 680 l 1,20,-1
 635 241 l 2,21,22
 635 113 635 113 582 52 c 1,23,24
 560 25 560 25 523.5 9.5 c 128,-1,25
 487 -6 487 -6 453.5 -10 c 128,-1,26
 420 -14 420 -14 374 -14 c 128,-1,27
 328 -14 328 -14 295 -10 c 128,-1,28
 262 -6 262 -6 226 9.5 c 128,-1,29
 190 25 190 25 168 52 c 1,30,31
 115 113 115 113 115 241 c 2,32,-1
 115 680 l 1,33,-1
 55 680 l 1,0,-1
266 782 m 1,34,-1
 224 824 l 1,35,-1
 360 979 l 1,36,-1
 389 979 l 1,37,-1
 525 824 l 1,38,-1
 483 782 l 1,39,-1
 374 892 l 1,40,-1
 266 782 l 1,34,-1
EndSplineSet
EndChar

StartChar: Udieresis
Encoding: 220 220 156
Width: 750
GlyphClass: 2
Flags: W
LayerCount: 2
Fore
SplineSet
55 680 m 1,0,-1
 55 730 l 1,1,-1
 247 730 l 1,2,-1
 247 680 l 1,3,-1
 187 680 l 1,4,-1
 187 241 l 2,5,6
 187 116 187 116 246 78 c 0,7,8
 274 60 274 60 303.5 53.5 c 128,-1,9
 333 47 333 47 374.5 47 c 128,-1,10
 416 47 416 47 445.5 53.5 c 128,-1,11
 475 60 475 60 504 78 c 0,12,13
 563 116 563 116 563 241 c 2,14,-1
 563 680 l 1,15,-1
 503 680 l 1,16,-1
 503 730 l 1,17,-1
 695 730 l 1,18,-1
 695 680 l 1,19,-1
 635 680 l 1,20,-1
 635 241 l 2,21,22
 635 113 635 113 582 52 c 1,23,24
 560 25 560 25 523.5 9.5 c 128,-1,25
 487 -6 487 -6 453.5 -10 c 128,-1,26
 420 -14 420 -14 374 -14 c 128,-1,27
 328 -14 328 -14 295 -10 c 128,-1,28
 262 -6 262 -6 226 9.5 c 128,-1,29
 190 25 190 25 168 52 c 1,30,31
 115 113 115 113 115 241 c 2,32,-1
 115 680 l 1,33,-1
 55 680 l 1,0,-1
509.5 839 m 128,-1,35
 499 830 499 830 479.5 830 c 128,-1,36
 460 830 460 830 450 839 c 128,-1,37
 440 848 440 848 438 857.5 c 128,-1,38
 436 867 436 867 436 883.5 c 128,-1,39
 436 900 436 900 438 909.5 c 128,-1,40
 440 919 440 919 450 928 c 128,-1,41
 460 937 460 937 484 937 c 128,-1,42
 508 937 508 937 516 923 c 128,-1,43
 524 909 524 909 524 888 c 128,-1,44
 524 867 524 867 522 857.5 c 128,-1,34
 520 848 520 848 509.5 839 c 128,-1,35
299.5 839 m 128,-1,46
 289 830 289 830 269.5 830 c 128,-1,47
 250 830 250 830 240 839 c 128,-1,48
 230 848 230 848 228 857.5 c 128,-1,49
 226 867 226 867 226 883.5 c 128,-1,50
 226 900 226 900 228 909.5 c 128,-1,51
 230 919 230 919 240 928 c 128,-1,52
 250 937 250 937 274 937 c 128,-1,53
 298 937 298 937 306 923 c 128,-1,54
 314 909 314 909 314 888 c 128,-1,55
 314 867 314 867 312 857.5 c 128,-1,45
 310 848 310 848 299.5 839 c 128,-1,46
EndSplineSet
EndChar

StartChar: Yacute
Encoding: 221 221 157
Width: 492
GlyphClass: 2
Flags: W
LayerCount: 2
Fore
SplineSet
282 56 m 1,0,-1
 352 56 l 1,1,-1
 352 0 l 1,2,-1
 140 0 l 1,3,-1
 140 56 l 1,4,-1
 210 56 l 1,5,-1
 210 255 l 1,6,-1
 20 674 l 1,7,-1
 -25 674 l 1,8,-1
 -25 730 l 1,9,-1
 157 730 l 1,10,-1
 157 674 l 1,11,-1
 95 674 l 1,12,-1
 246 332 l 1,13,-1
 396 674 l 1,14,-1
 335 674 l 1,15,-1
 335 730 l 1,16,-1
 517 730 l 1,17,-1
 517 674 l 1,18,-1
 471 674 l 1,19,-1
 282 255 l 1,20,-1
 282 56 l 1,0,-1
181 782 m 1,21,-1
 139 824 l 1,22,-1
 300 985 l 1,23,-1
 353 932 l 1,24,-1
 181 782 l 1,21,-1
EndSplineSet
EndChar

StartChar: Thorn
Encoding: 222 222 158
Width: 599
GlyphClass: 2
Flags: W
LayerCount: 2
Fore
SplineSet
330 137 m 2,0,-1
 202 137 l 1,1,-1
 202 56 l 1,2,-1
 272 56 l 1,3,-1
 272 0 l 1,4,-1
 70 0 l 1,5,-1
 70 56 l 1,6,-1
 130 56 l 1,7,-1
 130 674 l 1,8,-1
 70 674 l 1,9,-1
 70 730 l 1,10,-1
 272 730 l 1,11,-1
 272 674 l 1,12,-1
 202 674 l 1,13,-1
 202 592 l 1,14,-1
 330 592 l 2,15,16
 471 592 471 592 514 521 c 0,17,18
 535 486 535 486 542 451 c 128,-1,19
 549 416 549 416 549 370 c 128,-1,20
 549 324 549 324 545.5 295 c 128,-1,21
 542 266 542 266 529 234 c 128,-1,22
 516 202 516 202 493 182 c 0,23,24
 439 137 439 137 330 137 c 2,0,-1
202 201 m 1,25,-1
 330 201 l 2,26,27
 425 201 425 201 454 252 c 0,28,29
 468 277 468 277 472.5 302 c 128,-1,30
 477 327 477 327 477 364 c 128,-1,31
 477 401 477 401 472.5 426.5 c 128,-1,32
 468 452 468 452 454 477 c 0,33,34
 425 528 425 528 330 528 c 2,35,-1
 202 528 l 1,36,-1
 202 201 l 1,25,-1
EndSplineSet
EndChar

StartChar: germandbls
Encoding: 223 223 159
Width: 636
GlyphClass: 2
Flags: W
LayerCount: 2
Fore
SplineSet
190 561 m 2,0,-1
 190 0 l 1,1,-1
 60 0 l 1,2,-1
 60 50 l 1,3,-1
 120 50 l 1,4,-1
 120 561 l 2,5,6
 120 653 120 653 172.5 704 c 128,-1,7
 225 755 225 755 336.5 755 c 128,-1,8
 448 755 448 755 498.5 705 c 128,-1,9
 549 655 549 655 549 561 c 0,10,11
 549 510 549 510 525 466.5 c 128,-1,12
 501 423 501 423 461 396 c 1,13,14
 527 384 527 384 566.5 332 c 128,-1,15
 606 280 606 280 606 197 c 0,16,17
 606 -14 606 -14 421 -14 c 0,18,19
 320 -14 320 -14 284 34 c 128,-1,20
 248 82 248 82 248 179 c 1,21,-1
 307 179 l 1,22,23
 307 110 307 110 329.5 77.5 c 128,-1,24
 352 45 352 45 420 45 c 0,25,26
 536 45 536 45 536 200.5 c 128,-1,27
 536 356 536 356 408 356 c 2,28,-1
 293 356 l 1,29,-1
 293 410 l 1,30,-1
 361 410 l 2,31,32
 418 410 418 410 448.5 455 c 128,-1,33
 479 500 479 500 479 564 c 128,-1,34
 479 628 479 628 446.5 662 c 128,-1,35
 414 696 414 696 332 696 c 0,36,37
 190 696 190 696 190 561 c 2,0,-1
EndSplineSet
EndChar

StartChar: agrave
Encoding: 224 224 160
Width: 612
GlyphClass: 2
Flags: W
LayerCount: 2
Fore
SplineSet
427 65 m 1,0,1
 339 -14 339 -14 239 -14 c 128,-1,2
 139 -14 139 -14 101.5 26 c 128,-1,3
 64 66 64 66 64 148.5 c 128,-1,4
 64 231 64 231 100 269 c 128,-1,5
 136 307 136 307 237 314 c 2,6,-1
 422 326 l 1,7,-1
 422 426 l 2,8,9
 422 527 422 527 294 527 c 0,10,11
 209 527 209 527 180.5 498 c 128,-1,12
 152 469 152 469 148 407 c 1,13,-1
 89 410 l 1,14,15
 92 453 92 453 101.5 482 c 128,-1,16
 111 511 111 511 132 536 c 0,17,18
 174 586 174 586 294 586 c 0,19,20
 492 586 492 586 492 426 c 2,21,-1
 492 50 l 1,22,-1
 552 50 l 1,23,-1
 552 0 l 1,24,-1
 445 0 l 1,25,-1
 427 65 l 1,0,1
243 43 m 0,26,27
 340 43 340 43 422 121 c 1,28,-1
 422 272 l 1,29,-1
 241 261 l 2,30,31
 177 257 177 257 154.5 233.5 c 128,-1,32
 132 210 132 210 132 151 c 128,-1,33
 132 92 132 92 157 67.5 c 128,-1,34
 182 43 182 43 243 43 c 0,26,27
398 666 m 1,35,-1
 356 624 l 1,36,-1
 184 774 l 1,37,-1
 237 827 l 1,38,-1
 398 666 l 1,35,-1
EndSplineSet
EndChar

StartChar: aacute
Encoding: 225 225 161
Width: 612
GlyphClass: 2
Flags: W
LayerCount: 2
Fore
SplineSet
427 65 m 1,0,1
 339 -14 339 -14 239 -14 c 128,-1,2
 139 -14 139 -14 101.5 26 c 128,-1,3
 64 66 64 66 64 148.5 c 128,-1,4
 64 231 64 231 100 269 c 128,-1,5
 136 307 136 307 237 314 c 2,6,-1
 422 326 l 1,7,-1
 422 426 l 2,8,9
 422 527 422 527 294 527 c 0,10,11
 209 527 209 527 180.5 498 c 128,-1,12
 152 469 152 469 148 407 c 1,13,-1
 89 410 l 1,14,15
 92 453 92 453 101.5 482 c 128,-1,16
 111 511 111 511 132 536 c 0,17,18
 174 586 174 586 294 586 c 0,19,20
 492 586 492 586 492 426 c 2,21,-1
 492 50 l 1,22,-1
 552 50 l 1,23,-1
 552 0 l 1,24,-1
 445 0 l 1,25,-1
 427 65 l 1,0,1
243 43 m 0,26,27
 340 43 340 43 422 121 c 1,28,-1
 422 272 l 1,29,-1
 241 261 l 2,30,31
 177 257 177 257 154.5 233.5 c 128,-1,32
 132 210 132 210 132 151 c 128,-1,33
 132 92 132 92 157 67.5 c 128,-1,34
 182 43 182 43 243 43 c 0,26,27
272 624 m 1,35,-1
 230 666 l 1,36,-1
 391 827 l 1,37,-1
 444 774 l 1,38,-1
 272 624 l 1,35,-1
EndSplineSet
EndChar

StartChar: acircumflex
Encoding: 226 226 162
Width: 612
GlyphClass: 2
Flags: W
LayerCount: 2
Fore
SplineSet
427 65 m 1,0,1
 339 -14 339 -14 239 -14 c 128,-1,2
 139 -14 139 -14 101.5 26 c 128,-1,3
 64 66 64 66 64 148.5 c 128,-1,4
 64 231 64 231 100 269 c 128,-1,5
 136 307 136 307 237 314 c 2,6,-1
 422 326 l 1,7,-1
 422 426 l 2,8,9
 422 527 422 527 294 527 c 0,10,11
 209 527 209 527 180.5 498 c 128,-1,12
 152 469 152 469 148 407 c 1,13,-1
 89 410 l 1,14,15
 92 453 92 453 101.5 482 c 128,-1,16
 111 511 111 511 132 536 c 0,17,18
 174 586 174 586 294 586 c 0,19,20
 492 586 492 586 492 426 c 2,21,-1
 492 50 l 1,22,-1
 552 50 l 1,23,-1
 552 0 l 1,24,-1
 445 0 l 1,25,-1
 427 65 l 1,0,1
243 43 m 0,26,27
 340 43 340 43 422 121 c 1,28,-1
 422 272 l 1,29,-1
 241 261 l 2,30,31
 177 257 177 257 154.5 233.5 c 128,-1,32
 132 210 132 210 132 151 c 128,-1,33
 132 92 132 92 157 67.5 c 128,-1,34
 182 43 182 43 243 43 c 0,26,27
183 624 m 1,35,-1
 141 666 l 1,36,-1
 277 821 l 1,37,-1
 306 821 l 1,38,-1
 442 666 l 1,39,-1
 400 624 l 1,40,-1
 291 734 l 1,41,-1
 183 624 l 1,35,-1
EndSplineSet
EndChar

StartChar: atilde
Encoding: 227 227 163
Width: 612
GlyphClass: 2
Flags: W
LayerCount: 2
Fore
SplineSet
427 65 m 1,0,1
 339 -14 339 -14 239 -14 c 128,-1,2
 139 -14 139 -14 101.5 26 c 128,-1,3
 64 66 64 66 64 148.5 c 128,-1,4
 64 231 64 231 100 269 c 128,-1,5
 136 307 136 307 237 314 c 2,6,-1
 422 326 l 1,7,-1
 422 426 l 2,8,9
 422 527 422 527 294 527 c 0,10,11
 209 527 209 527 180.5 498 c 128,-1,12
 152 469 152 469 148 407 c 1,13,-1
 89 410 l 1,14,15
 92 453 92 453 101.5 482 c 128,-1,16
 111 511 111 511 132 536 c 0,17,18
 174 586 174 586 294 586 c 0,19,20
 492 586 492 586 492 426 c 2,21,-1
 492 50 l 1,22,-1
 552 50 l 1,23,-1
 552 0 l 1,24,-1
 445 0 l 1,25,-1
 427 65 l 1,0,1
243 43 m 0,26,27
 340 43 340 43 422 121 c 1,28,-1
 422 272 l 1,29,-1
 241 261 l 2,30,31
 177 257 177 257 154.5 233.5 c 128,-1,32
 132 210 132 210 132 151 c 128,-1,33
 132 92 132 92 157 67.5 c 128,-1,34
 182 43 182 43 243 43 c 0,26,27
364 677 m 0,35,36
 338 677 338 677 289 695 c 128,-1,37
 240 713 240 713 224.5 713 c 128,-1,38
 209 713 209 713 199 703 c 128,-1,39
 189 693 189 693 181 669 c 1,40,-1
 130 685 l 1,41,42
 157 778 157 778 218 778 c 0,43,44
 244 778 244 778 293 760 c 128,-1,45
 342 742 342 742 358 742 c 128,-1,46
 374 742 374 742 384 752 c 128,-1,47
 394 762 394 762 402 786 c 1,48,-1
 452 770 l 1,49,50
 425 677 425 677 364 677 c 0,35,36
EndSplineSet
EndChar

StartChar: adieresis
Encoding: 228 228 164
Width: 612
GlyphClass: 2
Flags: W
LayerCount: 2
Fore
SplineSet
427 65 m 1,0,1
 339 -14 339 -14 239 -14 c 128,-1,2
 139 -14 139 -14 101.5 26 c 128,-1,3
 64 66 64 66 64 148.5 c 128,-1,4
 64 231 64 231 100 269 c 128,-1,5
 136 307 136 307 237 314 c 2,6,-1
 422 326 l 1,7,-1
 422 426 l 2,8,9
 422 527 422 527 294 527 c 0,10,11
 209 527 209 527 180.5 498 c 128,-1,12
 152 469 152 469 148 407 c 1,13,-1
 89 410 l 1,14,15
 92 453 92 453 101.5 482 c 128,-1,16
 111 511 111 511 132 536 c 0,17,18
 174 586 174 586 294 586 c 0,19,20
 492 586 492 586 492 426 c 2,21,-1
 492 50 l 1,22,-1
 552 50 l 1,23,-1
 552 0 l 1,24,-1
 445 0 l 1,25,-1
 427 65 l 1,0,1
243 43 m 0,26,27
 340 43 340 43 422 121 c 1,28,-1
 422 272 l 1,29,-1
 241 261 l 2,30,31
 177 257 177 257 154.5 233.5 c 128,-1,32
 132 210 132 210 132 151 c 128,-1,33
 132 92 132 92 157 67.5 c 128,-1,34
 182 43 182 43 243 43 c 0,26,27
222.5 681 m 128,-1,36
 212 672 212 672 192.5 672 c 128,-1,37
 173 672 173 672 163 681 c 128,-1,38
 153 690 153 690 151 699.5 c 128,-1,39
 149 709 149 709 149 725.5 c 128,-1,40
 149 742 149 742 151 751.5 c 128,-1,41
 153 761 153 761 163 770 c 128,-1,42
 173 779 173 779 197 779 c 128,-1,43
 221 779 221 779 229 765 c 128,-1,44
 237 751 237 751 237 730 c 128,-1,45
 237 709 237 709 235 699.5 c 128,-1,35
 233 690 233 690 222.5 681 c 128,-1,36
432.5 681 m 128,-1,47
 422 672 422 672 402.5 672 c 128,-1,48
 383 672 383 672 373 681 c 128,-1,49
 363 690 363 690 361 699.5 c 128,-1,50
 359 709 359 709 359 725.5 c 128,-1,51
 359 742 359 742 361 751.5 c 128,-1,52
 363 761 363 761 373 770 c 128,-1,53
 383 779 383 779 407 779 c 128,-1,54
 431 779 431 779 439 765 c 128,-1,55
 447 751 447 751 447 730 c 128,-1,56
 447 709 447 709 445 699.5 c 128,-1,46
 443 690 443 690 432.5 681 c 128,-1,47
EndSplineSet
EndChar

StartChar: aring
Encoding: 229 229 165
Width: 612
GlyphClass: 2
Flags: W
LayerCount: 2
Fore
SplineSet
427 65 m 1,0,1
 339 -14 339 -14 239 -14 c 128,-1,2
 139 -14 139 -14 101.5 26 c 128,-1,3
 64 66 64 66 64 148.5 c 128,-1,4
 64 231 64 231 100 269 c 128,-1,5
 136 307 136 307 237 314 c 2,6,-1
 422 326 l 1,7,-1
 422 426 l 2,8,9
 422 527 422 527 294 527 c 0,10,11
 209 527 209 527 180.5 498 c 128,-1,12
 152 469 152 469 148 407 c 1,13,-1
 89 410 l 1,14,15
 92 453 92 453 101.5 482 c 128,-1,16
 111 511 111 511 132 536 c 0,17,18
 174 586 174 586 294 586 c 0,19,20
 492 586 492 586 492 426 c 2,21,-1
 492 50 l 1,22,-1
 552 50 l 1,23,-1
 552 0 l 1,24,-1
 445 0 l 1,25,-1
 427 65 l 1,0,1
243 43 m 0,26,27
 340 43 340 43 422 121 c 1,28,-1
 422 272 l 1,29,-1
 241 261 l 2,30,31
 177 257 177 257 154.5 233.5 c 128,-1,32
 132 210 132 210 132 151 c 128,-1,33
 132 92 132 92 157 67.5 c 128,-1,34
 182 43 182 43 243 43 c 0,26,27
290 628 m 128,-1,36
 258 628 258 628 238 636 c 128,-1,37
 218 644 218 644 209.5 660 c 128,-1,38
 201 676 201 676 198.5 690 c 128,-1,39
 196 704 196 704 196 725 c 128,-1,40
 196 746 196 746 198.5 760 c 128,-1,41
 201 774 201 774 209.5 790.5 c 128,-1,42
 218 807 218 807 238 815 c 128,-1,43
 258 823 258 823 290 823 c 128,-1,44
 322 823 322 823 343 815 c 128,-1,45
 364 807 364 807 372.5 790.5 c 128,-1,46
 381 774 381 774 383.5 760 c 128,-1,47
 386 746 386 746 386 725 c 128,-1,48
 386 704 386 704 383.5 690 c 128,-1,49
 381 676 381 676 372.5 660 c 128,-1,50
 364 644 364 644 343 636 c 128,-1,35
 322 628 322 628 290 628 c 128,-1,36
261.5 680 m 128,-1,52
 271 671 271 671 290.5 671 c 128,-1,53
 310 671 310 671 320 680 c 128,-1,54
 330 689 330 689 332 699 c 128,-1,55
 334 709 334 709 334 725.5 c 128,-1,56
 334 742 334 742 332 751.5 c 128,-1,57
 330 761 330 761 320 770.5 c 128,-1,58
 310 780 310 780 286.5 780 c 128,-1,59
 263 780 263 780 255.5 765.5 c 128,-1,60
 248 751 248 751 248 730 c 128,-1,61
 248 709 248 709 250 699 c 128,-1,51
 252 689 252 689 261.5 680 c 128,-1,52
EndSplineSet
EndChar

StartChar: ae
Encoding: 230 230 166
Width: 910
GlyphClass: 2
Flags: W
LayerCount: 2
Fore
SplineSet
641 -14 m 0,0,1
 491 -14 491 -14 440 75 c 1,2,3
 401 35 401 35 346 10.5 c 128,-1,4
 291 -14 291 -14 233 -14 c 0,5,6
 139 -14 139 -14 101.5 26 c 128,-1,7
 64 66 64 66 64 148.5 c 128,-1,8
 64 231 64 231 100 269 c 128,-1,9
 136 307 136 307 237 314 c 2,10,-1
 402 324 l 1,11,12
 406 404 406 404 420 448 c 1,13,14
 407 527 407 527 294 527 c 0,15,16
 209 527 209 527 180.5 498 c 128,-1,17
 152 469 152 469 148 407 c 1,18,-1
 89 410 l 1,19,20
 92 453 92 453 101.5 482 c 128,-1,21
 111 511 111 511 132 536 c 0,22,23
 174 586 174 586 296 586 c 128,-1,24
 418 586 418 586 462 524 c 1,25,26
 519 586 519 586 637 586 c 0,27,28
 698 586 698 586 741.5 569 c 128,-1,29
 785 552 785 552 809.5 526 c 128,-1,30
 834 500 834 500 848 458 c 128,-1,31
 862 416 862 416 866 377.5 c 128,-1,32
 870 339 870 339 870 286 c 2,33,-1
 870 270 l 1,34,-1
 472 270 l 1,35,36
 473 148 473 148 506.5 96.5 c 128,-1,37
 540 45 540 45 634.5 45 c 128,-1,38
 729 45 729 45 763 79.5 c 128,-1,39
 797 114 797 114 803 180 c 1,40,-1
 861 177 l 1,41,42
 857 134 857 134 847 103.5 c 128,-1,43
 837 73 837 73 814 44 c 0,44,45
 768 -14 768 -14 641 -14 c 0,0,1
636 527 m 0,46,47
 586 527 586 527 552.5 511 c 128,-1,48
 519 495 519 495 502 464 c 0,49,50
 474 412 474 412 472 325 c 1,51,-1
 799 325 l 1,52,53
 797 415 797 415 770 466 c 0,54,55
 738 527 738 527 636 527 c 0,46,47
243 43 m 0,56,57
 340 43 340 43 421 120 c 1,58,59
 402 180 402 180 402 271 c 1,60,-1
 241 261 l 2,61,62
 177 257 177 257 154.5 233.5 c 128,-1,63
 132 210 132 210 132 151 c 128,-1,64
 132 92 132 92 157 67.5 c 128,-1,65
 182 43 182 43 243 43 c 0,56,57
EndSplineSet
EndChar

StartChar: ccedilla
Encoding: 231 231 167
Width: 567
GlyphClass: 2
Flags: W
LayerCount: 2
Fore
SplineSet
498 572 m 1,0,-1
 498 370 l 1,1,-1
 452 370 l 1,2,3
 443 449 443 449 405 488 c 128,-1,4
 367 527 367 527 289 527 c 0,5,6
 246 527 246 527 215.5 512 c 128,-1,7
 185 497 185 497 169 475.5 c 128,-1,8
 153 454 153 454 144 419 c 0,9,10
 130 369 130 369 130 310 c 128,-1,11
 130 251 130 251 131.5 227 c 128,-1,12
 133 203 133 203 138 172 c 128,-1,13
 143 141 143 141 154 121 c 128,-1,14
 165 101 165 101 182 82 c 0,15,16
 217 45 217 45 299.5 45 c 128,-1,17
 382 45 382 45 412.5 74 c 128,-1,18
 443 103 443 103 447 165 c 1,19,-1
 504 162 l 1,20,21
 501 119 501 119 491.5 90 c 128,-1,22
 482 61 482 61 460 35.5 c 128,-1,23
 438 10 438 10 397 -2 c 128,-1,24
 356 -14 356 -14 295 -14 c 128,-1,25
 234 -14 234 -14 189.5 3 c 128,-1,26
 145 20 145 20 120.5 46 c 128,-1,27
 96 72 96 72 82 114 c 128,-1,28
 68 156 68 156 64 194.5 c 128,-1,29
 60 233 60 233 60 286 c 128,-1,30
 60 339 60 339 64.5 379 c 128,-1,31
 69 419 69 419 83.5 460 c 128,-1,32
 98 501 98 501 122 527 c 0,33,34
 178 586 178 586 288 586 c 128,-1,35
 398 586 398 586 448 510 c 1,36,-1
 447 572 l 1,37,-1
 498 572 l 1,0,-1
181 -146 m 1,38,-1
 231 -146 l 1,39,40
 231 -168 231 -168 241.5 -179.5 c 128,-1,41
 252 -191 252 -191 280 -191 c 128,-1,42
 308 -191 308 -191 319 -179.5 c 128,-1,43
 330 -168 330 -168 330 -145 c 0,44,45
 330 -105 330 -105 278 -96 c 2,46,-1
 225 -86 l 1,47,-1
 225 -50 l 1,48,-1
 284 -50 l 2,49,50
 329 -50 329 -50 354.5 -71 c 128,-1,51
 380 -92 380 -92 380 -142.5 c 128,-1,52
 380 -193 380 -193 358.5 -217 c 128,-1,53
 337 -241 337 -241 280.5 -241 c 128,-1,54
 224 -241 224 -241 202.5 -217 c 128,-1,55
 181 -193 181 -193 181 -146 c 1,38,-1
EndSplineSet
EndChar

StartChar: egrave
Encoding: 232 232 168
Width: 588
GlyphClass: 2
Flags: W
LayerCount: 2
Fore
SplineSet
109.5 57.5 m 128,-1,1
 60 129 60 129 60 286 c 0,2,3
 60 339 60 339 64 377.5 c 128,-1,4
 68 416 68 416 82 458 c 128,-1,5
 96 500 96 500 121 526 c 128,-1,6
 146 552 146 552 190 569 c 128,-1,7
 234 586 234 586 295 586 c 128,-1,8
 356 586 356 586 399.5 569 c 128,-1,9
 443 552 443 552 467.5 526 c 128,-1,10
 492 500 492 500 506 458 c 128,-1,11
 520 416 520 416 524 377.5 c 128,-1,12
 528 339 528 339 528 286 c 2,13,-1
 528 270 l 1,14,-1
 130 270 l 1,15,16
 131 148 131 148 164.5 96.5 c 128,-1,17
 198 45 198 45 292.5 45 c 128,-1,18
 387 45 387 45 421 79.5 c 128,-1,19
 455 114 455 114 461 180 c 1,20,-1
 519 177 l 1,21,22
 515 134 515 134 505 103.5 c 128,-1,23
 495 73 495 73 472 44 c 0,24,25
 426 -14 426 -14 292.5 -14 c 128,-1,0
 159 -14 159 -14 109.5 57.5 c 128,-1,1
294 527 m 0,26,27
 244 527 244 527 210.5 511 c 128,-1,28
 177 495 177 495 160 464 c 0,29,30
 132 412 132 412 130 325 c 1,31,-1
 457 325 l 1,32,33
 455 415 455 415 428 466 c 0,34,35
 396 527 396 527 294 527 c 0,26,27
398 666 m 1,36,-1
 356 624 l 1,37,-1
 184 774 l 1,38,-1
 237 827 l 1,39,-1
 398 666 l 1,36,-1
EndSplineSet
EndChar

StartChar: eacute
Encoding: 233 233 169
Width: 588
GlyphClass: 2
Flags: W
LayerCount: 2
Fore
SplineSet
109.5 57.5 m 128,-1,1
 60 129 60 129 60 286 c 0,2,3
 60 339 60 339 64 377.5 c 128,-1,4
 68 416 68 416 82 458 c 128,-1,5
 96 500 96 500 121 526 c 128,-1,6
 146 552 146 552 190 569 c 128,-1,7
 234 586 234 586 295 586 c 128,-1,8
 356 586 356 586 399.5 569 c 128,-1,9
 443 552 443 552 467.5 526 c 128,-1,10
 492 500 492 500 506 458 c 128,-1,11
 520 416 520 416 524 377.5 c 128,-1,12
 528 339 528 339 528 286 c 2,13,-1
 528 270 l 1,14,-1
 130 270 l 1,15,16
 131 148 131 148 164.5 96.5 c 128,-1,17
 198 45 198 45 292.5 45 c 128,-1,18
 387 45 387 45 421 79.5 c 128,-1,19
 455 114 455 114 461 180 c 1,20,-1
 519 177 l 1,21,22
 515 134 515 134 505 103.5 c 128,-1,23
 495 73 495 73 472 44 c 0,24,25
 426 -14 426 -14 292.5 -14 c 128,-1,0
 159 -14 159 -14 109.5 57.5 c 128,-1,1
294 527 m 0,26,27
 244 527 244 527 210.5 511 c 128,-1,28
 177 495 177 495 160 464 c 0,29,30
 132 412 132 412 130 325 c 1,31,-1
 457 325 l 1,32,33
 455 415 455 415 428 466 c 0,34,35
 396 527 396 527 294 527 c 0,26,27
264 624 m 1,36,-1
 222 666 l 1,37,-1
 383 827 l 1,38,-1
 436 774 l 1,39,-1
 264 624 l 1,36,-1
EndSplineSet
EndChar

StartChar: ecircumflex
Encoding: 234 234 170
Width: 588
GlyphClass: 2
Flags: W
LayerCount: 2
Fore
SplineSet
109.5 57.5 m 128,-1,1
 60 129 60 129 60 286 c 0,2,3
 60 339 60 339 64 377.5 c 128,-1,4
 68 416 68 416 82 458 c 128,-1,5
 96 500 96 500 121 526 c 128,-1,6
 146 552 146 552 190 569 c 128,-1,7
 234 586 234 586 295 586 c 128,-1,8
 356 586 356 586 399.5 569 c 128,-1,9
 443 552 443 552 467.5 526 c 128,-1,10
 492 500 492 500 506 458 c 128,-1,11
 520 416 520 416 524 377.5 c 128,-1,12
 528 339 528 339 528 286 c 2,13,-1
 528 270 l 1,14,-1
 130 270 l 1,15,16
 131 148 131 148 164.5 96.5 c 128,-1,17
 198 45 198 45 292.5 45 c 128,-1,18
 387 45 387 45 421 79.5 c 128,-1,19
 455 114 455 114 461 180 c 1,20,-1
 519 177 l 1,21,22
 515 134 515 134 505 103.5 c 128,-1,23
 495 73 495 73 472 44 c 0,24,25
 426 -14 426 -14 292.5 -14 c 128,-1,0
 159 -14 159 -14 109.5 57.5 c 128,-1,1
294 527 m 0,26,27
 244 527 244 527 210.5 511 c 128,-1,28
 177 495 177 495 160 464 c 0,29,30
 132 412 132 412 130 325 c 1,31,-1
 457 325 l 1,32,33
 455 415 455 415 428 466 c 0,34,35
 396 527 396 527 294 527 c 0,26,27
183 624 m 1,36,-1
 141 666 l 1,37,-1
 277 821 l 1,38,-1
 306 821 l 1,39,-1
 442 666 l 1,40,-1
 400 624 l 1,41,-1
 291 734 l 1,42,-1
 183 624 l 1,36,-1
EndSplineSet
EndChar

StartChar: edieresis
Encoding: 235 235 171
Width: 588
GlyphClass: 2
Flags: W
LayerCount: 2
Fore
SplineSet
109.5 57.5 m 128,-1,1
 60 129 60 129 60 286 c 0,2,3
 60 339 60 339 64 377.5 c 128,-1,4
 68 416 68 416 82 458 c 128,-1,5
 96 500 96 500 121 526 c 128,-1,6
 146 552 146 552 190 569 c 128,-1,7
 234 586 234 586 295 586 c 128,-1,8
 356 586 356 586 399.5 569 c 128,-1,9
 443 552 443 552 467.5 526 c 128,-1,10
 492 500 492 500 506 458 c 128,-1,11
 520 416 520 416 524 377.5 c 128,-1,12
 528 339 528 339 528 286 c 2,13,-1
 528 270 l 1,14,-1
 130 270 l 1,15,16
 131 148 131 148 164.5 96.5 c 128,-1,17
 198 45 198 45 292.5 45 c 128,-1,18
 387 45 387 45 421 79.5 c 128,-1,19
 455 114 455 114 461 180 c 1,20,-1
 519 177 l 1,21,22
 515 134 515 134 505 103.5 c 128,-1,23
 495 73 495 73 472 44 c 0,24,25
 426 -14 426 -14 292.5 -14 c 128,-1,0
 159 -14 159 -14 109.5 57.5 c 128,-1,1
294 527 m 0,26,27
 244 527 244 527 210.5 511 c 128,-1,28
 177 495 177 495 160 464 c 0,29,30
 132 412 132 412 130 325 c 1,31,-1
 457 325 l 1,32,33
 455 415 455 415 428 466 c 0,34,35
 396 527 396 527 294 527 c 0,26,27
215.5 681 m 128,-1,37
 205 672 205 672 185.5 672 c 128,-1,38
 166 672 166 672 156 681 c 128,-1,39
 146 690 146 690 144 699.5 c 128,-1,40
 142 709 142 709 142 725.5 c 128,-1,41
 142 742 142 742 144 751.5 c 128,-1,42
 146 761 146 761 156 770 c 128,-1,43
 166 779 166 779 190 779 c 128,-1,44
 214 779 214 779 222 765 c 128,-1,45
 230 751 230 751 230 730 c 128,-1,46
 230 709 230 709 228 699.5 c 128,-1,36
 226 690 226 690 215.5 681 c 128,-1,37
425.5 681 m 128,-1,48
 415 672 415 672 395.5 672 c 128,-1,49
 376 672 376 672 366 681 c 128,-1,50
 356 690 356 690 354 699.5 c 128,-1,51
 352 709 352 709 352 725.5 c 128,-1,52
 352 742 352 742 354 751.5 c 128,-1,53
 356 761 356 761 366 770 c 128,-1,54
 376 779 376 779 400 779 c 128,-1,55
 424 779 424 779 432 765 c 128,-1,56
 440 751 440 751 440 730 c 128,-1,57
 440 709 440 709 438 699.5 c 128,-1,47
 436 690 436 690 425.5 681 c 128,-1,48
EndSplineSet
EndChar

StartChar: igrave
Encoding: 236 236 172
Width: 320
GlyphClass: 2
Flags: W
LayerCount: 2
Fore
SplineSet
70 522 m 1,0,-1
 70 572 l 1,1,-1
 200 572 l 1,2,-1
 200 50 l 1,3,-1
 260 50 l 1,4,-1
 260 0 l 1,5,-1
 70 0 l 1,6,-1
 70 50 l 1,7,-1
 130 50 l 1,8,-1
 130 522 l 1,9,-1
 70 522 l 1,0,-1
262 666 m 1,10,-1
 220 624 l 1,11,-1
 48 774 l 1,12,-1
 101 827 l 1,13,-1
 262 666 l 1,10,-1
EndSplineSet
EndChar

StartChar: iacute
Encoding: 237 237 173
Width: 320
GlyphClass: 2
Flags: W
LayerCount: 2
Fore
SplineSet
70 522 m 1,0,-1
 70 572 l 1,1,-1
 200 572 l 1,2,-1
 200 50 l 1,3,-1
 260 50 l 1,4,-1
 260 0 l 1,5,-1
 70 0 l 1,6,-1
 70 50 l 1,7,-1
 130 50 l 1,8,-1
 130 522 l 1,9,-1
 70 522 l 1,0,-1
115 624 m 1,10,-1
 73 666 l 1,11,-1
 234 827 l 1,12,-1
 287 774 l 1,13,-1
 115 624 l 1,10,-1
EndSplineSet
EndChar

StartChar: icircumflex
Encoding: 238 238 174
Width: 320
GlyphClass: 2
Flags: W
LayerCount: 2
Fore
SplineSet
70 522 m 1,0,-1
 70 572 l 1,1,-1
 200 572 l 1,2,-1
 200 50 l 1,3,-1
 260 50 l 1,4,-1
 260 0 l 1,5,-1
 70 0 l 1,6,-1
 70 50 l 1,7,-1
 130 50 l 1,8,-1
 130 522 l 1,9,-1
 70 522 l 1,0,-1
47 624 m 1,10,-1
 5 666 l 1,11,-1
 141 821 l 1,12,-1
 170 821 l 1,13,-1
 306 666 l 1,14,-1
 264 624 l 1,15,-1
 155 734 l 1,16,-1
 47 624 l 1,10,-1
EndSplineSet
EndChar

StartChar: idieresis
Encoding: 239 239 175
Width: 320
GlyphClass: 2
Flags: W
LayerCount: 2
Fore
SplineSet
70 522 m 1,0,-1
 70 572 l 1,1,-1
 200 572 l 1,2,-1
 200 50 l 1,3,-1
 260 50 l 1,4,-1
 260 0 l 1,5,-1
 70 0 l 1,6,-1
 70 50 l 1,7,-1
 130 50 l 1,8,-1
 130 522 l 1,9,-1
 70 522 l 1,0,-1
289.5 681 m 128,-1,11
 279 672 279 672 259.5 672 c 128,-1,12
 240 672 240 672 230 681 c 128,-1,13
 220 690 220 690 218 699.5 c 128,-1,14
 216 709 216 709 216 725.5 c 128,-1,15
 216 742 216 742 218 751.5 c 128,-1,16
 220 761 220 761 230 770 c 128,-1,17
 240 779 240 779 264 779 c 128,-1,18
 288 779 288 779 296 765 c 128,-1,19
 304 751 304 751 304 730 c 128,-1,20
 304 709 304 709 302 699.5 c 128,-1,10
 300 690 300 690 289.5 681 c 128,-1,11
79.5 681 m 128,-1,22
 69 672 69 672 49.5 672 c 128,-1,23
 30 672 30 672 20 681 c 128,-1,24
 10 690 10 690 8 699.5 c 128,-1,25
 6 709 6 709 6 725.5 c 128,-1,26
 6 742 6 742 8 751.5 c 128,-1,27
 10 761 10 761 20 770 c 128,-1,28
 30 779 30 779 54 779 c 128,-1,29
 78 779 78 779 86 765 c 128,-1,30
 94 751 94 751 94 730 c 128,-1,31
 94 709 94 709 92 699.5 c 128,-1,21
 90 690 90 690 79.5 681 c 128,-1,22
EndSplineSet
EndChar

StartChar: eth
Encoding: 240 240 176
Width: 608
GlyphClass: 2
Flags: W
LayerCount: 2
Fore
SplineSet
548 246 m 2,0,1
 548 138 548 138 522 86 c 1,2,3
 496 37 496 37 448 14 c 0,4,5
 392 -14 392 -14 304 -14 c 0,6,7
 171 -14 171 -14 116 46 c 0,8,9
 69 96 69 96 62 189 c 0,10,11
 60 214 60 214 60 246 c 128,-1,12
 60 278 60 278 62 303 c 128,-1,13
 64 328 64 328 70 356.5 c 128,-1,14
 76 385 76 385 86.5 405.5 c 128,-1,15
 97 426 97 426 115.5 446 c 128,-1,16
 134 466 134 466 160 478 c 0,17,18
 216 506 216 506 312.5 506 c 128,-1,19
 409 506 409 506 463 443 c 1,20,21
 440 541 440 541 384 625 c 1,22,-1
 276 582 l 1,23,-1
 276 637 l 1,24,-1
 352 667 l 1,25,26
 330 693 330 693 298 723 c 1,27,-1
 333 764 l 1,28,29
 376 727 376 727 408 690 c 1,30,-1
 526 737 l 1,31,-1
 526 682 l 1,32,-1
 441 648 l 1,33,34
 547 498 547 498 548 268 c 1,35,-1
 548 246 l 2,0,1
304 45 m 128,-1,37
 352 45 352 45 385.5 57 c 128,-1,38
 419 69 419 69 436.5 86.5 c 128,-1,39
 454 104 454 104 464 133.5 c 128,-1,40
 474 163 474 163 476 186.5 c 128,-1,41
 478 210 478 210 478 246 c 128,-1,42
 478 282 478 282 476 305.5 c 128,-1,43
 474 329 474 329 464 358.5 c 128,-1,44
 454 388 454 388 436.5 405.5 c 128,-1,45
 419 423 419 423 385.5 435 c 128,-1,46
 352 447 352 447 304 447 c 128,-1,47
 256 447 256 447 222.5 435 c 128,-1,48
 189 423 189 423 171.5 405.5 c 128,-1,49
 154 388 154 388 144 358.5 c 128,-1,50
 134 329 134 329 132 305.5 c 128,-1,51
 130 282 130 282 130 246 c 128,-1,52
 130 210 130 210 132 186.5 c 128,-1,53
 134 163 134 163 144 133.5 c 128,-1,54
 154 104 154 104 171.5 86.5 c 128,-1,55
 189 69 189 69 222.5 57 c 128,-1,36
 256 45 256 45 304 45 c 128,-1,37
EndSplineSet
EndChar

StartChar: ntilde
Encoding: 241 241 177
Width: 630
GlyphClass: 2
Flags: W
LayerCount: 2
Fore
SplineSet
40 522 m 1,0,-1
 40 572 l 1,1,-1
 147 572 l 1,2,-1
 164 508 l 1,3,4
 265 586 265 586 376 586 c 0,5,6
 464 586 464 586 502.5 542.5 c 128,-1,7
 541 499 541 499 541 407 c 2,8,-1
 541 50 l 1,9,-1
 601 50 l 1,10,-1
 601 0 l 1,11,-1
 411 0 l 1,12,-1
 411 50 l 1,13,-1
 471 50 l 1,14,-1
 471 408 l 2,15,16
 471 471 471 471 446.5 499 c 128,-1,17
 422 527 422 527 365 527 c 0,18,19
 263 527 263 527 170 453 c 1,20,-1
 170 50 l 1,21,-1
 230 50 l 1,22,-1
 230 0 l 1,23,-1
 40 0 l 1,24,-1
 40 50 l 1,25,-1
 100 50 l 1,26,-1
 100 522 l 1,27,-1
 40 522 l 1,0,-1
402 677 m 0,28,29
 376 677 376 677 327 695 c 128,-1,30
 278 713 278 713 262.5 713 c 128,-1,31
 247 713 247 713 237 703 c 128,-1,32
 227 693 227 693 219 669 c 1,33,-1
 168 685 l 1,34,35
 195 778 195 778 256 778 c 0,36,37
 282 778 282 778 331 760 c 128,-1,38
 380 742 380 742 396 742 c 128,-1,39
 412 742 412 742 422 752 c 128,-1,40
 432 762 432 762 440 786 c 1,41,-1
 490 770 l 1,42,43
 463 677 463 677 402 677 c 0,28,29
EndSplineSet
EndChar

StartChar: ograve
Encoding: 242 242 178
Width: 608
GlyphClass: 2
Flags: W
LayerCount: 2
Fore
SplineSet
304 45 m 128,-1,1
 352 45 352 45 385.5 59.5 c 128,-1,2
 419 74 419 74 436.5 94.5 c 128,-1,3
 454 115 454 115 464 150.5 c 128,-1,4
 474 186 474 186 476 214.5 c 128,-1,5
 478 243 478 243 478 286 c 128,-1,6
 478 329 478 329 476 357.5 c 128,-1,7
 474 386 474 386 464 421.5 c 128,-1,8
 454 457 454 457 436.5 477.5 c 128,-1,9
 419 498 419 498 385.5 512.5 c 128,-1,10
 352 527 352 527 304 527 c 128,-1,11
 256 527 256 527 222.5 512.5 c 128,-1,12
 189 498 189 498 171.5 477.5 c 128,-1,13
 154 457 154 457 144 421.5 c 128,-1,14
 134 386 134 386 132 357.5 c 128,-1,15
 130 329 130 329 130 286 c 128,-1,16
 130 243 130 243 132 214.5 c 128,-1,17
 134 186 134 186 144 150.5 c 128,-1,18
 154 115 154 115 171.5 94.5 c 128,-1,19
 189 74 189 74 222.5 59.5 c 128,-1,0
 256 45 256 45 304 45 c 128,-1,1
304 -14 m 128,-1,21
 258 -14 258 -14 221.5 -5 c 128,-1,22
 185 4 185 4 159.5 18.5 c 128,-1,23
 134 33 134 33 115.5 56 c 128,-1,24
 97 79 97 79 86.5 103 c 128,-1,25
 76 127 76 127 70 159.5 c 128,-1,26
 64 192 64 192 62 220.5 c 128,-1,27
 60 249 60 249 60 286 c 128,-1,28
 60 323 60 323 62 351.5 c 128,-1,29
 64 380 64 380 70 412.5 c 128,-1,30
 76 445 76 445 86.5 469 c 128,-1,31
 97 493 97 493 115.5 516 c 128,-1,32
 134 539 134 539 159.5 553.5 c 128,-1,33
 185 568 185 568 221.5 577 c 128,-1,34
 258 586 258 586 304 586 c 128,-1,35
 350 586 350 586 386.5 577 c 128,-1,36
 423 568 423 568 448.5 553.5 c 128,-1,37
 474 539 474 539 492.5 516 c 128,-1,38
 511 493 511 493 521.5 469 c 128,-1,39
 532 445 532 445 538 412.5 c 128,-1,40
 544 380 544 380 546 351.5 c 128,-1,41
 548 323 548 323 548 286 c 128,-1,42
 548 249 548 249 546 220.5 c 128,-1,43
 544 192 544 192 538 159.5 c 128,-1,44
 532 127 532 127 521.5 103 c 128,-1,45
 511 79 511 79 492.5 56 c 128,-1,46
 474 33 474 33 448.5 18.5 c 128,-1,47
 423 4 423 4 386.5 -5 c 128,-1,20
 350 -14 350 -14 304 -14 c 128,-1,21
411 666 m 1,48,-1
 369 624 l 1,49,-1
 197 774 l 1,50,-1
 250 827 l 1,51,-1
 411 666 l 1,48,-1
EndSplineSet
EndChar

StartChar: oacute
Encoding: 243 243 179
Width: 608
GlyphClass: 2
Flags: W
LayerCount: 2
Fore
SplineSet
304 45 m 128,-1,1
 352 45 352 45 385.5 59.5 c 128,-1,2
 419 74 419 74 436.5 94.5 c 128,-1,3
 454 115 454 115 464 150.5 c 128,-1,4
 474 186 474 186 476 214.5 c 128,-1,5
 478 243 478 243 478 286 c 128,-1,6
 478 329 478 329 476 357.5 c 128,-1,7
 474 386 474 386 464 421.5 c 128,-1,8
 454 457 454 457 436.5 477.5 c 128,-1,9
 419 498 419 498 385.5 512.5 c 128,-1,10
 352 527 352 527 304 527 c 128,-1,11
 256 527 256 527 222.5 512.5 c 128,-1,12
 189 498 189 498 171.5 477.5 c 128,-1,13
 154 457 154 457 144 421.5 c 128,-1,14
 134 386 134 386 132 357.5 c 128,-1,15
 130 329 130 329 130 286 c 128,-1,16
 130 243 130 243 132 214.5 c 128,-1,17
 134 186 134 186 144 150.5 c 128,-1,18
 154 115 154 115 171.5 94.5 c 128,-1,19
 189 74 189 74 222.5 59.5 c 128,-1,0
 256 45 256 45 304 45 c 128,-1,1
304 -14 m 128,-1,21
 258 -14 258 -14 221.5 -5 c 128,-1,22
 185 4 185 4 159.5 18.5 c 128,-1,23
 134 33 134 33 115.5 56 c 128,-1,24
 97 79 97 79 86.5 103 c 128,-1,25
 76 127 76 127 70 159.5 c 128,-1,26
 64 192 64 192 62 220.5 c 128,-1,27
 60 249 60 249 60 286 c 128,-1,28
 60 323 60 323 62 351.5 c 128,-1,29
 64 380 64 380 70 412.5 c 128,-1,30
 76 445 76 445 86.5 469 c 128,-1,31
 97 493 97 493 115.5 516 c 128,-1,32
 134 539 134 539 159.5 553.5 c 128,-1,33
 185 568 185 568 221.5 577 c 128,-1,34
 258 586 258 586 304 586 c 128,-1,35
 350 586 350 586 386.5 577 c 128,-1,36
 423 568 423 568 448.5 553.5 c 128,-1,37
 474 539 474 539 492.5 516 c 128,-1,38
 511 493 511 493 521.5 469 c 128,-1,39
 532 445 532 445 538 412.5 c 128,-1,40
 544 380 544 380 546 351.5 c 128,-1,41
 548 323 548 323 548 286 c 128,-1,42
 548 249 548 249 546 220.5 c 128,-1,43
 544 192 544 192 538 159.5 c 128,-1,44
 532 127 532 127 521.5 103 c 128,-1,45
 511 79 511 79 492.5 56 c 128,-1,46
 474 33 474 33 448.5 18.5 c 128,-1,47
 423 4 423 4 386.5 -5 c 128,-1,20
 350 -14 350 -14 304 -14 c 128,-1,21
276 624 m 1,48,-1
 234 666 l 1,49,-1
 395 827 l 1,50,-1
 448 774 l 1,51,-1
 276 624 l 1,48,-1
EndSplineSet
EndChar

StartChar: ocircumflex
Encoding: 244 244 180
Width: 608
GlyphClass: 2
Flags: W
LayerCount: 2
Fore
SplineSet
304 45 m 128,-1,1
 352 45 352 45 385.5 59.5 c 128,-1,2
 419 74 419 74 436.5 94.5 c 128,-1,3
 454 115 454 115 464 150.5 c 128,-1,4
 474 186 474 186 476 214.5 c 128,-1,5
 478 243 478 243 478 286 c 128,-1,6
 478 329 478 329 476 357.5 c 128,-1,7
 474 386 474 386 464 421.5 c 128,-1,8
 454 457 454 457 436.5 477.5 c 128,-1,9
 419 498 419 498 385.5 512.5 c 128,-1,10
 352 527 352 527 304 527 c 128,-1,11
 256 527 256 527 222.5 512.5 c 128,-1,12
 189 498 189 498 171.5 477.5 c 128,-1,13
 154 457 154 457 144 421.5 c 128,-1,14
 134 386 134 386 132 357.5 c 128,-1,15
 130 329 130 329 130 286 c 128,-1,16
 130 243 130 243 132 214.5 c 128,-1,17
 134 186 134 186 144 150.5 c 128,-1,18
 154 115 154 115 171.5 94.5 c 128,-1,19
 189 74 189 74 222.5 59.5 c 128,-1,0
 256 45 256 45 304 45 c 128,-1,1
304 -14 m 128,-1,21
 258 -14 258 -14 221.5 -5 c 128,-1,22
 185 4 185 4 159.5 18.5 c 128,-1,23
 134 33 134 33 115.5 56 c 128,-1,24
 97 79 97 79 86.5 103 c 128,-1,25
 76 127 76 127 70 159.5 c 128,-1,26
 64 192 64 192 62 220.5 c 128,-1,27
 60 249 60 249 60 286 c 128,-1,28
 60 323 60 323 62 351.5 c 128,-1,29
 64 380 64 380 70 412.5 c 128,-1,30
 76 445 76 445 86.5 469 c 128,-1,31
 97 493 97 493 115.5 516 c 128,-1,32
 134 539 134 539 159.5 553.5 c 128,-1,33
 185 568 185 568 221.5 577 c 128,-1,34
 258 586 258 586 304 586 c 128,-1,35
 350 586 350 586 386.5 577 c 128,-1,36
 423 568 423 568 448.5 553.5 c 128,-1,37
 474 539 474 539 492.5 516 c 128,-1,38
 511 493 511 493 521.5 469 c 128,-1,39
 532 445 532 445 538 412.5 c 128,-1,40
 544 380 544 380 546 351.5 c 128,-1,41
 548 323 548 323 548 286 c 128,-1,42
 548 249 548 249 546 220.5 c 128,-1,43
 544 192 544 192 538 159.5 c 128,-1,44
 532 127 532 127 521.5 103 c 128,-1,45
 511 79 511 79 492.5 56 c 128,-1,46
 474 33 474 33 448.5 18.5 c 128,-1,47
 423 4 423 4 386.5 -5 c 128,-1,20
 350 -14 350 -14 304 -14 c 128,-1,21
195 624 m 1,48,-1
 153 666 l 1,49,-1
 289 821 l 1,50,-1
 318 821 l 1,51,-1
 454 666 l 1,52,-1
 412 624 l 1,53,-1
 303 734 l 1,54,-1
 195 624 l 1,48,-1
EndSplineSet
EndChar

StartChar: otilde
Encoding: 245 245 181
Width: 608
GlyphClass: 2
Flags: W
LayerCount: 2
Fore
SplineSet
304 45 m 128,-1,1
 352 45 352 45 385.5 59.5 c 128,-1,2
 419 74 419 74 436.5 94.5 c 128,-1,3
 454 115 454 115 464 150.5 c 128,-1,4
 474 186 474 186 476 214.5 c 128,-1,5
 478 243 478 243 478 286 c 128,-1,6
 478 329 478 329 476 357.5 c 128,-1,7
 474 386 474 386 464 421.5 c 128,-1,8
 454 457 454 457 436.5 477.5 c 128,-1,9
 419 498 419 498 385.5 512.5 c 128,-1,10
 352 527 352 527 304 527 c 128,-1,11
 256 527 256 527 222.5 512.5 c 128,-1,12
 189 498 189 498 171.5 477.5 c 128,-1,13
 154 457 154 457 144 421.5 c 128,-1,14
 134 386 134 386 132 357.5 c 128,-1,15
 130 329 130 329 130 286 c 128,-1,16
 130 243 130 243 132 214.5 c 128,-1,17
 134 186 134 186 144 150.5 c 128,-1,18
 154 115 154 115 171.5 94.5 c 128,-1,19
 189 74 189 74 222.5 59.5 c 128,-1,0
 256 45 256 45 304 45 c 128,-1,1
304 -14 m 128,-1,21
 258 -14 258 -14 221.5 -5 c 128,-1,22
 185 4 185 4 159.5 18.5 c 128,-1,23
 134 33 134 33 115.5 56 c 128,-1,24
 97 79 97 79 86.5 103 c 128,-1,25
 76 127 76 127 70 159.5 c 128,-1,26
 64 192 64 192 62 220.5 c 128,-1,27
 60 249 60 249 60 286 c 128,-1,28
 60 323 60 323 62 351.5 c 128,-1,29
 64 380 64 380 70 412.5 c 128,-1,30
 76 445 76 445 86.5 469 c 128,-1,31
 97 493 97 493 115.5 516 c 128,-1,32
 134 539 134 539 159.5 553.5 c 128,-1,33
 185 568 185 568 221.5 577 c 128,-1,34
 258 586 258 586 304 586 c 128,-1,35
 350 586 350 586 386.5 577 c 128,-1,36
 423 568 423 568 448.5 553.5 c 128,-1,37
 474 539 474 539 492.5 516 c 128,-1,38
 511 493 511 493 521.5 469 c 128,-1,39
 532 445 532 445 538 412.5 c 128,-1,40
 544 380 544 380 546 351.5 c 128,-1,41
 548 323 548 323 548 286 c 128,-1,42
 548 249 548 249 546 220.5 c 128,-1,43
 544 192 544 192 538 159.5 c 128,-1,44
 532 127 532 127 521.5 103 c 128,-1,45
 511 79 511 79 492.5 56 c 128,-1,46
 474 33 474 33 448.5 18.5 c 128,-1,47
 423 4 423 4 386.5 -5 c 128,-1,20
 350 -14 350 -14 304 -14 c 128,-1,21
377 677 m 0,48,49
 352 677 352 677 303 695 c 128,-1,50
 254 713 254 713 238 713 c 128,-1,51
 222 713 222 713 212 703 c 128,-1,52
 202 693 202 693 194 669 c 1,53,-1
 143 685 l 1,54,55
 170 778 170 778 231 778 c 0,56,57
 256 778 256 778 306 760 c 128,-1,58
 356 742 356 742 371.5 742 c 128,-1,59
 387 742 387 742 397 752 c 128,-1,60
 407 762 407 762 415 786 c 1,61,-1
 465 770 l 1,62,63
 438 677 438 677 377 677 c 0,48,49
EndSplineSet
EndChar

StartChar: odieresis
Encoding: 246 246 182
Width: 608
GlyphClass: 2
Flags: W
LayerCount: 2
Fore
SplineSet
304 45 m 128,-1,1
 352 45 352 45 385.5 59.5 c 128,-1,2
 419 74 419 74 436.5 94.5 c 128,-1,3
 454 115 454 115 464 150.5 c 128,-1,4
 474 186 474 186 476 214.5 c 128,-1,5
 478 243 478 243 478 286 c 128,-1,6
 478 329 478 329 476 357.5 c 128,-1,7
 474 386 474 386 464 421.5 c 128,-1,8
 454 457 454 457 436.5 477.5 c 128,-1,9
 419 498 419 498 385.5 512.5 c 128,-1,10
 352 527 352 527 304 527 c 128,-1,11
 256 527 256 527 222.5 512.5 c 128,-1,12
 189 498 189 498 171.5 477.5 c 128,-1,13
 154 457 154 457 144 421.5 c 128,-1,14
 134 386 134 386 132 357.5 c 128,-1,15
 130 329 130 329 130 286 c 128,-1,16
 130 243 130 243 132 214.5 c 128,-1,17
 134 186 134 186 144 150.5 c 128,-1,18
 154 115 154 115 171.5 94.5 c 128,-1,19
 189 74 189 74 222.5 59.5 c 128,-1,0
 256 45 256 45 304 45 c 128,-1,1
304 -14 m 128,-1,21
 258 -14 258 -14 221.5 -5 c 128,-1,22
 185 4 185 4 159.5 18.5 c 128,-1,23
 134 33 134 33 115.5 56 c 128,-1,24
 97 79 97 79 86.5 103 c 128,-1,25
 76 127 76 127 70 159.5 c 128,-1,26
 64 192 64 192 62 220.5 c 128,-1,27
 60 249 60 249 60 286 c 128,-1,28
 60 323 60 323 62 351.5 c 128,-1,29
 64 380 64 380 70 412.5 c 128,-1,30
 76 445 76 445 86.5 469 c 128,-1,31
 97 493 97 493 115.5 516 c 128,-1,32
 134 539 134 539 159.5 553.5 c 128,-1,33
 185 568 185 568 221.5 577 c 128,-1,34
 258 586 258 586 304 586 c 128,-1,35
 350 586 350 586 386.5 577 c 128,-1,36
 423 568 423 568 448.5 553.5 c 128,-1,37
 474 539 474 539 492.5 516 c 128,-1,38
 511 493 511 493 521.5 469 c 128,-1,39
 532 445 532 445 538 412.5 c 128,-1,40
 544 380 544 380 546 351.5 c 128,-1,41
 548 323 548 323 548 286 c 128,-1,42
 548 249 548 249 546 220.5 c 128,-1,43
 544 192 544 192 538 159.5 c 128,-1,44
 532 127 532 127 521.5 103 c 128,-1,45
 511 79 511 79 492.5 56 c 128,-1,46
 474 33 474 33 448.5 18.5 c 128,-1,47
 423 4 423 4 386.5 -5 c 128,-1,20
 350 -14 350 -14 304 -14 c 128,-1,21
228.5 681 m 128,-1,49
 218 672 218 672 198.5 672 c 128,-1,50
 179 672 179 672 169 681 c 128,-1,51
 159 690 159 690 157 699.5 c 128,-1,52
 155 709 155 709 155 725.5 c 128,-1,53
 155 742 155 742 157 751.5 c 128,-1,54
 159 761 159 761 169 770 c 128,-1,55
 179 779 179 779 203 779 c 128,-1,56
 227 779 227 779 235 765 c 128,-1,57
 243 751 243 751 243 730 c 128,-1,58
 243 709 243 709 241 699.5 c 128,-1,48
 239 690 239 690 228.5 681 c 128,-1,49
438.5 681 m 128,-1,60
 428 672 428 672 408.5 672 c 128,-1,61
 389 672 389 672 379 681 c 128,-1,62
 369 690 369 690 367 699.5 c 128,-1,63
 365 709 365 709 365 725.5 c 128,-1,64
 365 742 365 742 367 751.5 c 128,-1,65
 369 761 369 761 379 770 c 128,-1,66
 389 779 389 779 413 779 c 128,-1,67
 437 779 437 779 445 765 c 128,-1,68
 453 751 453 751 453 730 c 128,-1,69
 453 709 453 709 451 699.5 c 128,-1,59
 449 690 449 690 438.5 681 c 128,-1,60
EndSplineSet
EndChar

StartChar: divide
Encoding: 247 247 183
Width: 580
GlyphClass: 2
Flags: W
LayerCount: 2
Fore
SplineSet
94 288 m 1,0,-1
 94 348 l 1,1,-1
 486 348 l 1,2,-1
 486 288 l 1,3,-1
 94 288 l 1,0,-1
242 149 m 0,4,5
 242 167 242 167 244 177.5 c 128,-1,6
 246 188 246 188 257 198 c 128,-1,7
 268 208 268 208 294 208 c 128,-1,8
 320 208 320 208 329 192 c 128,-1,9
 338 176 338 176 338 156.5 c 128,-1,10
 338 137 338 137 336.5 128.5 c 128,-1,11
 335 120 335 120 330 110 c 0,12,13
 321 91 321 91 281.5 91 c 128,-1,14
 242 91 242 91 242 149 c 0,4,5
242 476 m 0,15,16
 242 494 242 494 244 504.5 c 128,-1,17
 246 515 246 515 257 525 c 128,-1,18
 268 535 268 535 294 535 c 128,-1,19
 320 535 320 535 329 519 c 128,-1,20
 338 503 338 503 338 483.5 c 128,-1,21
 338 464 338 464 336.5 455.5 c 128,-1,22
 335 447 335 447 330 438 c 0,23,24
 321 418 321 418 281.5 418 c 128,-1,25
 242 418 242 418 242 476 c 0,15,16
EndSplineSet
EndChar

StartChar: oslash
Encoding: 248 248 184
Width: 608
GlyphClass: 2
Flags: W
LayerCount: 2
Fore
SplineSet
60 278 m 0,0,1
 60 323 60 323 62 351.5 c 128,-1,2
 64 380 64 380 70 412.5 c 128,-1,3
 76 445 76 445 86.5 469 c 128,-1,4
 97 493 97 493 115.5 516 c 128,-1,5
 134 539 134 539 160 554 c 0,6,7
 217 586 217 586 304 586 c 0,8,9
 325 586 325 586 357 582 c 1,10,-1
 385 686 l 1,11,-1
 438 686 l 1,12,-1
 407 572 l 1,13,14
 497 544 497 544 524 460 c 1,15,16
 548 389 548 389 548 286 c 0,17,18
 548 164 548 164 522 103 c 1,19,20
 496 46 496 46 448 18 c 0,21,22
 391 -14 391 -14 304 -14 c 0,23,24
 275 -14 275 -14 251 -11 c 1,25,-1
 223 -115 l 1,26,-1
 171 -115 l 1,27,-1
 201 0 l 1,28,29
 111 28 111 28 84 112 c 1,30,31
 60 183 60 183 60 278 c 0,0,1
132 357.5 m 128,-1,33
 130 329 130 329 130 262.5 c 128,-1,34
 130 196 130 196 146 140.5 c 128,-1,35
 162 85 162 85 217 60 c 1,36,-1
 342 524 l 1,37,38
 324 527 324 527 290 527 c 128,-1,39
 256 527 256 527 222.5 512.5 c 128,-1,40
 189 498 189 498 171.5 477.5 c 128,-1,41
 154 457 154 457 144 421.5 c 128,-1,32
 134 386 134 386 132 357.5 c 128,-1,33
266 47 m 1,42,43
 290 45 290 45 321 45 c 128,-1,44
 352 45 352 45 385.5 59.5 c 128,-1,45
 419 74 419 74 436.5 94.5 c 128,-1,46
 454 115 454 115 464 150.5 c 128,-1,47
 474 186 474 186 476 214.5 c 128,-1,48
 478 243 478 243 478 285.5 c 128,-1,49
 478 328 478 328 475.5 356.5 c 128,-1,50
 473 385 473 385 465 418 c 0,51,52
 449 485 449 485 391 511 c 1,53,-1
 266 47 l 1,42,43
EndSplineSet
EndChar

StartChar: ugrave
Encoding: 249 249 185
Width: 696
GlyphClass: 2
Flags: W
LayerCount: 2
Fore
SplineSet
60 572 m 1,0,-1
 190 572 l 1,1,-1
 190 164 l 2,2,3
 190 100 190 100 215.5 72.5 c 128,-1,4
 241 45 241 45 304 45 c 0,5,6
 411 45 411 45 506 132 c 1,7,-1
 506 522 l 1,8,-1
 446 522 l 1,9,-1
 446 572 l 1,10,-1
 576 572 l 1,11,-1
 576 50 l 1,12,-1
 636 50 l 1,13,-1
 636 0 l 1,14,-1
 529 0 l 1,15,-1
 509 73 l 1,16,17
 404 -14 404 -14 289 -14 c 0,18,19
 195 -14 195 -14 157.5 28 c 128,-1,20
 120 70 120 70 120 163 c 2,21,-1
 120 522 l 1,22,-1
 60 522 l 1,23,-1
 60 572 l 1,0,-1
432 666 m 1,24,-1
 390 624 l 1,25,-1
 218 774 l 1,26,-1
 271 827 l 1,27,-1
 432 666 l 1,24,-1
EndSplineSet
EndChar

StartChar: uacute
Encoding: 250 250 186
Width: 696
GlyphClass: 2
Flags: W
LayerCount: 2
Fore
SplineSet
60 572 m 1,0,-1
 190 572 l 1,1,-1
 190 164 l 2,2,3
 190 100 190 100 215.5 72.5 c 128,-1,4
 241 45 241 45 304 45 c 0,5,6
 411 45 411 45 506 132 c 1,7,-1
 506 522 l 1,8,-1
 446 522 l 1,9,-1
 446 572 l 1,10,-1
 576 572 l 1,11,-1
 576 50 l 1,12,-1
 636 50 l 1,13,-1
 636 0 l 1,14,-1
 529 0 l 1,15,-1
 509 73 l 1,16,17
 404 -14 404 -14 289 -14 c 0,18,19
 195 -14 195 -14 157.5 28 c 128,-1,20
 120 70 120 70 120 163 c 2,21,-1
 120 522 l 1,22,-1
 60 522 l 1,23,-1
 60 572 l 1,0,-1
331 624 m 1,24,-1
 289 666 l 1,25,-1
 450 827 l 1,26,-1
 503 774 l 1,27,-1
 331 624 l 1,24,-1
EndSplineSet
EndChar

StartChar: ucircumflex
Encoding: 251 251 187
Width: 696
GlyphClass: 2
Flags: W
LayerCount: 2
Fore
SplineSet
60 572 m 1,0,-1
 190 572 l 1,1,-1
 190 164 l 2,2,3
 190 100 190 100 215.5 72.5 c 128,-1,4
 241 45 241 45 304 45 c 0,5,6
 411 45 411 45 506 132 c 1,7,-1
 506 522 l 1,8,-1
 446 522 l 1,9,-1
 446 572 l 1,10,-1
 576 572 l 1,11,-1
 576 50 l 1,12,-1
 636 50 l 1,13,-1
 636 0 l 1,14,-1
 529 0 l 1,15,-1
 509 73 l 1,16,17
 404 -14 404 -14 289 -14 c 0,18,19
 195 -14 195 -14 157.5 28 c 128,-1,20
 120 70 120 70 120 163 c 2,21,-1
 120 522 l 1,22,-1
 60 522 l 1,23,-1
 60 572 l 1,0,-1
247 624 m 1,24,-1
 205 666 l 1,25,-1
 341 821 l 1,26,-1
 370 821 l 1,27,-1
 506 666 l 1,28,-1
 464 624 l 1,29,-1
 355 734 l 1,30,-1
 247 624 l 1,24,-1
EndSplineSet
EndChar

StartChar: udieresis
Encoding: 252 252 188
Width: 696
GlyphClass: 2
Flags: W
LayerCount: 2
Fore
SplineSet
190 572 m 1,0,-1
 190 164 l 2,1,2
 190 100 190 100 215.5 72.5 c 128,-1,3
 241 45 241 45 304 45 c 0,4,5
 411 45 411 45 506 132 c 1,6,-1
 506 522 l 1,7,-1
 446 522 l 1,8,-1
 446 572 l 1,9,-1
 576 572 l 1,10,-1
 576 50 l 1,11,-1
 636 50 l 1,12,-1
 636 0 l 1,13,-1
 529 0 l 1,14,-1
 509 73 l 1,15,16
 404 -14 404 -14 289 -14 c 0,17,18
 195 -14 195 -14 157.5 28 c 128,-1,19
 120 70 120 70 120 163 c 2,20,-1
 120 522 l 1,21,-1
 60 522 l 1,22,-1
 60 572 l 1,23,-1
 190 572 l 1,0,-1
489.5 681 m 128,-1,25
 479 672 479 672 459.5 672 c 128,-1,26
 440 672 440 672 430 681 c 128,-1,27
 420 690 420 690 418 699.5 c 128,-1,28
 416 709 416 709 416 725.5 c 128,-1,29
 416 742 416 742 418 751.5 c 128,-1,30
 420 761 420 761 430 770 c 128,-1,31
 440 779 440 779 464 779 c 128,-1,32
 488 779 488 779 496 765 c 128,-1,33
 504 751 504 751 504 730 c 128,-1,34
 504 709 504 709 502 699.5 c 128,-1,24
 500 690 500 690 489.5 681 c 128,-1,25
279.5 681 m 128,-1,36
 269 672 269 672 249.5 672 c 128,-1,37
 230 672 230 672 220 681 c 128,-1,38
 210 690 210 690 208 699.5 c 128,-1,39
 206 709 206 709 206 725.5 c 128,-1,40
 206 742 206 742 208 751.5 c 128,-1,41
 210 761 210 761 220 770 c 128,-1,42
 230 779 230 779 254 779 c 128,-1,43
 278 779 278 779 286 765 c 128,-1,44
 294 751 294 751 294 730 c 128,-1,45
 294 709 294 709 292 699.5 c 128,-1,35
 290 690 290 690 279.5 681 c 128,-1,36
EndSplineSet
EndChar

StartChar: yacute
Encoding: 253 253 189
Width: 572
GlyphClass: 2
Flags: W
LayerCount: 2
Fore
SplineSet
99 -227 m 1,0,-1
 99 -177 l 1,1,-1
 158 -172 l 2,2,3
 183 -170 183 -170 191 -163 c 128,-1,4
 199 -156 199 -156 207 -136 c 2,5,-1
 253 -13 l 1,6,-1
 49 522 l 1,7,-1
 10 522 l 1,8,-1
 10 572 l 1,9,-1
 176 572 l 1,10,-1
 176 522 l 1,11,-1
 119 522 l 1,12,-1
 286 76 l 1,13,-1
 452 522 l 1,14,-1
 396 522 l 1,15,-1
 396 572 l 1,16,-1
 562 572 l 1,17,-1
 562 522 l 1,18,-1
 523 522 l 1,19,-1
 263 -162 l 2,20,21
 250 -196 250 -196 235 -211.5 c 128,-1,22
 220 -227 220 -227 189 -227 c 2,23,-1
 99 -227 l 1,0,-1
274 624 m 1,24,-1
 232 666 l 1,25,-1
 393 827 l 1,26,-1
 446 774 l 1,27,-1
 274 624 l 1,24,-1
EndSplineSet
EndChar

StartChar: thorn
Encoding: 254 254 190
Width: 636
GlyphClass: 2
Flags: W
LayerCount: 2
Fore
SplineSet
40 694 m 1,0,-1
 40 750 l 1,1,-1
 170 750 l 1,2,-1
 170 519 l 1,3,4
 246 586 246 586 337 586 c 0,5,6
 394 586 394 586 435.5 569 c 128,-1,7
 477 552 477 552 500 526 c 128,-1,8
 523 500 523 500 536.5 458 c 128,-1,9
 550 416 550 416 553.5 377.5 c 128,-1,10
 557 339 557 339 557 286 c 128,-1,11
 557 233 557 233 553.5 194.5 c 128,-1,12
 550 156 550 156 536.5 114 c 128,-1,13
 523 72 523 72 500 46 c 128,-1,14
 477 20 477 20 435.5 3 c 128,-1,15
 394 -14 394 -14 323.5 -14 c 128,-1,16
 253 -14 253 -14 170 23 c 1,17,-1
 170 -171 l 1,18,-1
 250 -171 l 1,19,-1
 250 -227 l 1,20,-1
 40 -227 l 1,21,-1
 40 -171 l 1,22,-1
 100 -171 l 1,23,-1
 100 694 l 1,24,-1
 40 694 l 1,0,-1
337 522 m 0,25,26
 245 522 245 522 170 451 c 1,27,-1
 170 82 l 1,28,29
 242 50 242 50 337 50 c 0,30,31
 433 50 433 50 463 119 c 0,32,33
 478 154 478 154 482.5 191.5 c 128,-1,34
 487 229 487 229 487 277.5 c 128,-1,35
 487 326 487 326 484.5 356 c 128,-1,36
 482 386 482 386 473 419 c 128,-1,37
 464 452 464 452 448.5 473 c 128,-1,38
 433 494 433 494 404.5 508 c 128,-1,39
 376 522 376 522 337 522 c 0,25,26
EndSplineSet
EndChar

StartChar: ydieresis
Encoding: 255 255 191
Width: 572
GlyphClass: 2
Flags: W
LayerCount: 2
Fore
SplineSet
99 -227 m 1,0,-1
 99 -177 l 1,1,-1
 158 -172 l 2,2,3
 183 -170 183 -170 191 -163 c 128,-1,4
 199 -156 199 -156 207 -136 c 2,5,-1
 253 -13 l 1,6,-1
 49 522 l 1,7,-1
 10 522 l 1,8,-1
 10 572 l 1,9,-1
 176 572 l 1,10,-1
 176 522 l 1,11,-1
 119 522 l 1,12,-1
 286 76 l 1,13,-1
 452 522 l 1,14,-1
 396 522 l 1,15,-1
 396 572 l 1,16,-1
 562 572 l 1,17,-1
 562 522 l 1,18,-1
 523 522 l 1,19,-1
 263 -162 l 2,20,21
 250 -196 250 -196 235 -211.5 c 128,-1,22
 220 -227 220 -227 189 -227 c 2,23,-1
 99 -227 l 1,0,-1
230.5 681 m 128,-1,25
 220 672 220 672 200.5 672 c 128,-1,26
 181 672 181 672 171 681 c 128,-1,27
 161 690 161 690 159 699.5 c 128,-1,28
 157 709 157 709 157 725.5 c 128,-1,29
 157 742 157 742 159 751.5 c 128,-1,30
 161 761 161 761 171 770 c 128,-1,31
 181 779 181 779 205 779 c 128,-1,32
 229 779 229 779 237 765 c 128,-1,33
 245 751 245 751 245 730 c 128,-1,34
 245 709 245 709 243 699.5 c 128,-1,24
 241 690 241 690 230.5 681 c 128,-1,25
440.5 681 m 128,-1,36
 430 672 430 672 410.5 672 c 128,-1,37
 391 672 391 672 381 681 c 128,-1,38
 371 690 371 690 369 699.5 c 128,-1,39
 367 709 367 709 367 725.5 c 128,-1,40
 367 742 367 742 369 751.5 c 128,-1,41
 371 761 371 761 381 770 c 128,-1,42
 391 779 391 779 415 779 c 128,-1,43
 439 779 439 779 447 765 c 128,-1,44
 455 751 455 751 455 730 c 128,-1,45
 455 709 455 709 453 699.5 c 128,-1,35
 451 690 451 690 440.5 681 c 128,-1,36
EndSplineSet
EndChar

StartChar: dotlessi
Encoding: 305 305 192
Width: 320
GlyphClass: 2
Flags: W
LayerCount: 2
Fore
SplineSet
70 522 m 1,0,-1
 70 572 l 1,1,-1
 200 572 l 1,2,-1
 200 50 l 1,3,-1
 260 50 l 1,4,-1
 260 0 l 1,5,-1
 70 0 l 1,6,-1
 70 50 l 1,7,-1
 130 50 l 1,8,-1
 130 522 l 1,9,-1
 70 522 l 1,0,-1
EndSplineSet
EndChar

StartChar: Lslash
Encoding: 321 321 193
Width: 507
GlyphClass: 2
Flags: W
LayerCount: 2
Fore
SplineSet
70 680 m 1,0,-1
 70 730 l 1,1,-1
 282 730 l 1,2,-1
 282 680 l 1,3,-1
 202 680 l 1,4,-1
 202 421 l 1,5,-1
 291 457 l 1,6,-1
 291 402 l 1,7,-1
 202 366 l 1,8,-1
 202 59 l 1,9,-1
 441 59 l 1,10,-1
 441 158 l 1,11,-1
 497 158 l 1,12,-1
 497 0 l 1,13,-1
 70 0 l 1,14,-1
 70 50 l 1,15,-1
 130 50 l 1,16,-1
 130 337 l 1,17,-1
 41 302 l 1,18,-1
 41 357 l 1,19,-1
 130 392 l 1,20,-1
 130 680 l 1,21,-1
 70 680 l 1,0,-1
EndSplineSet
EndChar

StartChar: lslash
Encoding: 322 322 194
Width: 310
GlyphClass: 2
Flags: W
LayerCount: 2
Fore
SplineSet
60 700 m 1,0,-1
 60 750 l 1,1,-1
 190 750 l 1,2,-1
 190 421 l 1,3,-1
 280 457 l 1,4,-1
 280 402 l 1,5,-1
 190 366 l 1,6,-1
 190 50 l 1,7,-1
 250 50 l 1,8,-1
 250 0 l 1,9,-1
 60 0 l 1,10,-1
 60 50 l 1,11,-1
 120 50 l 1,12,-1
 120 338 l 1,13,-1
 30 302 l 1,14,-1
 30 357 l 1,15,-1
 120 393 l 1,16,-1
 120 700 l 1,17,-1
 60 700 l 1,0,-1
EndSplineSet
EndChar

StartChar: OE
Encoding: 338 338 195
Width: 1013
GlyphClass: 2
Flags: W
LayerCount: 2
Fore
SplineSet
933 572 m 1,0,-1
 877 572 l 1,1,-1
 877 671 l 1,2,-1
 538 671 l 1,3,4
 580 632 580 632 596.5 566.5 c 128,-1,5
 613 501 613 501 615 401 c 1,6,-1
 883 401 l 1,7,-1
 883 341 l 1,8,-1
 615 341 l 1,9,10
 613 234 613 234 597 166.5 c 128,-1,11
 581 99 581 99 538 59 c 1,12,-1
 897 59 l 1,13,-1
 897 158 l 1,14,-1
 953 158 l 1,15,-1
 953 0 l 1,16,-1
 337 0 l 2,17,18
 197 0 197 0 132 62 c 1,19,20
 102 89 102 89 85.5 139 c 128,-1,21
 69 189 69 189 64.5 238.5 c 128,-1,22
 60 288 60 288 60 364.5 c 128,-1,23
 60 441 60 441 64.5 491 c 128,-1,24
 69 541 69 541 85.5 590.5 c 128,-1,25
 102 640 102 640 132 668 c 0,26,27
 199 730 199 730 337 730 c 2,28,-1
 933 730 l 1,29,-1
 933 572 l 1,0,-1
337 671 m 2,30,31
 234 671 234 671 185 618 c 0,32,33
 144 575 144 575 136 470 c 0,34,35
 132 429 132 429 132 365 c 128,-1,36
 132 301 132 301 135.5 259.5 c 128,-1,37
 139 218 139 218 151 176.5 c 128,-1,38
 163 135 163 135 185 112 c 0,39,40
 234 59 234 59 337 59 c 2,41,-1
 350 59 l 1,42,43
 446 61 446 61 492 115 c 0,44,45
 531 160 531 160 540 262 c 0,46,47
 543 303 543 303 543 365 c 128,-1,48
 543 427 543 427 539.5 468 c 128,-1,49
 536 509 536 509 524.5 550 c 128,-1,50
 513 591 513 591 492 614 c 1,51,52
 447 667 447 667 350 671 c 1,53,-1
 337 671 l 2,30,31
EndSplineSet
EndChar

StartChar: oe
Encoding: 339 339 196
Width: 987
GlyphClass: 2
Flags: W
LayerCount: 2
Fore
SplineSet
501 67 m 1,0,1
 446 -14 446 -14 304 -14 c 0,2,3
 102 -14 102 -14 70 160 c 0,4,5
 60 214 60 214 60 268.5 c 128,-1,6
 60 323 60 323 62 351.5 c 128,-1,7
 64 380 64 380 70 412.5 c 128,-1,8
 76 445 76 445 86.5 469 c 128,-1,9
 97 493 97 493 115.5 516 c 128,-1,10
 134 539 134 539 160 554 c 0,11,12
 217 586 217 586 304 586 c 0,13,14
 445 586 445 586 503 503 c 1,15,16
 558 586 558 586 694 586 c 0,17,18
 755 586 755 586 798.5 569 c 128,-1,19
 842 552 842 552 866.5 526 c 128,-1,20
 891 500 891 500 905 458 c 128,-1,21
 919 416 919 416 923 377.5 c 128,-1,22
 927 339 927 339 927 286 c 2,23,-1
 927 270 l 1,24,-1
 529 270 l 1,25,26
 530 148 530 148 563.5 96.5 c 128,-1,27
 597 45 597 45 691.5 45 c 128,-1,28
 786 45 786 45 820 79.5 c 128,-1,29
 854 114 854 114 860 180 c 1,30,-1
 918 177 l 1,31,32
 914 134 914 134 904 103.5 c 128,-1,33
 894 73 894 73 872 44 c 1,34,35
 825 -14 825 -14 689.5 -14 c 128,-1,36
 554 -14 554 -14 501 67 c 1,0,1
304 45 m 0,37,38
 380 45 380 45 421 77 c 128,-1,39
 462 109 462 109 467 162 c 1,40,41
 459 210 459 210 459 284.5 c 128,-1,42
 459 359 459 359 468 409 c 1,43,44
 462 462 462 462 421 494.5 c 128,-1,45
 380 527 380 527 304 527 c 0,46,47
 256 527 256 527 222.5 512.5 c 128,-1,48
 189 498 189 498 171.5 477.5 c 128,-1,49
 154 457 154 457 144 421.5 c 128,-1,50
 134 386 134 386 132 357.5 c 128,-1,51
 130 329 130 329 130 286 c 128,-1,52
 130 243 130 243 132 214.5 c 128,-1,53
 134 186 134 186 144 150.5 c 128,-1,54
 154 115 154 115 171.5 94.5 c 128,-1,55
 189 74 189 74 222.5 59.5 c 128,-1,56
 256 45 256 45 304 45 c 0,37,38
694 527 m 0,57,58
 643 527 643 527 609.5 511 c 128,-1,59
 576 495 576 495 560 464 c 1,60,61
 531 412 531 412 529 325 c 1,62,-1
 856 325 l 1,63,64
 854 415 854 415 827 466 c 0,65,66
 795 527 795 527 694 527 c 0,57,58
EndSplineSet
EndChar

StartChar: Scaron
Encoding: 352 352 197
Width: 618
GlyphClass: 2
Flags: W
LayerCount: 2
Fore
SplineSet
123 0 m 1,0,-1
 69 0 l 1,1,-1
 69 216 l 1,2,-1
 123 216 l 1,3,4
 125 141 125 141 172 93.5 c 128,-1,5
 219 46 219 46 312.5 46 c 128,-1,6
 406 46 406 46 443.5 80 c 128,-1,7
 481 114 481 114 481 182.5 c 128,-1,8
 481 251 481 251 454 279 c 128,-1,9
 427 307 427 307 355 321 c 2,10,-1
 265 338 l 2,11,12
 157 359 157 359 116.5 399 c 128,-1,13
 76 439 76 439 76 537.5 c 128,-1,14
 76 636 76 636 124 690 c 128,-1,15
 172 744 172 744 290 744 c 0,16,17
 427 744 427 744 481 652 c 1,18,-1
 481 730 l 1,19,-1
 535 730 l 1,20,-1
 535 552 l 1,21,-1
 481 552 l 1,22,23
 461 684 461 684 305 684 c 0,24,25
 214 684 214 684 181 647 c 128,-1,26
 148 610 148 610 148 541 c 128,-1,27
 148 472 148 472 171 446 c 128,-1,28
 194 420 194 420 268 406 c 2,29,-1
 357 389 l 2,30,31
 467 368 467 368 510 326.5 c 128,-1,32
 553 285 553 285 553 187.5 c 128,-1,33
 553 90 553 90 501.5 38 c 128,-1,34
 450 -14 450 -14 317 -14 c 128,-1,35
 184 -14 184 -14 123 86 c 1,36,-1
 123 0 l 1,0,-1
417 985 m 1,37,-1
 459 943 l 1,38,-1
 323 788 l 1,39,-1
 294 788 l 1,40,-1
 158 943 l 1,41,-1
 200 985 l 1,42,-1
 309 875 l 1,43,-1
 417 985 l 1,37,-1
EndSplineSet
EndChar

StartChar: scaron
Encoding: 353 353 198
Width: 568
GlyphClass: 2
Flags: W
LayerCount: 2
Fore
SplineSet
476 572 m 1,0,-1
 476 370 l 1,1,-1
 430 370 l 1,2,3
 422 469 422 469 382 500 c 0,4,5
 360 516 360 516 333 521.5 c 128,-1,6
 306 527 306 527 253 527 c 128,-1,7
 200 527 200 527 171.5 500 c 128,-1,8
 143 473 143 473 143 430.5 c 128,-1,9
 143 388 143 388 166.5 366.5 c 128,-1,10
 190 345 190 345 249 330 c 2,11,-1
 327 309 l 2,12,13
 419 284 419 284 458.5 250.5 c 128,-1,14
 498 217 498 217 498 146 c 0,15,16
 498 -14 498 -14 301 -14 c 0,17,18
 176 -14 176 -14 124 74 c 1,19,-1
 126 0 l 1,20,-1
 75 0 l 1,21,-1
 75 202 l 1,22,-1
 121 202 l 1,23,24
 138 45 138 45 292 45 c 0,25,26
 428 45 428 45 428 146 c 0,27,28
 428 182 428 182 405 204 c 128,-1,29
 382 226 382 226 324 241 c 2,30,-1
 246 262 l 1,31,32
 153 286 153 286 113 319.5 c 128,-1,33
 73 353 73 353 73 426 c 128,-1,34
 73 499 73 499 120.5 542.5 c 128,-1,35
 168 586 168 586 261 586 c 0,36,37
 380 586 380 586 426 514 c 1,38,-1
 425 572 l 1,39,-1
 476 572 l 1,0,-1
394 827 m 1,40,-1
 436 785 l 1,41,-1
 300 630 l 1,42,-1
 271 630 l 1,43,-1
 135 785 l 1,44,-1
 177 827 l 1,45,-1
 286 717 l 1,46,-1
 394 827 l 1,40,-1
EndSplineSet
EndChar

StartChar: Ydieresis
Encoding: 376 376 199
Width: 492
GlyphClass: 2
Flags: W
LayerCount: 2
Fore
SplineSet
282 56 m 1,0,-1
 352 56 l 1,1,-1
 352 0 l 1,2,-1
 140 0 l 1,3,-1
 140 56 l 1,4,-1
 210 56 l 1,5,-1
 210 255 l 1,6,-1
 20 674 l 1,7,-1
 -25 674 l 1,8,-1
 -25 730 l 1,9,-1
 157 730 l 1,10,-1
 157 674 l 1,11,-1
 95 674 l 1,12,-1
 246 332 l 1,13,-1
 396 674 l 1,14,-1
 335 674 l 1,15,-1
 335 730 l 1,16,-1
 517 730 l 1,17,-1
 517 674 l 1,18,-1
 471 674 l 1,19,-1
 282 255 l 1,20,-1
 282 56 l 1,0,-1
170.5 839 m 128,-1,22
 160 830 160 830 140.5 830 c 128,-1,23
 121 830 121 830 111 839 c 128,-1,24
 101 848 101 848 99 857.5 c 128,-1,25
 97 867 97 867 97 883.5 c 128,-1,26
 97 900 97 900 99 909.5 c 128,-1,27
 101 919 101 919 111 928 c 128,-1,28
 121 937 121 937 145 937 c 128,-1,29
 169 937 169 937 177 923 c 128,-1,30
 185 909 185 909 185 888 c 128,-1,31
 185 867 185 867 183 857.5 c 128,-1,21
 181 848 181 848 170.5 839 c 128,-1,22
380.5 839 m 128,-1,33
 370 830 370 830 350.5 830 c 128,-1,34
 331 830 331 830 321 839 c 128,-1,35
 311 848 311 848 309 857.5 c 128,-1,36
 307 867 307 867 307 883.5 c 128,-1,37
 307 900 307 900 309 909.5 c 128,-1,38
 311 919 311 919 321 928 c 128,-1,39
 331 937 331 937 355 937 c 128,-1,40
 379 937 379 937 387 923 c 128,-1,41
 395 909 395 909 395 888 c 128,-1,42
 395 867 395 867 393 857.5 c 128,-1,32
 391 848 391 848 380.5 839 c 128,-1,33
EndSplineSet
EndChar

StartChar: Zcaron
Encoding: 381 381 200
Width: 525
GlyphClass: 2
Flags: W
LayerCount: 2
Fore
SplineSet
515 0 m 1,0,-1
 30 0 l 1,1,-1
 30 46 l 1,2,-1
 413 666 l 1,3,-1
 106 666 l 1,4,-1
 106 572 l 1,5,-1
 50 572 l 1,6,-1
 50 730 l 1,7,-1
 505 730 l 1,8,-1
 505 684 l 1,9,-1
 122 64 l 1,10,-1
 459 64 l 1,11,-1
 459 158 l 1,12,-1
 515 158 l 1,13,-1
 515 0 l 1,0,-1
371 985 m 1,14,-1
 413 943 l 1,15,-1
 277 788 l 1,16,-1
 248 788 l 1,17,-1
 112 943 l 1,18,-1
 154 985 l 1,19,-1
 263 875 l 1,20,-1
 371 985 l 1,14,-1
EndSplineSet
EndChar

StartChar: zcaron
Encoding: 382 382 201
Width: 536
GlyphClass: 2
Flags: W
LayerCount: 2
Fore
SplineSet
436 166 m 1,0,-1
 486 166 l 1,1,-1
 486 0 l 1,2,-1
 40 0 l 1,3,-1
 40 50 l 1,4,-1
 396 516 l 1,5,-1
 114 516 l 1,6,-1
 114 406 l 1,7,-1
 64 406 l 1,8,-1
 64 572 l 1,9,-1
 482 572 l 1,10,-1
 482 522 l 1,11,-1
 126 56 l 1,12,-1
 436 56 l 1,13,-1
 436 166 l 1,0,-1
388 827 m 1,14,-1
 430 785 l 1,15,-1
 294 630 l 1,16,-1
 265 630 l 1,17,-1
 129 785 l 1,18,-1
 171 827 l 1,19,-1
 280 717 l 1,20,-1
 388 827 l 1,14,-1
EndSplineSet
EndChar

StartChar: florin
Encoding: 402 402 202
Width: 580
GlyphClass: 2
Flags: W
LayerCount: 2
Fore
SplineSet
114 286 m 1,0,-1
 114 346 l 1,1,-1
 230 346 l 1,2,-1
 230 489 l 2,3,4
 230 585 230 585 272 634.5 c 128,-1,5
 314 684 314 684 406 684 c 128,-1,6
 498 684 498 684 550 632 c 1,7,-1
 513 586 l 1,8,9
 477 625 477 625 413 625 c 128,-1,10
 349 625 349 625 327 591.5 c 128,-1,11
 305 558 305 558 305 489 c 2,12,-1
 305 346 l 1,13,-1
 461 346 l 1,14,-1
 461 286 l 1,15,-1
 305 286 l 1,16,-1
 305 -46 l 2,17,18
 305 -240 305 -240 106 -240 c 1,19,-1
 116 -179 l 1,20,21
 183 -179 183 -179 206.5 -147 c 128,-1,22
 230 -115 230 -115 230 -46 c 2,23,-1
 230 286 l 1,24,-1
 114 286 l 1,0,-1
EndSplineSet
EndChar

StartChar: circumflex
Encoding: 710 710 203
Width: 401
GlyphClass: 2
Flags: W
LayerCount: 2
Fore
SplineSet
92 624 m 1,0,-1
 50 666 l 1,1,-1
 186 821 l 1,2,-1
 215 821 l 1,3,-1
 351 666 l 1,4,-1
 309 624 l 1,5,-1
 200 734 l 1,6,-1
 92 624 l 1,0,-1
EndSplineSet
EndChar

StartChar: caron
Encoding: 711 711 204
Width: 371
GlyphClass: 2
Flags: W
LayerCount: 2
Fore
SplineSet
294 827 m 1,0,-1
 336 785 l 1,1,-1
 200 630 l 1,2,-1
 171 630 l 1,3,-1
 35 785 l 1,4,-1
 77 827 l 1,5,-1
 186 717 l 1,6,-1
 294 827 l 1,0,-1
EndSplineSet
EndChar

StartChar: breve
Encoding: 728 728 205
Width: 425
GlyphClass: 2
Flags: W
LayerCount: 2
Fore
SplineSet
282 779 m 1,0,-1
 338 779 l 1,1,2
 338 701 338 701 305 671 c 0,3,4
 276 644 276 644 224 644 c 128,-1,5
 172 644 172 644 145.5 654.5 c 128,-1,6
 119 665 119 665 107 686 c 0,7,8
 87 721 87 721 87 779 c 1,9,-1
 142 779 l 1,10,11
 142 755 142 755 145 741.5 c 128,-1,12
 148 728 148 728 164.5 716.5 c 128,-1,13
 181 705 181 705 212 705 c 128,-1,14
 243 705 243 705 259.5 716.5 c 128,-1,15
 276 728 276 728 279 741.5 c 128,-1,16
 282 755 282 755 282 779 c 1,0,-1
EndSplineSet
EndChar

StartChar: dotaccent
Encoding: 729 729 206
Width: 274
GlyphClass: 2
Flags: W
LayerCount: 2
Fore
SplineSet
179.5 671 m 128,-1,1
 167 660 167 660 147 660 c 128,-1,2
 127 660 127 660 116 665.5 c 128,-1,3
 105 671 105 671 100 682 c 0,4,5
 93 699 93 699 93 722 c 128,-1,6
 93 745 93 745 95.5 757 c 128,-1,7
 98 769 98 769 110 780 c 128,-1,8
 122 791 122 791 144.5 791 c 128,-1,9
 167 791 167 791 179.5 780 c 128,-1,10
 192 769 192 769 194.5 757 c 128,-1,11
 197 745 197 745 197 725.5 c 128,-1,12
 197 706 197 706 194.5 694 c 128,-1,0
 192 682 192 682 179.5 671 c 128,-1,1
EndSplineSet
EndChar

StartChar: ring
Encoding: 730 730 207
Width: 274
GlyphClass: 2
Flags: W
LayerCount: 2
Fore
SplineSet
115.5 680 m 128,-1,1
 125 671 125 671 144.5 671 c 128,-1,2
 164 671 164 671 174 680 c 128,-1,3
 184 689 184 689 186 699 c 128,-1,4
 188 709 188 709 188 725.5 c 128,-1,5
 188 742 188 742 186 751.5 c 128,-1,6
 184 761 184 761 174 770.5 c 128,-1,7
 164 780 164 780 140.5 780 c 128,-1,8
 117 780 117 780 109.5 765.5 c 128,-1,9
 102 751 102 751 102 730 c 128,-1,10
 102 709 102 709 104 699 c 128,-1,0
 106 689 106 689 115.5 680 c 128,-1,1
144 628 m 128,-1,12
 112 628 112 628 92 636 c 128,-1,13
 72 644 72 644 63.5 660 c 128,-1,14
 55 676 55 676 52.5 690 c 128,-1,15
 50 704 50 704 50 725 c 128,-1,16
 50 746 50 746 52.5 760 c 128,-1,17
 55 774 55 774 63.5 790.5 c 128,-1,18
 72 807 72 807 92 815 c 128,-1,19
 112 823 112 823 144 823 c 128,-1,20
 176 823 176 823 197 815 c 128,-1,21
 218 807 218 807 226.5 790.5 c 128,-1,22
 235 774 235 774 237.5 760 c 128,-1,23
 240 746 240 746 240 725 c 128,-1,24
 240 704 240 704 237.5 690 c 128,-1,25
 235 676 235 676 226.5 660 c 128,-1,26
 218 644 218 644 197 636 c 128,-1,11
 176 628 176 628 144 628 c 128,-1,12
EndSplineSet
EndChar

StartChar: ogonek
Encoding: 731 731 208
Width: 332
GlyphClass: 2
Flags: W
LayerCount: 2
Fore
SplineSet
158 -215 m 0,0,1
 50 -215 50 -215 50 -119 c 0,2,3
 50 -80 50 -80 70.5 -55.5 c 128,-1,4
 91 -31 91 -31 132 -6 c 2,5,-1
 225 51 l 1,6,-1
 253 9 l 1,7,-1
 160 -48 l 2,8,9
 133 -65 133 -65 120.5 -80.5 c 128,-1,10
 108 -96 108 -96 108 -119 c 0,11,12
 108 -165 108 -165 158 -165 c 0,13,14
 186 -165 186 -165 207.5 -146.5 c 128,-1,15
 229 -128 229 -128 240 -103 c 1,16,-1
 282 -131 l 1,17,18
 264 -167 264 -167 231 -191 c 128,-1,19
 198 -215 198 -215 158 -215 c 0,0,1
EndSplineSet
EndChar

StartChar: tilde
Encoding: 732 732 209
Width: 410
GlyphClass: 2
Flags: W
LayerCount: 2
Fore
SplineSet
278 677 m 0,0,1
 252 677 252 677 203 695 c 128,-1,2
 154 713 154 713 138.5 713 c 128,-1,3
 123 713 123 713 113 703 c 128,-1,4
 103 693 103 693 95 669 c 1,5,-1
 44 685 l 1,6,7
 71 778 71 778 132 778 c 0,8,9
 158 778 158 778 207 760 c 128,-1,10
 256 742 256 742 272 742 c 128,-1,11
 288 742 288 742 298 752 c 128,-1,12
 308 762 308 762 316 786 c 1,13,-1
 366 770 l 1,14,15
 339 677 339 677 278 677 c 0,0,1
EndSplineSet
EndChar

StartChar: hungarumlaut
Encoding: 733 733 210
Width: 547
GlyphClass: 2
Flags: W
LayerCount: 2
Fore
SplineSet
92 624 m 1,0,-1
 50 666 l 1,1,-1
 211 827 l 1,2,-1
 264 774 l 1,3,-1
 92 624 l 1,0,-1
325 624 m 1,4,-1
 283 666 l 1,5,-1
 444 827 l 1,6,-1
 497 774 l 1,7,-1
 325 624 l 1,4,-1
EndSplineSet
EndChar

StartChar: pi
Encoding: 960 960 211
Width: 635
GlyphClass: 2
Flags: W
LayerCount: 2
Fore
SplineSet
70 522 m 1,0,-1
 70 572 l 1,1,-1
 565 572 l 1,2,-1
 565 522 l 1,3,-1
 505 522 l 1,4,-1
 505 0 l 1,5,-1
 435 0 l 1,6,-1
 435 522 l 1,7,-1
 200 522 l 1,8,-1
 200 0 l 1,9,-1
 130 0 l 1,10,-1
 130 522 l 1,11,-1
 70 522 l 1,0,-1
EndSplineSet
EndChar

StartChar: endash
Encoding: 8211 8211 212
Width: 580
GlyphClass: 2
Flags: W
LayerCount: 2
Fore
SplineSet
70 288 m 1,0,-1
 70 348 l 1,1,-1
 510 348 l 1,2,-1
 510 288 l 1,3,-1
 70 288 l 1,0,-1
EndSplineSet
EndChar

StartChar: emdash
Encoding: 8212 8212 213
Width: 913
GlyphClass: 2
Flags: W
LayerCount: 2
Fore
SplineSet
70 288 m 1,0,-1
 70 348 l 1,1,-1
 843 348 l 1,2,-1
 843 288 l 1,3,-1
 70 288 l 1,0,-1
EndSplineSet
EndChar

StartChar: quoteleft
Encoding: 8216 8216 214
Width: 263
GlyphClass: 2
Flags: W
LayerCount: 2
Fore
SplineSet
160.5 647 m 128,-1,1
 166 626 166 626 166 610.5 c 128,-1,2
 166 595 166 595 164 584.5 c 128,-1,3
 162 574 162 574 151 564.5 c 128,-1,4
 140 555 140 555 114 555 c 128,-1,5
 88 555 88 555 79 570.5 c 128,-1,6
 70 586 70 586 70 613.5 c 128,-1,7
 70 641 70 641 80.5 669 c 128,-1,8
 91 697 91 697 106 716 c 0,9,10
 138 760 138 760 160 776 c 2,11,-1
 170 783 l 1,12,-1
 193 756 l 1,13,14
 180 744 180 744 174 736 c 0,15,16
 155 713 155 713 155 677 c 0,17,0
 155 668 155 668 160.5 647 c 128,-1,1
EndSplineSet
EndChar

StartChar: quoteright
Encoding: 8217 8217 215
Width: 263
GlyphClass: 2
Flags: W
LayerCount: 2
Fore
SplineSet
102.5 691 m 128,-1,1
 97 712 97 712 97 727.5 c 128,-1,2
 97 743 97 743 99 753.5 c 128,-1,3
 101 764 101 764 112 773.5 c 128,-1,4
 123 783 123 783 149 783 c 128,-1,5
 175 783 175 783 184 767.5 c 128,-1,6
 193 752 193 752 193 724.5 c 128,-1,7
 193 697 193 697 182.5 669 c 128,-1,8
 172 641 172 641 158 622 c 0,9,10
 125 578 125 578 104 562 c 1,11,-1
 93 555 l 1,12,-1
 70 582 l 1,13,14
 83 594 83 594 90 602 c 0,15,16
 108 625 108 625 108 661 c 0,17,0
 108 670 108 670 102.5 691 c 128,-1,1
EndSplineSet
EndChar

StartChar: quotesinglbase
Encoding: 8218 8218 216
Width: 226
GlyphClass: 2
Flags: W
LayerCount: 2
Fore
SplineSet
77 -14 m 1,0,-1
 65 50 l 1,1,2
 65 68 65 68 67 78.5 c 128,-1,3
 69 89 69 89 80 99 c 128,-1,4
 91 109 91 109 117 109 c 128,-1,5
 143 109 143 109 152 93 c 128,-1,6
 161 77 161 77 161 49.5 c 128,-1,7
 161 22 161 22 150.5 -6 c 128,-1,8
 140 -34 140 -34 126 -54 c 1,9,10
 93 -97 93 -97 72 -112 c 2,11,-1
 61 -120 l 1,12,-1
 38 -93 l 1,13,14
 51 -81 51 -81 58 -73 c 0,15,16
 77 -51 77 -51 77 -14 c 1,0,-1
EndSplineSet
EndChar

StartChar: quotedblleft
Encoding: 8220 8220 217
Width: 420
GlyphClass: 2
Flags: W
LayerCount: 2
Fore
SplineSet
160.5 647 m 128,-1,1
 166 626 166 626 166 610.5 c 128,-1,2
 166 595 166 595 164 584.5 c 128,-1,3
 162 574 162 574 151 564.5 c 128,-1,4
 140 555 140 555 114 555 c 128,-1,5
 88 555 88 555 79 570.5 c 128,-1,6
 70 586 70 586 70 613.5 c 128,-1,7
 70 641 70 641 80.5 669 c 128,-1,8
 91 697 91 697 106 716 c 0,9,10
 138 760 138 760 160 776 c 2,11,-1
 170 783 l 1,12,-1
 194 756 l 1,13,14
 174 739 174 739 164.5 722.5 c 128,-1,15
 155 706 155 706 155 687 c 128,-1,0
 155 668 155 668 160.5 647 c 128,-1,1
317.5 647 m 128,-1,17
 323 626 323 626 323 610.5 c 128,-1,18
 323 595 323 595 321 584.5 c 128,-1,19
 319 574 319 574 308 564.5 c 128,-1,20
 297 555 297 555 271 555 c 128,-1,21
 245 555 245 555 236 570.5 c 128,-1,22
 227 586 227 586 227 613.5 c 128,-1,23
 227 641 227 641 237.5 669 c 128,-1,24
 248 697 248 697 262 716 c 0,25,26
 295 760 295 760 316 776 c 1,27,-1
 327 783 l 1,28,-1
 350 756 l 1,29,30
 337 744 337 744 330 736 c 0,31,32
 312 713 312 713 312 677 c 0,33,16
 312 668 312 668 317.5 647 c 128,-1,17
EndSplineSet
EndChar

StartChar: quotedblright
Encoding: 8221 8221 218
Width: 420
GlyphClass: 2
Flags: W
LayerCount: 2
Fore
SplineSet
259.5 691 m 128,-1,1
 254 712 254 712 254 727.5 c 128,-1,2
 254 743 254 743 256 753.5 c 128,-1,3
 258 764 258 764 269 773.5 c 128,-1,4
 280 783 280 783 306 783 c 128,-1,5
 332 783 332 783 341 767.5 c 128,-1,6
 350 752 350 752 350 724.5 c 128,-1,7
 350 697 350 697 339.5 669 c 128,-1,8
 329 641 329 641 314 622 c 0,9,10
 282 578 282 578 260 562 c 2,11,-1
 250 555 l 1,12,-1
 226 582 l 1,13,14
 246 599 246 599 255.5 615.5 c 128,-1,15
 265 632 265 632 265 651 c 128,-1,0
 265 670 265 670 259.5 691 c 128,-1,1
102.5 691 m 128,-1,17
 97 712 97 712 97 727.5 c 128,-1,18
 97 743 97 743 99 753.5 c 128,-1,19
 101 764 101 764 112 773.5 c 128,-1,20
 123 783 123 783 149 783 c 128,-1,21
 175 783 175 783 184 767.5 c 128,-1,22
 193 752 193 752 193 724.5 c 128,-1,23
 193 697 193 697 182.5 669 c 128,-1,24
 172 641 172 641 158 622 c 0,25,26
 125 578 125 578 104 562 c 1,27,-1
 93 555 l 1,28,-1
 70 582 l 1,29,30
 83 594 83 594 90 602 c 0,31,32
 108 625 108 625 108 661 c 0,33,16
 108 670 108 670 102.5 691 c 128,-1,17
EndSplineSet
EndChar

StartChar: quotedblbase
Encoding: 8222 8222 219
Width: 383
GlyphClass: 2
Flags: W
LayerCount: 2
Fore
SplineSet
227.5 16 m 128,-1,1
 222 37 222 37 222 52.5 c 128,-1,2
 222 68 222 68 224 78.5 c 128,-1,3
 226 89 226 89 237 98.5 c 128,-1,4
 248 108 248 108 274 108 c 128,-1,5
 300 108 300 108 309 92.5 c 128,-1,6
 318 77 318 77 318 49.5 c 128,-1,7
 318 22 318 22 307.5 -6 c 128,-1,8
 297 -34 297 -34 282 -54 c 0,9,10
 250 -97 250 -97 228 -112 c 1,11,-1
 218 -120 l 1,12,-1
 194 -93 l 1,13,14
 214 -76 214 -76 223.5 -59.5 c 128,-1,15
 233 -43 233 -43 233 -24 c 128,-1,0
 233 -5 233 -5 227.5 16 c 128,-1,1
70.5 16 m 128,-1,17
 65 37 65 37 65 52.5 c 128,-1,18
 65 68 65 68 67 78.5 c 128,-1,19
 69 89 69 89 80 98.5 c 128,-1,20
 91 108 91 108 117 108 c 128,-1,21
 143 108 143 108 152 92.5 c 128,-1,22
 161 77 161 77 161 49.5 c 128,-1,23
 161 22 161 22 150.5 -6 c 128,-1,24
 140 -34 140 -34 126 -54 c 1,25,26
 93 -97 93 -97 72 -112 c 2,27,-1
 61 -120 l 1,28,-1
 38 -93 l 1,29,30
 51 -81 51 -81 58 -73 c 0,31,32
 76 -50 76 -50 76 -14 c 0,33,16
 76 -5 76 -5 70.5 16 c 128,-1,17
EndSplineSet
EndChar

StartChar: dagger
Encoding: 8224 8224 220
Width: 440
GlyphClass: 2
Flags: W
LayerCount: 2
Fore
SplineSet
420 572 m 1,0,-1
 420 496 l 1,1,-1
 344 496 l 1,2,-1
 256 507 l 1,3,-1
 244 0 l 1,4,-1
 196 0 l 1,5,-1
 183 507 l 1,6,-1
 96 496 l 1,7,-1
 20 496 l 1,8,-1
 20 572 l 1,9,-1
 96 572 l 1,10,-1
 182 561 l 1,11,-1
 178 730 l 1,12,-1
 262 730 l 1,13,-1
 258 561 l 1,14,-1
 344 572 l 1,15,-1
 420 572 l 1,0,-1
EndSplineSet
EndChar

StartChar: daggerdbl
Encoding: 8225 8225 221
Width: 440
GlyphClass: 2
Flags: W
LayerCount: 2
Fore
SplineSet
20 158 m 1,0,-1
 20 234 l 1,1,-1
 96 234 l 1,2,-1
 188 222 l 1,3,-1
 188 201 l 1,4,-1
 196 365 l 1,5,-1
 188 529 l 1,6,-1
 188 508 l 1,7,-1
 96 496 l 1,8,-1
 20 496 l 1,9,-1
 20 572 l 1,10,-1
 96 572 l 1,11,-1
 186 560 l 1,12,-1
 178 730 l 1,13,-1
 262 730 l 1,14,-1
 253 560 l 1,15,-1
 344 572 l 1,16,-1
 420 572 l 1,17,-1
 420 496 l 1,18,-1
 344 496 l 1,19,-1
 252 508 l 1,20,-1
 252 527 l 1,21,-1
 244 365 l 1,22,-1
 252 203 l 1,23,-1
 252 222 l 1,24,-1
 344 234 l 1,25,-1
 420 234 l 1,26,-1
 420 158 l 1,27,-1
 344 158 l 1,28,-1
 253 170 l 1,29,-1
 262 0 l 1,30,-1
 178 0 l 1,31,-1
 186 170 l 1,32,-1
 96 158 l 1,33,-1
 20 158 l 1,0,-1
EndSplineSet
EndChar

StartChar: bullet
Encoding: 8226 8226 222
Width: 264
GlyphClass: 2
Flags: W
LayerCount: 2
Fore
SplineSet
171.5 253 m 128,-1,1
 156 246 156 246 131.5 246 c 128,-1,2
 107 246 107 246 92 253.5 c 128,-1,3
 77 261 77 261 70 275 c 0,4,5
 60 298 60 298 60 328.5 c 128,-1,6
 60 359 60 359 63.5 375.5 c 128,-1,7
 67 392 67 392 83.5 406.5 c 128,-1,8
 100 421 100 421 128 421 c 128,-1,9
 156 421 156 421 171.5 414 c 128,-1,10
 187 407 187 407 193.5 392.5 c 128,-1,11
 200 378 200 378 202 365 c 128,-1,12
 204 352 204 352 204 333 c 128,-1,13
 204 314 204 314 202 301.5 c 128,-1,14
 200 289 200 289 193.5 274.5 c 128,-1,0
 187 260 187 260 171.5 253 c 128,-1,1
EndSplineSet
EndChar

StartChar: ellipsis
Encoding: 8230 8230 223
Width: 678
GlyphClass: 2
Flags: W
LayerCount: 2
Fore
SplineSet
65 50 m 0,0,1
 65 68 65 68 67 78.5 c 128,-1,2
 69 89 69 89 80 99 c 128,-1,3
 91 109 91 109 117 109 c 128,-1,4
 143 109 143 109 152 93 c 128,-1,5
 161 77 161 77 161 57.5 c 128,-1,6
 161 38 161 38 159.5 29.5 c 128,-1,7
 158 21 158 21 154 12 c 0,8,9
 144 -8 144 -8 104.5 -8 c 128,-1,10
 65 -8 65 -8 65 50 c 0,0,1
291 50 m 0,11,12
 291 68 291 68 293 78.5 c 128,-1,13
 295 89 295 89 306 99 c 128,-1,14
 317 109 317 109 343 109 c 128,-1,15
 369 109 369 109 378 93 c 128,-1,16
 387 77 387 77 387 57.5 c 128,-1,17
 387 38 387 38 385.5 29.5 c 128,-1,18
 384 21 384 21 380 12 c 0,19,20
 370 -8 370 -8 330.5 -8 c 128,-1,21
 291 -8 291 -8 291 50 c 0,11,12
517 50 m 0,22,23
 517 68 517 68 519 78.5 c 128,-1,24
 521 89 521 89 532 99 c 128,-1,25
 543 109 543 109 569 109 c 128,-1,26
 595 109 595 109 604 93 c 128,-1,27
 613 77 613 77 613 57.5 c 128,-1,28
 613 38 613 38 611.5 29.5 c 128,-1,29
 610 21 610 21 606 12 c 0,30,31
 596 -8 596 -8 556.5 -8 c 128,-1,32
 517 -8 517 -8 517 50 c 0,22,23
EndSplineSet
EndChar

StartChar: perthousand
Encoding: 8240 8240 224
Width: 1373
GlyphClass: 2
Flags: W
LayerCount: 2
Fore
SplineSet
348 -66 m 1,0,-1
 562 735 l 1,1,-1
 615 735 l 1,2,-1
 400 -66 l 1,3,-1
 348 -66 l 1,0,-1
1165 -8 m 128,-1,5
 1118 -8 1118 -8 1088.5 6 c 128,-1,6
 1059 20 1059 20 1045 50.5 c 128,-1,7
 1031 81 1031 81 1026.5 114.5 c 128,-1,8
 1022 148 1022 148 1022 202.5 c 128,-1,9
 1022 257 1022 257 1026.5 290.5 c 128,-1,10
 1031 324 1031 324 1045 354 c 0,11,12
 1072 413 1072 413 1165 413 c 0,13,14
 1239 413 1239 413 1272 376 c 0,15,16
 1300 345 1300 345 1306 274 c 0,17,18
 1309 246 1309 246 1309 197 c 128,-1,19
 1309 148 1309 148 1304.5 114.5 c 128,-1,20
 1300 81 1300 81 1286 50.5 c 128,-1,21
 1272 20 1272 20 1242 6 c 128,-1,4
 1212 -8 1212 -8 1165 -8 c 128,-1,5
1093.5 73.5 m 128,-1,23
 1110 36 1110 36 1165.5 36 c 128,-1,24
 1221 36 1221 36 1237.5 73.5 c 128,-1,25
 1254 111 1254 111 1254 202.5 c 128,-1,26
 1254 294 1254 294 1237.5 331.5 c 128,-1,27
 1221 369 1221 369 1165.5 369 c 128,-1,28
 1110 369 1110 369 1093.5 331.5 c 128,-1,29
 1077 294 1077 294 1077 202.5 c 128,-1,22
 1077 111 1077 111 1093.5 73.5 c 128,-1,23
214 263 m 128,-1,31
 167 263 167 263 137.5 277 c 128,-1,32
 108 291 108 291 94 321.5 c 128,-1,33
 80 352 80 352 75.5 385.5 c 128,-1,34
 71 419 71 419 71 473.5 c 128,-1,35
 71 528 71 528 75.5 561.5 c 128,-1,36
 80 595 80 595 94 626 c 0,37,38
 121 684 121 684 214 684 c 0,39,40
 288 684 288 684 321 648 c 0,41,42
 349 616 349 616 356 546 c 0,43,44
 358 517 358 517 358 468 c 128,-1,45
 358 419 358 419 353.5 385.5 c 128,-1,46
 349 352 349 352 335 321.5 c 128,-1,47
 321 291 321 291 291 277 c 128,-1,30
 261 263 261 263 214 263 c 128,-1,31
142.5 344.5 m 128,-1,49
 159 307 159 307 214.5 307 c 128,-1,50
 270 307 270 307 286.5 344.5 c 128,-1,51
 303 382 303 382 303 473.5 c 128,-1,52
 303 565 303 565 286.5 602.5 c 128,-1,53
 270 640 270 640 214.5 640 c 128,-1,54
 159 640 159 640 142.5 602.5 c 128,-1,55
 126 565 126 565 126 473.5 c 128,-1,48
 126 382 126 382 142.5 344.5 c 128,-1,49
765 -8 m 128,-1,57
 718 -8 718 -8 688.5 6 c 128,-1,58
 659 20 659 20 645 50.5 c 128,-1,59
 631 81 631 81 626.5 114.5 c 128,-1,60
 622 148 622 148 622 202.5 c 128,-1,61
 622 257 622 257 626.5 290.5 c 128,-1,62
 631 324 631 324 645 354 c 0,63,64
 672 413 672 413 765 413 c 0,65,66
 839 413 839 413 872 376 c 0,67,68
 900 345 900 345 906 274 c 0,69,70
 909 246 909 246 909 197 c 128,-1,71
 909 148 909 148 904.5 114.5 c 128,-1,72
 900 81 900 81 886 50.5 c 128,-1,73
 872 20 872 20 842 6 c 128,-1,56
 812 -8 812 -8 765 -8 c 128,-1,57
693.5 73.5 m 128,-1,75
 710 36 710 36 765.5 36 c 128,-1,76
 821 36 821 36 837.5 73.5 c 128,-1,77
 854 111 854 111 854 202.5 c 128,-1,78
 854 294 854 294 837.5 331.5 c 128,-1,79
 821 369 821 369 765.5 369 c 128,-1,80
 710 369 710 369 693.5 331.5 c 128,-1,81
 677 294 677 294 677 202.5 c 128,-1,74
 677 111 677 111 693.5 73.5 c 128,-1,75
EndSplineSet
EndChar

StartChar: guilsinglleft
Encoding: 8249 8249 225
Width: 305
GlyphClass: 2
Flags: W
LayerCount: 2
Fore
SplineSet
245 158 m 1,0,-1
 198 112 l 1,1,-1
 30 299 l 1,2,-1
 30 331 l 1,3,-1
 198 518 l 1,4,-1
 245 472 l 1,5,-1
 121 315 l 1,6,-1
 245 158 l 1,0,-1
EndSplineSet
EndChar

StartChar: guilsinglright
Encoding: 8250 8250 226
Width: 305
GlyphClass: 2
Flags: W
LayerCount: 2
Fore
SplineSet
60 472 m 1,0,-1
 107 518 l 1,1,-1
 275 331 l 1,2,-1
 275 299 l 1,3,-1
 107 112 l 1,4,-1
 60 158 l 1,5,-1
 184 315 l 1,6,-1
 60 472 l 1,0,-1
EndSplineSet
EndChar

StartChar: fraction
Encoding: 8260 8260 227
Width: 267
GlyphClass: 2
Flags: W
LayerCount: 2
Fore
SplineSet
0 -66 m 1,0,-1
 214 735 l 1,1,-1
 267 735 l 1,2,-1
 52 -66 l 1,3,-1
 0 -66 l 1,0,-1
EndSplineSet
EndChar

